<svg width="523" height="381" viewBox="0 0 523 381" fill="none" xmlns="http://www.w3.org/2000/svg">
<mask id="mask0_7_9" style="mask-type:luminance" maskUnits="userSpaceOnUse" x="0" y="0" width="523" height="381">
<path d="M332.826 0.5C437.169 0.500148 521.836 84.7691 522.496 188.957L522.5 190.184C522.483 198.637 521.907 207.08 520.778 215.458L516.604 237.293C495.652 319.266 421.316 379.867 332.826 379.867H257.437C353.512 370.006 428.446 288.854 428.446 190.193C428.446 91.5135 353.432 10.3567 257.371 0.514648L332.826 0.5ZM237.234 0.518555V379.886H143.143V190.47L143.544 190.202L143.143 189.935V0.518555H237.234ZM141.74 190.202L0.5 284.359V96.0439L141.74 190.202Z" fill="white" stroke="white"/>
</mask>
<g mask="url(#mask0_7_9)">
<g opacity="0.3">
<path d="M-85.6826 149.963C-68.9475 138.585 -61.1155 150.105 -44.3899 138.727C-27.6642 127.349 -35.4866 115.838 -18.7893 104.46C-2.0921 93.082 5.76802 104.602 22.5032 93.2242C39.2383 81.8462 31.4065 70.326 48.1037 58.948C64.8009 47.57 72.6708 59.0901 89.406 47.7121C106.141 36.3341 98.3092 24.814 115.006 13.4359C131.704 2.05792 139.574 13.5781 156.309 2.20005C173.044 -9.17796 165.212 -20.6981 181.909 -32.0761C198.606 -43.4541 206.467 -31.934 223.202 -43.312C239.937 -54.69 232.105 -66.2007 248.803 -77.5787C265.5 -88.9567 273.36 -77.4461 290.095 -88.8241C306.83 -100.202 298.999 -111.713 315.696 -123.091C332.393 -134.469 340.263 -122.958 356.998 -134.336C373.733 -145.714 365.901 -157.234 382.598 -168.612" stroke="#716D65" stroke-width="8.24" stroke-miterlimit="10"/>
<path d="M-73.0322 168.594C-56.2971 157.216 -48.4654 168.737 -31.7302 157.359C-14.9951 145.981 -22.8364 134.46 -6.12969 123.082C10.577 111.704 18.4374 123.225 35.1631 111.847C51.8887 100.469 44.0664 88.9578 60.7636 77.5798C77.4608 66.2018 85.3212 77.7125 102.056 66.3345C118.792 54.9564 110.96 43.4458 127.657 32.0678C144.354 20.6898 152.224 32.2099 168.95 20.8319C185.675 9.45387 177.853 -2.06627 194.55 -13.4443C211.247 -24.8223 219.117 -13.3022 235.843 -24.6802C252.568 -36.0582 244.746 -47.5783 261.443 -58.9563C278.14 -70.3344 286.01 -58.8142 302.745 -70.1922C319.481 -81.5702 311.639 -93.0904 328.346 -104.468C345.053 -115.846 352.913 -104.326 369.648 -115.704C386.383 -127.082 378.552 -138.602 395.249 -149.98" stroke="#716D65" stroke-width="8.24" stroke-miterlimit="10"/>
<path d="M-60.3457 187.177C-43.6105 175.799 -35.7786 187.32 -19.0529 175.942C-2.32726 164.564 -10.1496 153.053 6.54759 141.675C23.2448 130.297 31.1052 141.817 47.8403 130.439C64.5755 119.061 56.7436 107.541 73.4409 96.1628C90.1381 84.7848 98.0077 96.305 114.743 84.927C131.478 73.5489 123.646 62.0288 140.343 50.6508C157.041 39.2728 164.911 50.7929 181.646 39.4149C198.381 28.0369 190.549 16.5167 207.246 5.13872C223.943 -6.2393 231.813 5.28085 248.548 -6.09716C265.284 -17.4752 257.452 -28.9858 274.149 -40.3638C290.846 -51.7419 298.716 -40.2312 315.451 -51.6092C332.186 -62.9872 324.355 -74.4979 341.052 -85.8759C357.749 -97.2539 365.619 -85.7433 382.354 -97.1213C399.089 -108.499 391.257 -120.019 407.954 -131.397" stroke="#716D65" stroke-width="8.24" stroke-miterlimit="10"/>
<path d="M-47.7285 205.791C-30.9934 194.413 -23.1614 205.933 -6.42627 194.555C10.3089 183.177 2.46755 171.657 19.1743 160.279C35.881 148.901 43.7411 160.421 60.4668 149.043C77.1925 137.665 69.3701 126.154 86.0673 114.776C102.765 103.398 110.625 114.918 127.36 103.54C144.095 92.1622 136.263 80.6421 152.961 69.2641C169.658 57.886 177.518 69.4062 194.253 58.0282C210.989 46.6502 203.157 35.13 219.854 23.752C236.551 12.374 244.421 23.8941 261.147 12.5161C277.872 1.1381 270.05 -10.382 286.747 -21.7601C303.444 -33.1381 311.314 -21.6179 328.04 -32.9959C344.766 -44.374 336.943 -55.8941 353.641 -67.2721C370.338 -78.6501 378.207 -67.13 394.943 -78.508C411.678 -89.886 403.846 -101.406 420.543 -112.784" stroke="#716D65" stroke-width="8.24" stroke-miterlimit="10"/>
<path d="M-35.0684 224.394C-18.3332 213.016 -10.5108 224.536 6.2244 213.158C22.9596 201.78 15.1277 190.27 31.8249 178.892C48.5222 167.514 56.392 179.034 73.1272 167.656C89.8623 156.278 82.021 144.758 98.7277 133.38C115.434 122.002 123.295 133.522 140.02 122.144C156.746 110.766 148.924 99.2456 165.621 87.8676C182.318 76.4896 190.188 88.0097 206.923 76.6317C223.658 65.2537 215.826 53.743 232.524 42.365C249.221 30.987 257.091 42.4976 273.826 31.1196C290.561 19.7416 282.729 8.23096 299.426 -3.14705C316.124 -14.5251 323.993 -3.01441 340.729 -14.3924C357.464 -25.7704 349.632 -37.2811 366.329 -48.6591C383.026 -60.0371 390.896 -48.5265 407.631 -59.9045C424.367 -71.2825 416.544 -82.8026 433.279 -94.1807" stroke="#716D65" stroke-width="8.24" stroke-miterlimit="10"/>
<path d="M-22.4199 243.006C-5.68476 231.628 2.14715 243.148 18.8728 231.77C35.5985 220.392 27.7761 208.872 44.4734 197.494C61.1706 186.116 69.0309 197.636 85.7661 186.258C102.501 174.88 94.6694 163.369 111.367 151.991C128.064 140.613 135.933 152.133 152.669 140.755C169.404 129.377 161.572 117.857 178.269 106.479C194.966 95.1009 202.827 106.621 219.562 95.243C236.297 83.865 228.465 72.3449 245.162 60.9668C261.86 49.5888 269.72 61.109 286.455 49.731C303.19 38.3529 295.358 26.8328 312.056 15.4548C328.753 4.07677 336.613 15.5969 353.348 4.2189C370.084 -7.15911 362.252 -18.6793 378.949 -30.0573C395.646 -41.4353 403.516 -29.9151 420.251 -41.2932C436.986 -52.6712 429.155 -64.1913 445.852 -75.5693" stroke="#716D65" stroke-width="8.24" stroke-miterlimit="10"/>
<path d="M-9.76172 261.619C6.96396 250.241 14.7956 261.751 31.5308 250.373C48.266 238.995 40.4341 227.485 57.1313 216.107C73.8286 204.728 81.6984 216.249 98.4241 204.871C115.15 193.493 107.327 181.972 124.025 170.594C140.722 159.216 148.592 170.737 165.317 159.359C182.043 147.981 174.221 136.47 190.918 125.092C207.615 113.714 215.485 125.225 232.211 113.847C248.936 102.469 241.114 90.9578 257.811 79.5798C274.508 68.2018 282.378 79.7125 299.113 68.3345C315.849 56.9564 308.007 45.4458 324.714 34.0678C341.421 22.6898 349.281 34.2004 366.016 22.8224C382.751 11.4444 374.919 -0.0662613 391.616 -11.4443C408.314 -22.8223 416.184 -11.3116 432.919 -22.6896C449.654 -34.0677 441.822 -45.5878 458.519 -56.9658" stroke="#716D65" stroke-width="8.24" stroke-miterlimit="10"/>
<path d="M2.88379 280.221C19.619 268.843 27.4509 280.364 44.1765 268.986C60.9022 257.608 53.0798 246.087 69.7771 234.709C86.4743 223.331 94.3347 234.851 111.07 223.473C127.805 212.095 119.973 200.585 136.67 189.207C153.368 177.829 161.237 189.349 177.973 177.971C194.708 166.593 186.876 155.073 203.573 143.695C220.27 132.317 228.14 143.837 244.875 132.459C261.61 121.081 253.778 109.561 270.476 98.1827C287.173 86.8046 295.033 98.3248 311.768 86.9468C328.504 75.5688 320.672 64.0486 337.369 52.6706C354.066 41.2926 361.927 52.8127 378.662 41.4347C395.397 30.0567 387.565 18.5366 404.262 7.15854C420.96 -4.21947 428.829 7.30068 445.565 -4.07734C462.3 -15.4554 454.468 -26.9755 471.165 -38.3535" stroke="#716D65" stroke-width="8.24" stroke-miterlimit="10"/>
<path d="M15.5059 298.835C32.2315 287.457 40.0634 298.968 56.7986 287.59C73.5338 276.212 65.7019 264.701 82.3991 253.323C99.0964 241.945 106.966 253.465 123.692 242.087C140.418 230.709 132.595 219.189 149.292 207.811C165.99 196.433 173.85 207.953 190.585 196.575C207.32 185.197 199.488 173.687 216.185 162.309C232.883 150.931 240.753 162.441 257.478 151.063C274.204 139.685 266.381 128.175 283.079 116.797C299.776 105.419 307.646 116.929 324.371 105.551C341.097 94.1732 333.275 82.6626 349.972 71.2846C366.669 59.9066 374.539 71.4267 391.274 60.0487C408.009 48.6707 400.168 37.1505 416.875 25.7725C433.581 14.3945 441.442 25.9052 458.177 14.5271C474.912 3.14914 467.08 -8.36153 483.778 -19.749" stroke="#716D65" stroke-width="8.24" stroke-miterlimit="10"/>
<path d="M28.1924 317.457C44.9275 306.079 52.7595 317.599 69.4851 306.221C86.2108 294.843 78.3884 283.323 95.0857 271.954C111.783 260.586 119.643 272.087 136.378 260.709C153.114 249.331 145.282 237.82 161.979 226.442C178.676 215.064 186.546 226.584 203.281 215.206C220.016 203.828 212.184 192.308 228.882 180.93C245.579 169.552 253.449 181.072 270.184 169.694C286.919 158.316 279.087 146.796 295.785 135.418C312.482 124.04 320.342 135.56 337.077 124.182C353.812 112.804 345.98 101.284 362.678 89.906C379.375 78.5279 387.245 90.0481 403.98 78.6701C420.715 67.2921 412.883 55.7719 429.58 44.4034C446.278 33.0349 454.147 44.536 470.883 33.158C487.618 21.78 479.786 10.2599 496.483 -1.11816" stroke="#716D65" stroke-width="8.24" stroke-miterlimit="10"/>
<path d="M40.8408 336.05C57.576 324.672 65.4079 336.183 82.1431 324.814C98.8782 313.446 91.0369 301.916 107.744 290.538C124.45 279.16 132.311 290.68 149.036 279.302C165.762 267.924 157.94 256.404 174.637 245.036C191.334 233.667 199.194 245.168 215.929 233.79C232.665 222.412 224.833 210.902 241.53 199.524C258.227 188.146 266.087 199.656 282.823 188.278C299.558 176.9 291.726 165.389 308.423 154.011C325.12 142.633 332.99 154.144 349.716 142.776C366.442 131.407 358.619 119.877 375.316 108.499C392.014 97.1214 399.884 108.642 416.609 97.2635C433.335 85.8855 425.513 74.3654 442.21 62.9874C458.907 51.6094 466.777 63.1295 483.512 51.742C500.247 40.3545 492.415 28.8533 509.113 17.4658" stroke="#716D65" stroke-width="8.24" stroke-miterlimit="10"/>
<path d="M53.501 354.654C70.2361 343.276 78.0586 354.796 94.7937 343.418C111.529 332.04 103.697 320.529 120.394 309.151C137.092 297.773 144.961 309.284 161.696 297.916C178.431 286.547 170.59 275.017 187.297 263.639C204.004 252.261 211.864 263.782 228.59 252.404C245.315 241.026 237.493 229.505 254.19 218.127C270.887 206.749 278.757 218.269 295.492 206.891C312.228 195.513 304.396 183.993 321.093 172.615C337.79 161.237 345.66 172.757 362.395 161.379C379.13 150.001 371.298 138.481 387.996 127.103C404.693 115.725 412.563 127.245 429.298 115.867C446.033 104.489 438.201 92.9787 454.898 81.6007C471.595 70.2226 479.456 81.7333 496.191 70.3553C512.926 58.9773 505.104 47.4571 521.839 36.0791" stroke="#716D65" stroke-width="8.24" stroke-miterlimit="10"/>
<path d="M66.1475 373.265C82.8826 361.887 90.7145 373.398 107.45 362.029C124.185 350.661 116.344 339.131 133.05 327.753C149.757 316.375 157.608 327.895 174.343 316.517C191.078 305.139 183.246 293.629 199.944 282.251C216.641 270.873 224.501 282.383 241.236 271.005C257.971 259.627 250.14 248.117 266.837 236.739C283.534 225.361 291.394 236.871 308.13 225.493C324.865 214.115 317.033 202.605 333.73 191.227C350.427 179.849 358.287 191.359 375.023 179.991C391.758 168.622 383.926 157.093 400.623 145.715C417.32 134.337 425.181 145.857 441.916 134.479C458.651 123.101 450.819 111.581 467.516 100.202C484.214 88.8245 492.083 100.345 508.819 88.9571C525.554 77.5696 517.722 66.0684 534.419 54.6904" stroke="#716D65" stroke-width="8.24" stroke-miterlimit="10"/>
<path d="M78.8047 391.869C95.5304 380.491 103.362 392.011 120.097 380.633C136.833 369.255 129.001 357.744 145.698 346.366C162.395 334.988 170.265 346.499 186.991 335.13C203.716 323.762 195.894 312.232 212.591 300.854C229.289 289.476 237.158 300.996 253.884 289.618C270.609 278.24 262.787 266.72 279.484 255.342C296.182 243.964 304.051 255.484 320.777 244.106C337.503 232.728 329.68 221.208 346.378 209.83C363.075 198.452 370.945 209.972 387.68 198.594C404.415 187.216 396.574 175.706 413.28 164.328C429.987 152.95 437.847 164.46 454.583 153.082C471.318 141.704 463.486 130.194 480.183 118.815C496.88 107.437 504.75 118.948 521.485 107.57C538.22 96.1921 530.389 84.672 547.133 73.2939" stroke="#716D65" stroke-width="8.24" stroke-miterlimit="10"/>
<path d="M91.4561 410.481C108.191 399.103 116.023 410.614 132.749 399.245C149.474 387.877 141.652 376.347 158.349 364.969C175.046 353.591 182.907 365.111 199.642 353.733C216.377 342.355 208.545 330.845 225.242 319.467C241.94 308.089 249.809 319.599 266.545 308.221C283.28 296.843 275.448 285.333 292.145 273.954C308.842 262.576 316.703 274.087 333.438 262.719C350.173 251.35 342.341 239.82 359.038 228.442C375.736 217.064 383.596 228.585 400.331 217.207C417.066 205.829 409.235 194.308 425.932 182.93C442.629 171.552 450.489 183.073 467.224 171.694C483.959 160.316 476.128 148.796 492.825 137.418C509.522 126.04 517.392 137.56 534.127 126.182C550.862 114.804 543.03 103.284 559.728 91.9062" stroke="#716D65" stroke-width="8.24" stroke-miterlimit="10"/>
<path d="M104.111 429.084C120.837 417.706 128.669 429.226 145.404 417.848C162.139 406.47 154.307 394.959 171.005 383.581C187.702 372.203 195.572 383.723 212.297 372.345C229.023 360.967 221.201 349.447 237.898 338.069C254.595 326.691 262.455 338.211 279.191 326.833C295.926 315.455 288.094 303.935 304.791 292.557C321.488 281.179 329.358 292.699 346.084 281.321C362.809 269.943 354.987 258.423 371.684 247.045C388.381 235.667 396.251 247.187 412.977 235.809C429.703 224.431 421.88 212.92 438.577 201.542C455.275 190.164 463.145 201.675 479.88 190.297C496.615 178.919 488.774 167.408 505.48 156.03C522.187 144.652 530.047 156.163 546.782 144.785C563.518 133.407 555.686 121.887 572.383 110.509" stroke="#716D65" stroke-width="8.24" stroke-miterlimit="10"/>
<path d="M116.762 447.697C133.497 436.319 141.329 447.839 158.054 436.461C174.78 425.083 166.958 413.563 183.655 402.185C200.352 390.807 208.212 402.327 224.948 390.949C241.683 379.571 233.851 368.06 250.548 356.682C267.245 345.304 275.115 356.815 291.85 345.437C308.585 334.059 300.754 322.548 317.451 311.17C334.148 299.792 342.018 311.312 358.753 299.934C375.488 288.556 367.656 277.036 384.354 265.658C401.051 254.28 408.911 265.8 425.646 254.422C442.382 243.044 434.55 231.524 451.247 220.146C467.944 208.768 475.804 220.288 492.54 208.91C509.275 197.532 501.443 186.012 518.14 174.634C534.837 163.256 542.707 174.776 559.442 163.398C576.177 152.02 568.345 140.5 585.043 129.122" stroke="#716D65" stroke-width="8.24" stroke-miterlimit="10"/>
<path d="M129.408 466.319C146.143 454.941 153.975 466.461 170.71 455.083C187.446 443.705 179.604 432.195 196.311 420.817C213.018 409.438 220.878 420.959 237.604 409.581C254.329 398.203 246.507 386.682 263.204 375.304C279.901 363.926 287.762 375.447 304.497 364.069C321.232 352.691 313.4 341.17 330.098 329.792C346.795 318.414 354.655 329.935 371.39 318.556C388.125 307.178 380.294 295.658 396.991 284.28C413.688 272.902 421.558 284.422 438.283 273.044C455.009 261.666 447.187 250.156 463.884 238.778C480.581 227.4 488.451 238.91 505.177 227.532C521.902 216.154 514.08 204.644 530.777 193.266C547.474 181.888 555.344 193.398 572.079 182.02C588.815 170.642 580.983 159.122 597.68 147.744" stroke="#716D65" stroke-width="8.24" stroke-miterlimit="10"/>
<path d="M142.065 484.912C158.801 473.534 166.623 485.054 183.358 473.676C200.093 462.298 192.261 450.778 208.959 439.4C225.656 428.022 233.526 439.542 250.261 428.164C266.996 416.786 259.155 405.275 275.861 393.897C292.568 382.519 300.428 394.039 317.164 382.661C333.899 371.283 326.057 359.763 342.764 348.385C359.471 337.007 367.331 348.527 384.066 337.149C400.801 325.771 392.97 314.251 409.667 302.873C426.364 291.495 434.234 303.015 450.969 291.637C467.704 280.259 459.872 268.739 476.57 257.361C493.267 245.983 501.137 257.503 517.872 246.125C534.607 234.747 526.775 223.227 543.472 211.849C560.17 200.471 568.03 211.991 584.774 200.613C601.519 189.235 593.678 177.715 610.375 166.337" stroke="#716D65" stroke-width="8.24" stroke-miterlimit="10"/>
<path d="M154.714 503.515C171.449 492.137 179.281 503.657 196.016 492.279C212.751 480.901 204.91 469.391 221.616 458.013C238.323 446.635 246.174 458.155 262.909 446.777C279.644 435.399 271.812 423.879 288.51 412.501C305.207 401.123 313.067 412.643 329.802 401.265C346.538 389.887 338.706 378.367 355.403 366.989C372.1 355.611 379.961 367.131 396.696 355.753C413.431 344.375 405.599 332.864 422.296 321.486C438.994 310.108 446.854 321.619 463.589 310.241C480.324 298.863 472.492 287.352 489.19 275.974C505.887 264.596 513.747 276.107 530.482 264.729C547.217 253.351 539.385 241.84 556.083 230.462C572.78 219.084 580.65 230.595 597.385 219.217C614.12 207.839 606.288 196.318 622.985 184.94" stroke="#716D65" stroke-width="8.24" stroke-miterlimit="10"/>
<path d="M167.374 522.129C184.1 510.751 191.932 522.271 208.667 510.893C225.402 499.515 217.57 487.995 234.267 476.617C250.965 465.239 258.834 476.759 275.57 465.381C292.305 454.003 284.463 442.492 301.17 431.114C317.877 419.736 325.737 431.256 342.463 419.878C359.189 408.5 351.366 396.98 368.063 385.602C384.761 374.224 392.63 385.744 409.365 374.366C426.101 362.988 418.259 351.468 434.966 340.09C451.673 328.712 459.533 340.232 476.268 328.854C493.003 317.476 485.162 305.956 501.869 294.578C518.575 283.2 526.436 294.72 543.171 283.342C559.906 271.964 552.074 260.444 568.772 249.066C585.469 237.688 593.339 249.208 610.074 237.83C626.809 226.452 618.977 214.932 635.674 203.554" stroke="#716D65" stroke-width="8.24" stroke-miterlimit="10"/>
<path d="M180.024 540.741C196.76 529.363 204.591 540.873 221.317 529.495C238.043 518.117 230.22 506.607 246.918 495.229C263.615 483.851 271.475 495.371 288.21 483.993C304.946 472.615 297.114 461.095 313.811 449.717C330.508 438.339 338.378 449.859 355.113 438.481C371.848 427.103 364.016 415.582 380.714 404.204C397.411 392.826 405.271 404.347 422.006 392.969C438.741 381.591 430.91 370.08 447.607 358.702C464.304 347.324 472.164 358.835 488.9 347.457C505.635 336.079 497.803 324.568 514.5 313.19C531.197 301.812 539.058 313.322 555.793 301.944C572.528 290.566 564.696 279.056 581.393 267.678C598.091 256.3 605.96 267.81 622.695 256.432C639.431 245.054 631.599 233.534 648.296 222.156" stroke="#716D65" stroke-width="8.24" stroke-miterlimit="10"/>
</g>
</g>
</svg>
