<svg width="555" height="423" viewBox="0 0 555 423" fill="none" xmlns="http://www.w3.org/2000/svg">
<g opacity="0.5">
<mask id="mask0_7_8" style="mask-type:luminance" maskUnits="userSpaceOnUse" x="0" y="0" width="582" height="423">
<path d="M369.79 0.5C485.752 0.5 579.848 94.1526 580.581 209.942L580.585 211.306C580.566 220.693 579.929 230.068 578.677 239.371L574.033 263.659C550.749 354.761 468.135 422.111 369.79 422.111H284.91C392.161 411.672 475.975 321.286 475.975 211.316C475.975 101.329 392.078 10.9394 284.849 0.516602L369.79 0.5ZM263.638 0.521484V422.133H158.984V211.595L159.386 211.327L158.984 211.06V0.521484H263.638ZM157.582 211.326L0.5 316.045V106.607L157.582 211.326Z" fill="white" stroke="white"/>
</mask>
<g mask="url(#mask0_7_8)">
<g opacity="0.3">
<path d="M-95.2012 166.618C-76.6074 153.976 -67.9056 166.776 -49.3224 154.134C-30.7391 141.492 -39.4303 128.703 -20.8786 116.061C-2.32693 103.42 6.40616 116.219 25 103.578C43.5938 90.936 34.8921 78.1364 53.4437 65.4947C71.9954 52.853 80.7393 65.6526 99.3331 53.0109C117.927 40.3693 109.225 27.5697 127.777 14.928C146.329 2.28631 155.072 15.0859 173.666 2.44423C192.26 -10.1974 183.558 -22.997 202.11 -35.6387C220.662 -48.2804 229.395 -35.4808 247.989 -48.1225C266.583 -60.7642 257.881 -73.5532 276.433 -86.1949C294.984 -98.8366 303.718 -86.0475 322.311 -98.6892C340.905 -111.331 332.203 -124.12 350.755 -136.762C369.307 -149.403 378.05 -136.614 396.644 -149.256C415.238 -161.898 406.536 -174.697 425.088 -187.339" stroke="#716D65" stroke-width="8.24" stroke-miterlimit="10"/>
<path d="M-81.1465 187.319C-62.5527 174.677 -53.8512 187.477 -35.2574 174.835C-16.6636 162.193 -25.3758 149.394 -6.81362 136.752C11.7486 124.11 20.4819 136.91 39.0652 124.268C57.6485 111.627 48.9573 98.8376 67.509 86.1959C86.0606 73.5542 94.794 86.3433 113.388 73.7016C131.982 61.0599 123.28 48.2708 141.832 35.6292C160.383 22.9875 169.127 35.7871 187.71 23.1454C206.294 10.5037 197.602 -2.29587 216.154 -14.9375C234.706 -27.5792 243.449 -14.7796 262.033 -27.4213C280.616 -40.063 271.925 -52.8626 290.476 -65.5043C309.028 -78.1459 317.772 -65.3463 336.366 -77.988C354.96 -90.6297 346.247 -103.429 364.81 -116.071C383.372 -128.713 392.105 -115.913 410.699 -128.555C429.293 -141.196 420.591 -153.996 439.143 -166.638" stroke="#716D65" stroke-width="8.24" stroke-miterlimit="10"/>
<path d="M-67.0508 207.966C-48.457 195.325 -39.7552 208.124 -21.172 195.482C-2.5887 182.841 -11.2799 170.052 7.27182 157.41C25.8235 144.768 34.5568 157.568 53.1506 144.926C71.7444 132.285 63.0427 119.485 81.5944 106.843C100.146 94.2017 108.89 107.001 127.484 94.3596C146.077 81.7179 137.376 68.9183 155.927 56.2766C174.479 43.6349 183.223 56.4345 201.817 43.7929C220.41 31.1512 211.709 18.3516 230.26 5.70991C248.812 -6.93177 257.556 5.86783 276.15 -6.77385C294.744 -19.4155 286.042 -32.2046 304.594 -44.8463C323.145 -57.4879 331.889 -44.6989 350.483 -57.3406C369.077 -69.9822 360.375 -82.7713 378.927 -95.413C397.478 -108.055 406.222 -95.2656 424.816 -107.907C443.41 -120.549 434.708 -133.349 453.26 -145.99" stroke="#716D65" stroke-width="8.24" stroke-miterlimit="10"/>
<path d="M-53.0312 228.646C-34.4374 216.004 -25.7357 228.804 -7.14189 216.162C11.4519 203.52 2.73968 190.721 21.3019 178.079C39.8641 165.438 48.5972 178.237 67.1804 165.595C85.7637 152.954 77.0725 140.165 95.6242 127.523C114.176 114.881 122.909 127.681 141.503 115.039C160.097 102.398 151.395 89.598 169.947 76.9563C188.498 64.3146 197.232 77.1142 215.826 64.4726C234.419 51.8309 225.718 39.0313 244.269 26.3896C262.821 13.7479 271.565 26.5475 290.148 13.9058C308.731 1.26416 300.04 -11.5354 318.592 -24.1771C337.144 -36.8188 345.888 -24.0192 364.471 -36.6609C383.054 -49.3026 374.363 -62.1022 392.915 -74.7438C411.466 -87.3855 420.21 -74.5859 438.804 -87.2276C457.397 -99.8693 448.696 -112.669 467.247 -125.311" stroke="#716D65" stroke-width="8.24" stroke-miterlimit="10"/>
<path d="M-38.9648 249.316C-20.371 236.674 -11.6798 249.474 6.91397 236.832C25.5078 224.19 16.8061 211.401 35.3578 198.76C53.9094 186.118 62.6533 198.918 81.2471 186.276C99.8409 173.634 91.1287 160.835 109.691 148.193C128.253 135.551 136.986 148.351 155.57 135.709C174.153 123.068 165.462 110.268 184.013 97.6262C202.565 84.9846 211.309 97.7842 229.903 85.1425C248.496 72.5008 239.795 59.7117 258.346 47.0701C276.898 34.4284 285.642 47.2174 304.236 34.5758C322.83 21.9341 314.128 9.14503 332.68 -3.49665C351.231 -16.1383 359.975 -3.34928 378.569 -15.991C397.163 -28.6326 388.461 -41.4217 407.013 -54.0634C425.564 -66.705 434.308 -53.916 452.902 -66.5577C471.496 -79.1993 462.805 -91.9989 481.399 -104.641" stroke="#716D65" stroke-width="8.24" stroke-miterlimit="10"/>
<path d="M-24.9121 269.995C-6.31831 257.353 2.38343 270.152 20.9667 257.511C39.55 244.869 30.8588 232.07 49.4105 219.428C67.9621 206.786 76.6955 219.586 95.2893 206.944C113.883 194.302 105.181 181.513 123.733 168.872C142.285 156.23 151.028 169.03 169.622 156.388C188.216 143.746 179.514 130.947 198.066 118.305C216.618 105.663 225.351 118.463 243.945 105.821C262.539 93.1795 253.837 80.3799 272.388 67.7382C290.94 55.0966 299.674 67.8961 318.267 55.2545C336.861 42.6128 328.159 29.8132 346.711 17.1715C365.263 4.52984 373.996 17.3294 392.59 4.68776C411.184 -7.95392 402.482 -20.7535 421.034 -33.3952C439.585 -46.0369 448.329 -33.2373 466.923 -45.879C485.517 -58.5206 476.815 -71.3202 495.367 -83.9619" stroke="#716D65" stroke-width="8.24" stroke-miterlimit="10"/>
<path d="M-10.8496 290.675C7.73366 278.033 16.4351 290.822 35.0289 278.181C53.6227 265.539 44.9211 252.75 63.4727 240.108C82.0244 227.467 90.7683 240.266 109.352 227.625C127.935 214.983 119.244 202.183 137.795 189.542C156.347 176.9 165.091 189.699 183.674 177.058C202.257 164.416 193.566 151.627 212.118 138.985C230.67 126.344 239.413 139.133 257.997 126.491C276.58 113.849 267.889 101.06 286.44 88.4187C304.992 75.777 313.736 88.5661 332.33 75.9244C350.924 63.2827 342.211 50.4936 360.774 37.852C379.336 25.2103 388.069 37.9993 406.663 25.3577C425.256 12.716 416.555 -0.0730603 435.106 -12.7147C453.658 -25.3564 462.402 -12.5674 480.996 -25.209C499.59 -37.8507 490.888 -50.6503 509.44 -63.292" stroke="#716D65" stroke-width="8.24" stroke-miterlimit="10"/>
<path d="M3.20312 311.343C21.7969 298.702 30.4987 311.501 49.0819 298.859C67.6652 286.218 58.974 273.418 77.5257 260.776C96.0774 248.135 104.811 260.934 123.405 248.293C141.998 235.651 133.297 222.862 151.848 210.22C170.4 197.579 179.144 210.378 197.738 197.737C216.331 185.095 207.63 172.295 226.181 159.654C244.733 147.012 253.477 159.811 272.071 147.17C290.664 134.528 281.963 121.729 300.514 109.087C319.066 96.4452 327.799 109.245 346.393 96.6031C364.987 83.9614 356.285 71.1618 374.837 58.5201C393.389 45.8785 402.122 58.6781 420.716 46.0364C439.31 33.3947 430.608 20.5951 449.159 7.95343C467.711 -4.68824 476.455 8.11135 495.049 -4.53033C513.643 -17.172 504.941 -29.9716 523.493 -42.6133" stroke="#716D65" stroke-width="8.24" stroke-miterlimit="10"/>
<path d="M17.2266 332.024C35.8098 319.382 44.5116 332.171 63.1054 319.529C81.6992 306.888 72.9975 294.099 91.5491 281.457C110.101 268.815 118.845 281.615 137.428 268.973C156.011 256.331 147.32 243.532 165.872 230.89C184.423 218.249 193.156 231.048 211.75 218.406C230.344 205.765 221.642 192.976 240.194 180.334C258.746 167.692 267.49 180.481 286.073 167.84C304.656 155.198 295.965 142.409 314.517 129.767C333.068 117.126 341.812 129.915 360.395 117.273C378.979 104.631 370.288 91.8423 388.839 79.2006C407.391 66.5589 416.135 79.3585 434.729 66.7168C453.322 54.0752 444.61 41.2756 463.172 28.6339C481.735 15.9922 490.468 28.7813 509.062 16.1396C527.655 3.49791 518.954 -9.29115 537.505 -21.9434" stroke="#716D65" stroke-width="8.24" stroke-miterlimit="10"/>
<path d="M31.3203 352.713C49.9141 340.072 58.6159 352.871 77.1991 340.23C95.7824 327.588 87.0912 314.788 105.643 302.157C124.195 289.526 132.928 302.305 151.522 289.663C170.115 277.021 161.414 264.232 179.965 251.59C198.517 238.949 207.261 251.748 225.855 239.107C244.449 226.465 235.747 213.665 254.299 201.024C272.85 188.382 281.594 201.182 300.188 188.54C318.782 175.898 310.08 163.099 328.632 150.457C347.183 137.815 355.916 150.615 374.51 137.973C393.104 125.332 384.402 112.532 402.954 99.8903C421.506 87.2486 430.25 100.048 448.843 87.4065C467.437 74.7648 458.736 61.9652 477.287 49.3341C495.839 36.703 504.583 49.4815 523.177 36.8398C541.77 24.1981 533.069 11.3985 551.62 -1.24316" stroke="#716D65" stroke-width="8.24" stroke-miterlimit="10"/>
<path d="M45.373 373.372C63.9668 360.731 72.6686 373.52 91.2624 360.888C109.856 348.257 101.144 335.447 119.706 322.806C138.268 310.164 147.002 322.963 165.585 310.322C184.168 297.68 175.477 284.881 194.029 272.249C212.58 259.618 221.313 272.397 239.907 259.755C258.501 247.113 249.799 234.324 268.351 221.683C286.903 209.041 295.636 221.83 314.23 209.188C332.824 196.547 324.122 183.758 342.674 171.116C361.225 158.474 369.969 171.263 388.552 158.632C407.136 146.001 398.445 133.191 416.996 120.549C435.548 107.908 444.292 120.707 462.875 108.065C481.458 95.4238 472.767 82.6242 491.319 69.9825C509.87 57.3409 518.614 70.1404 537.208 57.4882C555.802 44.836 547.1 32.0575 565.652 19.4053" stroke="#716D65" stroke-width="8.24" stroke-miterlimit="10"/>
<path d="M59.4395 394.041C78.0333 381.4 86.7245 394.199 105.318 381.558C123.912 368.916 115.21 356.127 133.762 343.485C152.314 330.844 161.057 343.633 179.651 331.001C198.245 318.37 189.533 305.56 208.095 292.919C226.657 280.277 235.39 293.076 253.974 280.435C272.557 267.793 263.866 254.994 282.417 242.352C300.969 229.71 309.713 242.51 328.307 229.868C346.901 217.226 338.199 204.427 356.751 191.785C375.302 179.143 384.046 191.943 402.64 179.301C421.234 166.66 412.532 153.86 431.084 141.218C449.635 128.577 458.379 141.376 476.973 128.735C495.567 116.093 486.865 103.304 505.417 90.6622C523.968 78.0205 532.702 90.8096 551.295 78.1679C569.889 65.5262 561.198 52.7266 579.792 40.085" stroke="#716D65" stroke-width="8.24" stroke-miterlimit="10"/>
<path d="M73.4902 414.721C92.084 402.079 100.786 414.868 119.38 402.237C137.973 389.606 129.261 376.796 147.823 364.154C166.386 351.513 175.108 364.312 193.702 351.671C212.296 339.029 203.594 326.24 222.146 313.598C240.698 300.957 249.431 313.746 268.025 301.104C286.619 288.462 277.917 275.673 296.469 263.032C315.02 250.39 323.754 263.179 342.347 250.537C360.941 237.896 352.239 225.106 370.791 212.465C389.343 199.823 398.076 212.612 416.67 199.981C435.263 187.35 426.562 174.54 445.113 161.898C463.665 149.256 472.398 162.056 490.992 149.414C509.586 136.773 500.884 123.973 519.436 111.331C537.988 98.6897 546.732 111.489 565.325 98.8371C583.919 86.1848 575.217 73.4063 593.769 60.7646" stroke="#716D65" stroke-width="8.24" stroke-miterlimit="10"/>
<path d="M87.5547 435.39C106.138 422.748 114.84 435.548 133.433 422.906C152.027 410.265 143.326 397.476 161.877 384.834C180.429 372.192 189.173 384.981 207.756 372.35C226.339 359.719 217.648 346.909 236.2 334.267C254.752 321.625 263.495 334.425 282.078 321.783C300.662 309.142 291.971 296.342 310.522 283.7C329.074 271.059 337.818 283.858 356.401 271.217C374.984 258.575 366.293 245.775 384.845 233.134C403.396 220.492 412.14 233.292 430.734 220.65C449.328 208.008 440.616 195.219 459.178 182.578C477.74 169.936 486.473 182.725 505.067 170.083C523.661 157.442 514.959 144.653 533.511 132.011C552.063 119.369 560.806 132.158 579.4 119.517C597.994 106.875 589.292 94.0753 607.897 81.4336" stroke="#716D65" stroke-width="8.24" stroke-miterlimit="10"/>
<path d="M101.609 456.07C120.203 443.428 128.905 456.217 147.488 443.586C166.071 430.955 157.38 418.145 175.932 405.503C194.483 392.861 203.217 405.661 221.811 393.019C240.404 380.378 231.703 367.589 250.254 354.947C268.806 342.305 277.55 355.094 296.144 342.453C314.737 329.811 306.036 317.022 324.587 304.38C343.139 291.738 351.872 304.528 370.466 291.896C389.06 279.265 380.358 266.455 398.91 253.813C417.462 241.172 426.195 253.971 444.789 241.33C463.383 228.688 454.681 215.888 473.233 203.247C491.784 190.605 500.517 203.405 519.111 190.763C537.705 178.121 529.003 165.322 547.555 152.68C566.107 140.038 574.85 152.838 593.444 140.196C612.038 127.555 603.336 114.755 621.888 102.113" stroke="#716D65" stroke-width="8.24" stroke-miterlimit="10"/>
<path d="M115.672 476.739C134.255 464.097 142.957 476.897 161.551 464.255C180.144 451.613 171.443 438.824 189.994 426.183C208.546 413.541 217.29 426.34 235.873 413.699C254.457 401.057 245.765 388.257 264.317 375.616C282.869 362.974 291.602 375.774 310.196 363.132C328.79 350.49 320.088 337.691 338.64 325.049C357.191 312.407 365.935 325.207 384.518 312.565C403.101 299.924 394.41 287.124 412.962 274.482C431.514 261.841 440.257 274.64 458.841 261.999C477.424 249.357 468.733 236.568 487.285 223.926C505.836 211.285 514.58 224.074 533.174 211.432C551.768 198.79 543.055 186.001 561.618 173.359C580.18 160.718 588.913 173.507 607.507 160.865C626.101 148.224 617.399 135.424 635.951 122.782" stroke="#716D65" stroke-width="8.24" stroke-miterlimit="10"/>
<path d="M129.727 497.418C148.32 484.777 157.022 497.576 175.605 484.935C194.189 472.293 185.497 459.493 204.049 446.852C222.601 434.21 231.334 447.01 249.928 434.368C268.521 421.726 259.82 408.937 278.371 396.295C296.923 383.654 305.667 396.443 324.261 383.801C342.855 371.16 334.153 358.37 352.705 345.729C371.256 333.087 380 345.887 398.594 333.245C417.188 320.603 408.486 307.804 427.038 295.162C445.589 282.52 454.323 295.32 472.917 282.678C491.51 270.037 482.809 257.237 501.36 244.595C519.912 231.954 528.645 244.753 547.239 232.112C565.833 219.47 557.131 206.67 575.683 194.029C594.235 181.387 602.978 194.187 621.572 181.545C640.166 168.903 631.464 156.104 650.016 143.462" stroke="#716D65" stroke-width="8.24" stroke-miterlimit="10"/>
<path d="M143.777 518.109C162.371 505.467 171.073 518.267 189.667 505.625C208.26 492.983 199.548 480.194 218.11 467.553C236.673 454.911 245.406 467.711 263.989 455.069C282.573 442.427 273.881 429.628 292.433 416.986C310.985 404.344 319.718 417.144 338.312 404.502C356.906 391.86 348.204 379.061 366.756 366.419C385.307 353.778 394.041 366.577 412.634 353.935C431.228 341.294 422.527 328.494 441.078 315.852C459.63 303.211 468.373 316.01 486.957 303.369C505.54 290.727 496.849 277.938 515.401 265.296C533.952 252.655 542.696 265.444 561.279 252.802C579.863 240.16 571.171 227.371 589.723 214.73C608.275 202.088 617.019 214.877 635.612 202.235C654.206 189.594 645.505 176.794 664.056 164.152" stroke="#716D65" stroke-width="8.24" stroke-miterlimit="10"/>
<path d="M157.842 538.767C176.436 526.125 185.127 538.925 203.721 526.283C222.314 513.642 213.613 500.842 232.164 488.2C250.716 475.559 259.46 488.358 278.054 475.717C296.648 463.075 287.935 450.286 306.498 437.644C325.06 425.002 333.793 437.802 352.387 425.16C370.98 412.519 362.268 399.719 380.83 387.077C399.393 374.436 408.126 387.235 426.72 374.594C445.314 361.952 436.612 349.152 455.164 336.511C473.715 323.869 482.459 336.669 501.053 324.027C519.647 311.385 510.945 298.586 529.497 285.944C548.048 273.302 556.792 286.102 575.386 273.46C593.98 260.819 585.278 248.019 603.83 235.377C622.381 222.736 631.115 235.535 649.719 222.894C668.323 210.252 659.611 197.452 678.163 184.811" stroke="#716D65" stroke-width="8.24" stroke-miterlimit="10"/>
<path d="M171.895 559.436C190.488 546.794 199.19 559.594 217.784 546.952C236.377 534.311 227.665 521.521 246.227 508.88C264.79 496.238 273.512 509.038 292.106 496.396C310.7 483.754 301.998 470.955 320.55 458.313C339.102 445.671 347.835 458.471 366.429 445.829C385.023 433.188 376.321 420.388 394.873 407.746C413.424 395.105 422.158 407.904 440.751 395.263C459.345 382.621 450.644 369.832 469.195 357.19C487.747 344.549 496.48 357.338 515.074 344.696C533.668 332.054 524.966 319.265 543.518 306.623C562.069 293.982 570.803 306.771 589.396 294.129C607.99 281.487 599.288 268.698 617.84 256.057C636.392 243.415 645.136 256.204 663.729 243.562C682.323 230.921 673.622 218.121 692.173 205.479" stroke="#716D65" stroke-width="8.24" stroke-miterlimit="10"/>
<path d="M185.961 580.117C204.544 567.475 213.246 580.275 231.84 567.633C250.434 554.991 241.732 542.192 260.284 529.55C278.835 516.908 287.579 529.708 306.173 517.066C324.767 504.424 316.054 491.635 334.617 478.994C353.179 466.352 361.912 479.152 380.495 466.51C399.079 453.868 390.388 441.069 408.939 428.427C427.491 415.785 436.235 428.585 454.828 415.943C473.422 403.302 464.71 390.502 483.272 377.86C501.834 365.219 510.568 378.018 529.161 365.377C547.755 352.735 539.043 339.935 557.605 327.294C576.167 314.652 584.901 327.452 603.495 314.81C622.088 302.168 613.387 289.369 631.938 276.727C650.49 264.085 659.234 276.885 677.828 264.243C696.422 251.601 687.72 238.802 706.272 226.16" stroke="#716D65" stroke-width="8.24" stroke-miterlimit="10"/>
<path d="M200.016 600.796C218.609 588.154 227.311 600.943 245.894 588.302C264.478 575.66 255.787 562.871 274.338 550.229C292.89 537.588 301.623 550.387 320.217 537.746C338.811 525.104 330.109 512.304 348.661 499.663C367.212 487.021 375.956 499.821 394.55 487.179C413.144 474.537 404.442 461.738 422.994 449.096C441.545 436.454 450.279 449.254 468.872 436.612C487.466 423.971 478.765 411.181 497.316 398.54C515.868 385.898 524.601 398.687 543.195 386.045C561.789 373.404 553.087 360.615 571.639 347.973C590.191 335.331 598.924 348.12 617.518 335.479C636.111 322.837 627.41 310.048 645.961 297.406C664.513 284.765 673.257 297.554 691.851 284.912C710.444 272.27 701.743 259.471 720.294 246.829" stroke="#716D65" stroke-width="8.24" stroke-miterlimit="10"/>
</g>
</g>
</g>
</svg>
