<svg width="379" height="252" viewBox="0 0 379 252" fill="none" xmlns="http://www.w3.org/2000/svg">
<g opacity="0.3">
<mask id="mask0_7_5" style="mask-type:luminance" maskUnits="userSpaceOnUse" x="0" y="0" width="379" height="252">
<path d="M240.774 0.500488C276.586 0.500488 310.946 13.2777 336.536 36.0532L337.748 37.145C363.057 60.2359 377.439 91.4154 377.882 124.006L377.893 125.559C377.878 131.124 377.465 136.682 376.656 142.198L373.631 156.623C366.063 183.498 348.913 207.324 324.866 224.344C300.812 241.37 271.229 250.615 240.774 250.618H189.356C219.2 247.163 247.15 234.885 268.798 215.463L270.007 214.364C295.675 190.76 310.089 158.849 310.094 125.578L310.083 124.02C309.649 91.8375 295.743 61.0297 271.231 37.9116L270.037 36.7993C248.214 16.7187 219.751 4.02886 189.319 0.51416L240.774 0.500488ZM171.538 0.519043V250.636H103.719V125.859L104.181 125.578L103.719 125.296V0.519043H171.538ZM102.256 125.578L0.5 187.476V63.6968L102.256 125.578Z" fill="white" stroke="white"/>
</mask>
<g mask="url(#mask0_7_5)">
<path d="M-61.9941 99.0201C-49.8984 91.4483 -44.2343 99.1147 -32.1178 91.5998C-20.0012 84.0848 -25.686 76.4563 -13.5695 68.9792C-1.45298 61.5021 4.19032 69.0738 16.3069 61.5589C28.4234 54.0439 22.7386 46.4154 34.8551 38.9383C46.9716 31.4612 52.6149 39.0329 64.7315 31.5179C76.848 24.003 71.1632 16.3745 83.2797 8.89737C95.3963 1.42027 101.06 8.89735 113.156 1.47704C125.252 -5.94328 119.609 -13.6665 131.704 -21.2382C143.8 -28.81 149.485 -21.1436 161.581 -28.6396C173.677 -36.1356 168.033 -43.7831 180.129 -51.3548C192.225 -58.9266 197.91 -51.2602 210.026 -58.7751C222.143 -66.2901 216.458 -73.9186 228.574 -81.3957C240.691 -88.8728 246.355 -81.3011 258.471 -88.816C270.588 -96.331 264.924 -103.96 277.04 -111.531" stroke="white" stroke-width="5" stroke-miterlimit="10"/>
<path d="M-52.8438 111.305C-40.7272 103.734 -35.0631 111.305 -22.9674 103.885C-10.8716 96.4646 -16.5149 88.7414 -4.41913 81.2643C7.67665 73.7872 13.3615 81.359 25.4573 73.844C37.553 66.3291 31.889 58.7005 44.0055 51.2234C56.122 43.7463 61.7861 51.3181 73.8819 43.8031C85.9777 36.2882 80.3344 28.6596 92.4301 21.1825C104.526 13.7054 110.211 21.1826 122.306 13.7623C134.402 6.34194 128.759 -1.38124 140.979 -8.95299C153.199 -16.5247 158.739 -8.85835 170.835 -16.3544C182.931 -23.8504 177.287 -31.4979 189.383 -39.0696C201.479 -46.6414 207.164 -38.975 219.28 -46.49C231.397 -54.0049 225.733 -61.6334 237.828 -69.1105C249.924 -76.5876 255.609 -69.0159 267.726 -76.5309C279.842 -84.0458 274.178 -91.6743 286.398 -99.2461" stroke="white" stroke-width="5" stroke-miterlimit="10"/>
<path d="M-43.6953 123.59C-31.5788 116.019 -25.9147 123.59 -13.7982 116.17C-1.68165 108.75 -7.36648 101.027 4.7293 93.5495C16.8251 86.0724 22.5099 93.5495 34.6057 86.1292C46.7015 78.7089 41.0581 70.9857 53.1539 63.5086C65.2497 56.0315 70.9345 63.5086 83.0511 56.0883C95.1676 48.668 89.4828 40.9448 101.579 33.4677C113.674 25.9906 119.359 33.4677 131.476 26.0474C143.592 18.6271 137.907 10.9039 150.024 3.33217C162.14 -4.23958 167.784 3.33216 179.9 -4.06922C192.017 -11.4706 186.332 -19.2127 198.449 -26.7845C210.565 -34.3562 216.229 -26.6898 228.325 -34.2048C240.421 -41.7198 234.777 -49.3483 246.873 -56.8254C258.969 -64.3025 264.654 -56.7307 276.77 -64.2457C288.887 -71.7607 283.223 -79.3892 295.339 -86.9609" stroke="white" stroke-width="5" stroke-miterlimit="10"/>
<path d="M-34.5254 135.875C-22.4296 128.304 -16.7656 135.97 -4.64903 128.455C7.4675 120.94 1.78269 113.312 13.8992 105.74C26.0157 98.1682 31.6591 105.835 43.7756 98.3196C55.8921 90.8047 50.2073 83.1762 62.3239 75.6991C74.4404 68.222 80.0837 75.699 92.2002 68.2787C104.317 60.8584 98.6319 53.1352 110.748 45.6581C122.865 38.181 128.508 45.6581 140.625 38.2378C152.741 30.8175 147.077 23.0943 159.173 15.5226C171.269 7.95085 176.954 15.5226 189.049 8.12121C201.145 0.719824 195.481 -7.02229 207.598 -14.594C219.714 -22.1658 225.378 -14.5941 237.495 -22.0144C249.611 -29.4347 243.927 -37.1578 256.043 -44.6349C268.16 -52.112 273.824 -44.635 285.94 -52.0553C298.057 -59.4756 292.393 -67.1988 304.509 -74.7705" stroke="white" stroke-width="5" stroke-miterlimit="10"/>
<path d="M-25.373 148.161C-13.2773 140.589 -7.59247 148.255 4.50331 140.74C16.5991 133.225 10.935 125.597 23.0516 118.12C35.1681 110.643 40.8114 118.214 52.9279 110.699C65.0445 103.184 59.3596 95.5559 71.4762 87.9841C83.5927 80.4124 89.2568 88.0788 101.353 80.5638C113.448 73.0488 107.805 65.4203 119.901 57.8486C131.997 50.2768 137.681 57.8486 149.777 50.4283C161.873 43.008 156.23 35.2848 168.325 27.713C180.421 20.1413 186.106 27.8077 198.202 20.3116C210.298 12.8156 204.654 5.16815 216.75 -2.4036C228.846 -9.97535 234.531 -2.30898 246.647 -9.82394C258.764 -17.3389 253.079 -24.9674 265.195 -32.4445C277.312 -39.9216 282.976 -32.4445 295.093 -39.8648C307.209 -47.2851 301.545 -55.0083 313.662 -62.5801" stroke="white" stroke-width="5" stroke-miterlimit="10"/>
<path d="M-16.1445 160.446C-4.028 152.874 1.63605 160.54 13.7318 153.025C25.8276 145.511 20.1843 137.882 32.2801 130.405C44.3759 122.928 50.0607 130.5 62.1565 122.985C74.2523 115.47 68.6089 107.841 80.7047 100.364C92.8005 92.8869 98.4853 100.459 110.581 92.9437C122.677 85.4287 117.034 77.8002 129.129 70.3231C141.225 62.846 146.91 70.3231 159.026 62.9028C171.143 55.4825 165.458 47.7593 177.575 40.1875C189.691 32.6158 195.335 40.2822 207.451 32.7861C219.568 25.2901 213.883 17.6426 225.999 10.0709C238.116 2.49916 243.759 10.1655 255.876 2.65057C267.992 -4.86439 262.328 -12.4929 274.424 -20.0647C286.52 -27.6364 292.205 -19.97 304.321 -27.485C316.438 -34.9999 310.774 -42.6284 322.89 -50.2002" stroke="white" stroke-width="5" stroke-miterlimit="10"/>
<path d="M-7.05469 172.731C5.04109 165.159 10.7051 172.826 22.8217 165.311C34.9382 157.796 29.2534 150.167 41.3492 142.69C53.445 135.213 59.1298 142.785 71.2463 135.27C83.3628 127.755 77.678 120.126 89.7738 112.649C101.87 105.172 107.554 112.744 119.671 105.229C131.787 97.7139 126.103 90.0854 138.219 82.6083C150.336 75.1312 155.979 82.6083 168.096 75.188C180.212 67.7677 174.527 60.0445 186.644 52.4727C198.76 44.901 204.424 52.5674 216.52 45.0713C228.616 37.5753 222.952 29.9279 235.068 22.3561C247.185 14.7844 252.849 22.4508 264.945 14.9358C277.041 7.42087 271.397 -0.207692 283.514 -7.68479C295.63 -15.1619 301.294 -7.59011 313.411 -15.1051C325.527 -22.62 319.843 -30.2486 331.959 -37.8203" stroke="white" stroke-width="5" stroke-miterlimit="10"/>
<path d="M2.0957 185.016C14.1915 177.444 19.8556 185.111 31.9721 177.596C44.0886 170.081 38.4038 162.452 50.5204 154.975C62.6369 147.498 68.2802 155.07 80.3967 147.555C92.5132 140.04 86.8284 132.411 98.945 124.934C111.061 117.457 116.705 125.029 128.821 117.514C140.938 109.999 135.253 102.371 147.37 94.8935C159.486 87.4164 165.15 94.8935 177.246 87.4732C189.342 80.0529 183.698 72.3297 195.794 64.7579C207.89 57.1862 213.575 64.8526 225.671 57.3566C237.766 49.8605 232.123 42.2131 244.219 34.6413C256.315 27.0696 261.999 34.7359 274.116 27.221C286.232 19.706 280.548 12.0775 292.664 4.60036C304.781 -2.87674 310.445 4.69504 322.561 -2.81992C334.678 -10.3349 329.014 -17.9634 341.13 -25.5352" stroke="white" stroke-width="5" stroke-miterlimit="10"/>
<path d="M11.2441 197.301C23.3607 189.73 29.0248 197.301 41.1205 189.881C53.2163 182.461 47.573 174.738 59.6688 167.26C71.7645 159.783 77.4494 167.26 89.5451 159.84C101.641 152.42 95.9769 144.697 108.093 137.22C120.21 129.742 125.874 137.314 137.97 129.799C150.066 122.284 144.422 114.656 156.518 107.179C168.614 99.7015 174.299 107.179 186.415 99.7583C198.532 92.338 192.847 84.6149 204.963 77.0431C217.08 69.4714 222.723 77.1377 234.819 69.6417C246.915 62.1457 241.271 54.4982 253.367 46.9265C265.463 39.3547 271.148 47.0211 283.264 39.5061C295.381 31.9912 289.717 24.3627 301.813 16.8856C313.908 9.40848 319.593 16.9802 331.71 9.46524C343.826 1.95028 338.162 -5.67825 350.279 -13.25" stroke="white" stroke-width="5" stroke-miterlimit="10"/>
<path d="M20.3945 209.586C32.5111 202.015 38.1751 209.681 50.2917 202.166C62.4082 194.651 56.7234 187.023 68.8191 179.451C80.9149 171.879 86.5998 179.546 98.6955 172.031C110.791 164.516 105.148 156.887 117.244 149.41C129.34 141.933 135.024 149.41 147.141 141.99C159.257 134.569 153.573 126.846 165.689 119.369C177.806 111.892 183.449 119.369 195.565 111.949C207.682 104.528 201.997 96.8053 214.114 89.2335C226.23 81.6618 231.874 89.2335 243.99 81.8321C256.107 74.4308 250.422 66.6887 262.538 59.1169C274.655 51.5452 280.319 59.1169 292.415 51.6966C304.511 44.2763 298.867 36.5531 310.963 29.076C323.059 21.5989 328.764 29.1706 340.86 21.6557C352.956 14.1407 347.313 6.51218 359.429 -1.05957" stroke="white" stroke-width="5" stroke-miterlimit="10"/>
<path d="M29.5 221.872C41.5958 214.3 47.2598 221.967 59.3764 214.452C71.4929 206.937 65.8081 199.308 77.9246 191.736C90.0411 184.165 95.6845 191.831 107.801 184.316C119.918 176.801 114.233 169.173 126.349 161.601C138.466 154.029 144.109 161.695 156.226 154.18C168.342 146.666 162.657 139.037 174.774 131.465C186.89 123.894 192.534 131.465 204.65 124.045C216.767 116.625 211.103 108.901 223.198 101.33C235.294 93.7579 240.979 101.424 253.075 93.9283C265.171 86.4323 259.527 78.7848 271.623 71.213C283.719 63.6413 289.404 71.3077 301.52 63.7928C313.637 56.2778 307.952 48.6492 320.068 41.1721C332.185 33.695 337.849 41.1722 349.966 33.7519C362.082 26.3316 356.418 18.6084 368.535 11.0366" stroke="white" stroke-width="5" stroke-miterlimit="10"/>
<path d="M38.7129 234.157C50.8294 226.585 56.4935 234.251 68.5892 226.736C80.685 219.221 75.021 211.593 87.1375 204.116C99.254 196.639 104.918 204.21 117.014 196.695C129.11 189.181 123.446 181.552 135.562 174.075C147.679 166.598 153.343 174.17 165.439 166.655C177.534 159.14 171.891 151.511 183.987 143.939C196.083 136.368 201.767 143.939 213.863 136.519C225.959 129.099 220.316 121.375 232.411 113.804C244.507 106.232 250.192 113.898 262.288 106.402C274.384 98.9064 268.74 91.2589 280.836 83.6872C292.932 76.1154 298.617 83.7818 310.733 76.2668C322.85 68.7519 317.165 61.1233 329.281 53.5516C341.398 45.9798 347.062 53.6462 359.178 46.1313C371.295 38.6163 365.631 30.9878 377.851 23.416" stroke="white" stroke-width="5" stroke-miterlimit="10"/>
<path d="M47.8633 246.442C59.9798 238.87 65.6439 246.537 77.7396 239.022C89.8354 231.507 84.1921 223.878 96.2879 216.401C108.384 208.924 114.068 216.496 126.164 208.981C138.26 201.466 132.617 193.837 144.713 186.36C156.808 178.883 162.493 186.455 174.61 178.94C186.726 171.425 181.041 163.796 193.137 156.319C205.233 148.842 210.918 156.319 223.034 148.899C235.151 141.479 229.466 133.755 241.583 126.184C253.699 118.612 259.342 126.278 271.459 118.782C283.575 111.286 277.891 103.639 290.007 96.067C302.124 88.4953 307.788 96.1617 319.883 88.6468C331.979 81.1318 326.336 73.5032 338.432 66.0261C350.528 58.549 356.212 66.1208 368.329 58.6059C380.445 51.0909 374.781 43.4624 386.898 35.8906" stroke="white" stroke-width="5" stroke-miterlimit="10"/>
<path d="M57.0332 258.727C69.129 251.155 74.793 258.822 86.9096 251.307C99.0261 243.792 93.3413 236.163 105.437 228.686C117.533 221.209 123.218 228.781 135.334 221.266C147.451 213.751 141.766 206.122 153.862 198.645C165.957 191.168 171.642 198.74 183.759 191.225C195.875 183.71 190.191 176.082 202.307 168.604C214.424 161.127 220.067 168.604 232.183 161.184C244.3 153.764 238.615 146.041 250.732 138.469C262.848 130.897 268.512 138.564 280.608 131.067C292.704 123.571 287.04 115.924 299.156 108.352C311.273 100.781 316.937 108.447 329.053 100.932C341.17 93.417 335.485 85.7884 347.602 78.3113C359.718 70.8342 365.382 78.406 377.499 70.891C389.615 63.3761 383.931 55.7475 396.047 48.1758" stroke="white" stroke-width="5" stroke-miterlimit="10"/>
<path d="M66.1816 271.012C78.2774 263.441 83.9415 271.012 96.058 263.592C108.175 256.172 102.49 248.449 114.606 240.971C126.723 233.494 132.366 240.971 144.483 233.551C156.599 226.131 150.914 218.408 163.031 210.93C175.147 203.453 180.791 211.025 192.907 203.51C205.024 195.995 199.339 188.367 211.456 180.89C223.572 173.412 229.236 180.89 241.332 173.469C253.428 166.049 247.784 158.326 259.88 150.754C271.976 143.182 277.661 150.849 289.757 143.353C301.852 135.857 296.209 128.209 308.305 120.637C320.401 113.066 326.085 120.732 338.202 113.217C350.318 105.702 344.634 98.0736 356.75 90.5965C368.867 83.1194 374.531 90.6911 386.647 83.1762C398.764 75.6612 393.1 68.0327 405.216 60.4609" stroke="white" stroke-width="5" stroke-miterlimit="10"/>
<path d="M75.332 283.297C87.4486 275.726 93.1126 283.392 105.208 275.877C117.304 268.362 111.661 260.734 123.757 253.257C135.852 245.779 141.537 253.257 153.633 245.836C165.729 238.416 160.086 230.693 172.181 223.216C184.277 215.739 189.962 223.216 202.058 215.795C214.153 208.375 208.51 200.652 220.606 193.175C232.702 185.698 238.386 193.175 250.503 185.754C262.62 178.334 256.935 170.611 269.051 163.039C281.168 155.467 286.811 163.039 298.907 155.638C311.003 148.236 305.359 140.494 317.476 132.923C329.592 125.351 335.236 132.923 347.352 125.502C359.469 118.082 353.805 110.359 365.901 102.882C377.996 95.4046 383.681 102.976 395.798 95.4613C407.914 87.9464 402.25 80.3178 414.367 72.7461" stroke="white" stroke-width="5" stroke-miterlimit="10"/>
<path d="M84.4824 295.582C96.599 288.011 102.263 295.677 114.38 288.162C126.496 280.647 120.811 273.019 132.907 265.447C145.003 257.875 150.688 265.542 162.783 258.027C174.879 250.512 169.236 242.883 181.332 235.311C193.427 227.74 199.112 235.406 211.229 227.891C223.345 220.376 217.661 212.748 229.777 205.27C241.894 197.793 247.537 205.27 259.653 197.85C271.77 190.43 266.085 182.707 278.202 175.135C290.318 167.563 295.961 175.23 308.078 167.734C320.195 160.237 314.51 152.59 326.626 145.018C338.743 137.447 344.407 145.018 356.503 137.598C368.598 130.178 362.955 122.454 375.051 114.977C387.147 107.5 392.852 114.977 404.969 107.557C417.085 100.137 411.401 92.4135 423.517 84.8418" stroke="white" stroke-width="5" stroke-miterlimit="10"/>
<path d="M93.6543 307.868C105.75 300.296 111.414 307.962 123.531 300.447C135.647 292.932 129.962 285.304 142.079 277.827C154.195 270.35 159.839 277.921 171.955 270.406C184.072 262.891 178.387 255.263 190.504 247.786C202.62 240.309 208.263 247.88 220.38 240.366C232.496 232.851 226.812 225.222 238.928 217.65C251.045 210.079 256.709 217.65 268.805 210.23C280.9 202.81 275.257 195.086 287.353 187.515C299.449 179.943 305.133 187.609 317.229 180.113C329.325 172.617 323.682 164.97 335.777 157.398C347.873 149.826 353.558 157.493 365.675 149.978C377.791 142.463 372.106 134.834 384.223 127.263C396.339 119.691 402.003 127.357 414.12 119.842C426.236 112.327 420.572 104.699 432.689 97.127" stroke="white" stroke-width="5" stroke-miterlimit="10"/>
<path d="M102.803 320.153C114.919 312.581 120.583 320.248 132.679 312.733C144.775 305.218 139.111 297.589 151.227 290.112C163.344 282.635 169.008 290.207 181.104 282.692C193.2 275.177 187.535 267.548 199.652 260.071C211.768 252.594 217.433 260.166 229.528 252.651C241.624 245.136 235.981 237.507 248.077 230.03C260.172 222.553 265.857 230.03 277.953 222.61C290.049 215.19 284.405 207.466 296.501 199.895C308.597 192.323 314.282 199.989 326.378 192.493C338.473 184.997 332.83 177.35 344.926 169.778C357.022 162.206 362.706 169.873 374.823 162.358C386.939 154.843 381.255 147.214 393.371 139.737C405.488 132.26 411.152 139.832 423.268 132.317C435.385 124.802 429.721 117.173 441.837 109.602" stroke="white" stroke-width="5" stroke-miterlimit="10"/>
<path d="M111.953 332.438C124.07 324.866 129.734 332.533 141.829 325.018C153.925 317.503 148.282 309.874 160.378 302.397C172.474 294.92 178.158 302.492 190.254 294.977C202.35 287.462 196.707 279.833 208.802 272.356C220.898 264.879 226.583 272.451 238.699 264.936C250.816 257.421 245.131 249.792 257.227 242.315C269.323 234.838 275.008 242.315 287.124 234.895C299.241 227.475 293.556 219.752 305.672 212.18C317.789 204.608 323.432 212.274 335.549 204.778C347.665 197.282 341.98 189.635 354.097 182.063C366.214 174.491 371.878 182.158 383.973 174.643C396.069 167.128 390.426 159.499 402.522 152.022C414.617 144.545 420.302 152.117 432.419 144.602C444.535 137.087 438.871 129.458 450.988 121.887" stroke="white" stroke-width="5" stroke-miterlimit="10"/>
<path d="M121.123 344.723C133.219 337.151 138.883 344.723 150.999 337.303C163.116 329.883 157.431 322.159 169.548 314.682C181.664 307.205 187.307 314.777 199.424 307.262C211.541 299.747 205.856 292.118 217.972 284.641C230.089 277.164 235.732 284.736 247.849 277.221C259.965 269.706 254.28 262.078 266.397 254.6C278.513 247.123 284.157 254.601 296.273 247.18C308.39 239.76 302.726 232.037 314.821 224.465C326.917 216.893 332.602 224.56 344.698 217.064C356.794 209.568 351.13 201.92 363.246 194.348C375.363 186.777 381.027 194.443 393.143 186.928C405.26 179.413 399.575 171.785 411.691 164.307C423.808 156.83 429.472 164.402 441.589 156.887C453.705 149.372 448.041 141.744 460.137 134.172" stroke="white" stroke-width="5" stroke-miterlimit="10"/>
<path d="M130.271 356.952C142.367 349.38 148.052 357.046 160.148 349.531C172.244 342.016 166.58 334.388 178.696 326.911C190.813 319.434 196.456 326.911 208.572 319.491C220.689 312.07 215.004 304.347 227.121 296.87C239.237 289.393 244.901 296.87 256.997 289.45C269.093 282.029 263.45 274.306 275.545 266.829C287.641 259.352 293.326 266.829 305.422 259.409C317.517 251.988 311.874 244.265 323.97 236.693C336.066 229.122 341.751 236.693 353.846 229.292C365.942 221.891 360.299 214.149 372.395 206.577C384.49 199.005 390.175 206.672 402.292 199.157C414.408 191.642 408.723 184.013 420.84 176.536C432.956 169.059 438.621 176.631 450.737 169.116C462.854 161.601 457.19 153.972 469.41 146.4" stroke="white" stroke-width="5" stroke-miterlimit="10"/>
</g>
</g>
</svg>
