<svg width="553" height="409" viewBox="0 0 553 409" fill="none" xmlns="http://www.w3.org/2000/svg">
<g opacity="0.3">
<mask id="mask0_7_4" style="mask-type:luminance" maskUnits="userSpaceOnUse" x="0" y="0" width="616" height="409">
<path d="M391.847 0.5C450.664 0.5 507.084 21.6517 548.893 59.3262L549.877 60.2188C591.453 98.1517 614.943 149.484 615.308 203.073L615.312 204.34C615.289 213.416 614.615 222.481 613.295 231.478L608.37 254.955C596.23 298.091 568.948 336.405 530.711 364.055L528.882 365.363C489.681 393.11 441.472 408.175 391.847 408.179H302.107C353.326 403.529 401.468 382.919 438.229 349.529L439.209 348.634C480.921 310.277 504.34 258.425 504.347 204.37L504.342 203.104C503.984 149.939 480.988 98.9891 440.23 61.0205L439.257 60.1191C402.357 26.1659 353.772 5.20859 302.053 0.525391L391.847 0.5ZM279.482 0.53125V408.209H168.482V204.65L168.944 204.37L168.482 204.089V0.53125H279.482ZM167.021 204.37L0.5 305.665V103.104L167.021 204.37Z" fill="white" stroke="white"/>
</mask>
<g mask="url(#mask0_7_4)">
<path d="M-100.897 161.149C-81.2123 148.826 -71.9943 161.303 -52.2754 149.073C-32.5564 136.843 -41.8081 124.428 -22.0891 112.259C-2.37017 100.091 6.81398 112.413 26.5329 100.183C46.2519 87.9529 37.0002 75.5379 56.7192 63.3693C76.4381 51.2008 85.6223 63.5233 105.341 51.2932C125.06 39.063 115.809 26.6481 135.527 14.4795C155.246 2.31095 164.464 14.4795 184.15 2.40332C203.835 -9.67281 194.651 -22.2418 214.336 -34.5644C234.021 -46.887 243.273 -34.4104 262.958 -46.6098C282.643 -58.8091 273.459 -71.255 293.144 -83.5775C312.829 -95.9001 322.081 -83.4235 341.8 -95.6536C361.519 -107.884 352.267 -120.299 371.986 -132.467C391.705 -144.636 400.923 -132.313 420.642 -144.543C440.361 -156.774 431.143 -169.189 450.862 -181.511" stroke="white" stroke-width="5" stroke-miterlimit="10"/>
<path d="M-86.0078 181.142C-66.2888 168.819 -57.0709 181.142 -37.3857 169.066C-17.7005 156.99 -26.8847 144.421 -7.1995 132.252C12.4857 120.084 21.7374 132.406 41.4226 120.176C61.1078 107.946 51.8899 95.5308 71.6089 83.3623C91.3278 71.1937 100.546 83.5164 120.231 71.2862C139.916 59.056 130.732 46.641 150.417 34.4724C170.102 22.3039 179.354 34.4725 199.039 22.3963C218.724 10.3202 209.54 -2.24884 229.428 -14.5714C249.316 -26.894 258.331 -14.4174 278.016 -26.6168C297.702 -38.8161 288.517 -51.2619 308.203 -63.5845C327.888 -75.9071 337.14 -63.4305 356.858 -75.6607C376.577 -87.8909 367.36 -100.306 387.045 -112.474C406.73 -124.643 415.982 -112.32 435.701 -124.551C455.42 -136.781 446.202 -149.196 466.089 -161.518" stroke="white" stroke-width="5" stroke-miterlimit="10"/>
<path d="M-71.1182 201.136C-51.3992 188.813 -42.1813 201.136 -22.4623 189.06C-2.74333 176.983 -11.9951 164.414 7.69014 152.246C27.3753 140.077 36.6271 152.246 56.3123 140.17C75.9975 128.094 66.8132 115.525 86.4984 103.356C106.184 91.1875 115.435 103.356 135.154 91.2798C154.873 79.2037 145.622 66.6346 165.307 54.4661C184.992 42.2975 194.244 54.4661 213.963 42.39C233.682 30.3139 224.43 17.7448 244.149 5.42223C263.868 -6.90036 273.052 5.42222 292.771 -6.62311C312.49 -18.6684 303.238 -31.2683 322.957 -43.5909C342.676 -55.9135 351.894 -43.4369 371.579 -55.667C391.264 -67.8972 382.08 -80.3122 401.765 -92.4807C421.451 -104.649 430.702 -92.3267 450.421 -104.557C470.14 -116.787 460.922 -129.202 480.641 -141.525" stroke="white" stroke-width="5" stroke-miterlimit="10"/>
<path d="M-56.1846 221.129C-36.4994 208.806 -27.2815 221.283 -7.56249 209.053C12.1565 196.823 2.90477 184.408 22.6237 172.085C42.3427 159.763 51.5269 172.239 71.2459 160.009C90.9648 147.779 81.7131 135.364 101.432 123.195C121.151 111.027 130.335 123.195 150.054 111.119C169.773 99.0431 160.521 86.474 180.24 74.3054C199.959 62.1369 209.144 74.3055 228.862 62.2293C248.581 50.1532 239.363 37.5842 259.049 25.2616C278.734 12.939 287.986 25.2616 307.671 13.2162C327.356 1.17092 318.138 -11.4289 337.857 -23.7515C357.576 -36.0741 366.794 -23.7516 386.513 -35.8277C406.232 -47.9038 396.98 -60.4728 416.699 -72.6414C436.418 -84.8099 445.636 -72.6414 465.355 -84.7175C485.074 -96.7937 475.856 -109.363 495.575 -121.685" stroke="white" stroke-width="5" stroke-miterlimit="10"/>
<path d="M-41.3008 241.123C-21.6156 228.8 -12.3639 241.277 7.32129 229.046C27.0065 216.816 17.7886 204.401 37.5075 192.233C57.2265 180.064 66.4106 192.387 86.1296 180.157C105.849 167.926 96.5969 155.511 116.316 143.189C136.035 130.866 145.253 143.343 164.938 131.113C184.623 118.882 175.439 106.467 195.124 94.1448C214.809 81.8222 224.061 94.1449 243.746 82.0687C263.431 69.9926 254.247 57.4235 273.932 45.101C293.618 32.7784 302.869 45.255 322.555 33.0556C342.24 20.8562 333.056 8.41043 352.741 -3.91215C372.426 -16.2347 381.678 -3.75816 401.397 -15.9883C421.116 -28.2185 411.864 -40.6335 431.583 -52.802C451.302 -64.9706 460.52 -52.802 480.239 -64.8782C499.958 -76.9543 490.74 -89.5234 510.459 -101.846" stroke="white" stroke-width="5" stroke-miterlimit="10"/>
<path d="M-26.2803 261.116C-6.56131 248.793 2.65661 261.27 22.3418 249.04C42.027 236.81 32.8428 224.395 52.528 212.226C72.2132 200.057 81.465 212.38 101.15 200.15C120.835 187.92 111.651 175.505 131.336 163.336C151.022 151.168 160.273 163.49 179.958 151.26C199.644 139.03 190.459 126.615 210.145 114.446C229.83 102.278 239.082 114.446 258.801 102.37C278.519 90.294 269.268 77.725 288.987 65.4024C308.706 53.0798 317.89 65.5564 337.609 53.3571C357.328 41.1577 348.076 28.7119 367.795 16.3893C387.514 4.06671 396.698 16.5433 416.417 4.31312C436.136 -7.91705 426.918 -20.3321 446.603 -32.6546C466.289 -44.9772 475.54 -32.5006 495.259 -44.7307C514.978 -56.9609 505.76 -69.3759 525.479 -81.6985" stroke="white" stroke-width="5" stroke-miterlimit="10"/>
<path d="M-11.4863 281.109C8.19886 268.786 17.4168 281.263 37.1357 269.032C56.8547 256.802 47.603 244.387 67.2882 232.219C86.9734 220.05 96.2251 232.373 115.944 220.143C135.663 207.912 126.411 195.497 146.097 183.329C165.782 171.16 175.033 183.483 194.752 171.253C214.471 159.022 205.22 146.608 224.939 134.439C244.658 122.27 253.842 134.439 273.561 122.363C293.28 110.287 284.028 97.7176 303.747 85.395C323.466 73.0724 332.684 85.5491 352.369 73.3497C372.054 61.1503 362.836 48.7045 382.555 36.3819C402.274 24.0593 411.492 36.536 431.177 24.3059C450.862 12.0757 441.678 -0.339359 461.397 -12.5079C481.116 -24.6765 490.334 -12.3538 510.053 -24.584C529.772 -36.8142 520.52 -49.2292 540.239 -61.5518" stroke="white" stroke-width="5" stroke-miterlimit="10"/>
<path d="M3.41211 301.102C23.0973 288.78 32.3153 301.256 52.0342 289.026C71.7532 276.796 62.5015 264.381 82.2205 252.212C101.939 240.044 111.124 252.366 130.843 240.136C150.561 227.906 141.31 215.491 161.029 203.322C180.748 191.154 189.932 203.477 209.651 191.246C229.37 179.016 220.118 166.601 239.837 154.433C259.556 142.264 268.774 154.433 288.459 142.357C308.144 130.28 298.96 117.711 318.645 105.389C338.331 93.0662 347.582 105.543 367.267 93.3434C386.953 81.1441 377.768 68.6983 397.454 56.3757C417.139 44.0531 426.391 56.5297 446.11 44.2995C465.828 32.0693 456.577 19.6543 476.296 7.48574C496.015 -4.68282 505.233 7.63982 524.952 -4.59034C544.671 -16.8205 535.453 -29.2355 555.172 -41.5581" stroke="white" stroke-width="5" stroke-miterlimit="10"/>
<path d="M18.3027 321.096C38.0217 308.773 47.2397 321.096 66.9249 309.02C86.6101 296.944 77.4258 284.375 97.111 272.206C116.796 260.038 126.048 272.206 145.733 260.13C165.418 248.054 156.2 235.485 175.919 223.316C195.638 211.148 204.856 223.47 224.541 211.24C244.227 199.01 235.042 186.595 254.728 174.426C274.413 162.258 283.665 174.426 303.384 162.35C323.103 150.274 313.851 137.705 333.57 125.382C353.289 113.06 362.473 125.536 382.158 113.337C401.843 101.138 392.659 88.6919 412.344 76.3693C432.029 64.0467 441.281 76.5233 461 64.2932C480.719 52.063 471.501 39.648 491.186 27.4795C510.872 15.3109 520.123 27.6335 539.842 15.4033C559.561 3.17314 550.343 -9.24187 570.062 -21.5645" stroke="white" stroke-width="5" stroke-miterlimit="10"/>
<path d="M33.1826 341.09C52.9016 328.767 62.1195 341.244 81.8385 329.013C101.557 316.783 92.3057 304.368 111.991 292.046C131.676 279.723 140.928 292.2 160.613 279.969C180.298 267.739 171.114 255.324 190.799 243.156C210.484 230.987 219.736 243.156 239.455 231.08C259.174 219.004 249.922 206.434 269.641 194.266C289.36 182.097 298.544 194.266 318.263 182.19C337.982 170.114 328.731 157.545 348.45 145.222C368.169 132.899 377.353 145.222 397.072 133.177C416.791 121.131 407.539 108.532 427.258 96.2089C446.977 83.8863 456.195 96.2089 475.88 84.1328C495.565 72.0566 486.381 59.4876 506.066 47.3191C525.751 35.1505 535.037 47.4731 554.722 35.2429C574.407 23.0127 565.223 10.5977 584.942 -1.72485" stroke="white" stroke-width="5" stroke-miterlimit="10"/>
<path d="M48.0078 361.083C67.693 348.76 76.9109 361.237 96.6299 349.007C116.349 336.777 107.097 324.362 126.816 312.039C146.535 299.716 155.719 312.193 175.438 299.963C195.157 287.733 185.905 275.318 205.624 262.995C225.343 250.672 234.528 263.149 254.247 250.919C273.966 238.689 264.714 226.274 284.433 213.951C304.152 201.629 313.336 213.951 333.055 201.875C352.774 189.799 343.556 177.23 363.241 164.907C382.926 152.585 392.178 165.061 411.863 152.862C431.548 140.663 422.364 128.217 442.049 115.894C461.735 103.572 470.986 116.048 490.705 103.818C510.424 91.5879 501.172 79.1729 520.891 67.0043C540.61 54.8357 549.828 67.0043 569.547 54.9282C589.266 42.8521 580.048 30.283 599.767 17.9604" stroke="white" stroke-width="5" stroke-miterlimit="10"/>
<path d="M62.9932 381.076C82.7121 368.754 91.93 381.23 111.615 369C131.3 356.77 122.082 344.355 141.801 332.186C161.52 320.018 170.738 332.34 190.424 320.11C210.109 307.88 200.891 295.465 220.61 283.296C240.329 271.128 249.547 283.45 269.232 271.22C288.917 258.99 279.733 246.575 299.418 234.253C319.103 221.93 328.355 234.252 348.04 222.176C367.725 210.1 358.541 197.531 378.226 185.209C397.912 172.886 407.163 185.363 426.848 173.163C446.534 160.964 437.35 148.518 457.035 136.196C476.72 123.873 485.972 136.35 505.69 124.119C525.409 111.889 516.158 99.4742 535.877 87.1516C555.596 74.829 564.814 87.3056 584.533 75.0754C604.252 62.8453 595.034 50.4303 614.921 38.1077" stroke="white" stroke-width="5" stroke-miterlimit="10"/>
<path d="M77.8838 401.07C97.6028 388.747 106.821 401.224 126.506 388.994C146.191 376.763 137.007 364.348 156.692 352.18C176.377 340.011 185.629 352.334 205.314 340.104C224.999 327.874 215.815 315.459 235.5 303.29C255.186 291.121 264.437 303.444 284.156 291.214C303.875 278.984 294.623 266.569 314.309 254.4C333.994 242.232 343.246 254.4 362.965 242.324C382.684 230.248 373.432 217.679 393.151 205.356C412.87 193.034 422.054 205.51 441.773 193.311C461.492 181.112 452.24 168.666 471.959 156.343C491.678 144.021 500.896 156.497 520.581 144.267C540.266 132.037 531.082 119.622 550.767 107.453C570.453 95.2847 579.704 107.607 599.423 95.3772C619.142 83.147 609.924 70.732 629.643 58.4094" stroke="white" stroke-width="5" stroke-miterlimit="10"/>
<path d="M92.8164 421.062C112.502 408.74 121.72 421.216 141.438 408.986C161.157 396.756 151.906 384.341 171.591 372.173C191.276 360.004 200.528 372.327 220.247 360.096C239.966 347.866 230.714 335.451 250.399 323.283C270.084 311.114 279.336 323.437 299.055 311.207C318.774 298.976 309.522 286.561 329.241 274.393C348.96 262.224 358.144 274.393 377.863 262.317C397.582 250.241 388.331 237.671 408.05 225.349C427.769 213.026 436.987 225.503 456.672 213.304C476.357 201.104 467.139 188.658 486.858 176.336C506.577 164.013 515.795 176.49 535.514 164.26C555.233 152.03 545.981 139.614 565.7 127.446C585.419 115.277 594.637 127.6 614.356 115.37C634.075 103.14 624.823 90.7247 644.542 78.4021" stroke="white" stroke-width="5" stroke-miterlimit="10"/>
<path d="M107.697 441.056C127.382 428.734 136.6 441.056 156.319 428.98C176.038 416.904 166.787 404.335 186.506 392.167C206.225 379.998 215.409 392.166 235.128 380.09C254.847 368.014 245.595 355.445 265.314 343.277C285.033 331.108 294.217 343.431 313.936 331.2C333.655 318.97 324.403 306.555 344.122 294.387C363.841 282.218 373.059 294.387 392.744 282.311C412.43 270.235 403.245 257.665 422.931 245.343C442.616 233.02 451.867 245.497 471.553 233.298C491.238 221.098 482.054 208.652 501.739 196.33C521.424 184.007 530.676 196.484 550.395 184.254C570.114 172.023 560.862 159.608 580.581 147.44C600.3 135.271 609.518 147.594 629.237 135.364C648.956 123.134 639.738 110.719 659.457 98.396" stroke="white" stroke-width="5" stroke-miterlimit="10"/>
<path d="M122.597 461.05C142.316 448.727 151.534 461.204 171.219 448.973C190.904 436.743 181.72 424.328 201.405 412.16C221.09 399.991 230.342 412.16 250.027 400.084C269.712 388.007 260.528 375.438 280.213 363.27C299.899 351.101 309.15 363.27 328.835 351.194C348.521 339.118 339.336 326.549 359.022 314.38C378.707 302.211 387.958 314.38 407.677 302.304C427.396 290.228 418.145 277.659 437.864 265.336C457.583 253.013 466.767 265.336 486.452 253.291C506.137 241.245 496.953 228.646 516.672 216.323C536.391 204 545.575 216.323 565.294 204.247C585.013 192.171 575.795 179.602 595.48 167.433C615.166 155.265 624.417 167.587 644.136 155.357C663.855 143.127 654.637 130.712 674.356 118.389" stroke="white" stroke-width="5" stroke-miterlimit="10"/>
<path d="M137.48 481.043C157.199 468.721 166.417 481.197 186.136 468.967C205.855 456.737 196.604 444.322 216.289 431.999C235.974 419.677 245.226 432.153 264.911 419.923C284.596 407.693 275.412 395.278 295.097 382.955C314.782 370.633 324.034 383.109 343.753 370.879C363.472 358.649 354.22 346.234 373.939 334.065C393.658 321.897 402.842 334.066 422.561 321.989C442.28 309.913 433.029 297.344 452.747 285.022C472.466 272.699 481.651 285.176 501.37 272.976C521.089 260.777 511.837 248.331 531.556 236.009C551.275 223.686 560.493 236.008 580.178 223.932C599.863 211.856 590.679 199.287 610.364 187.119C630.049 174.95 639.335 187.119 659.054 175.042C678.773 162.966 669.521 150.397 689.24 138.075" stroke="white" stroke-width="5" stroke-miterlimit="10"/>
<path d="M152.407 501.036C172.092 488.714 181.31 501.19 201.029 488.96C220.748 476.73 211.497 464.315 231.216 452.147C250.934 439.978 260.119 452.3 279.838 440.07C299.557 427.84 290.305 415.425 310.024 403.257C329.743 391.088 338.927 403.411 358.646 391.18C378.365 378.95 369.113 366.535 388.832 354.213C408.551 341.89 417.769 354.213 437.454 342.137C457.139 330.06 447.955 317.491 467.64 305.169C487.326 292.846 496.577 305.323 516.263 293.123C535.948 280.924 526.764 268.478 546.449 256.156C566.134 243.833 575.386 256.31 595.105 244.08C614.824 231.849 605.572 219.434 625.291 207.112C645.01 194.789 654.228 207.266 673.947 195.036C693.666 182.805 684.448 170.39 704.167 158.068" stroke="white" stroke-width="5" stroke-miterlimit="10"/>
<path d="M167.297 521.03C187.016 508.707 196.234 521.184 215.919 508.954C235.604 496.724 226.386 484.309 246.105 472.14C265.824 459.972 275.042 472.294 294.727 460.064C314.412 447.834 305.195 435.419 324.913 423.25C344.632 411.082 353.85 423.404 373.536 411.174C393.221 398.944 384.037 386.529 403.722 374.36C423.407 362.192 432.659 374.36 452.344 362.284C472.029 350.208 462.845 337.639 482.53 325.317C502.215 312.994 511.467 325.471 531.152 313.271C550.837 301.072 541.653 288.626 561.338 276.303C581.024 263.981 590.275 276.458 609.994 264.227C629.713 251.997 620.462 239.582 640.181 227.414C659.899 215.245 669.117 227.568 688.836 215.337C708.555 203.107 699.337 190.692 719.056 178.37" stroke="white" stroke-width="5" stroke-miterlimit="10"/>
<path d="M182.188 541.023C201.906 528.701 211.124 541.177 230.81 528.947C250.495 516.717 241.311 504.302 260.996 492.133C280.681 479.965 289.933 492.288 309.618 480.057C329.303 467.827 320.119 455.412 339.804 443.244C359.489 431.075 368.741 443.398 388.46 431.168C408.179 418.937 398.927 406.522 418.612 394.354C438.298 382.185 447.549 394.354 467.268 382.278C486.987 370.201 477.735 357.632 497.454 345.31C517.173 332.987 526.358 345.464 546.077 333.264C565.796 321.065 556.544 308.619 576.263 296.297C595.982 283.974 605.2 296.451 624.885 284.221C644.57 271.99 635.386 259.575 655.071 247.407C674.756 235.238 684.008 247.561 703.727 235.331C723.446 223.101 714.228 210.686 733.947 198.363" stroke="white" stroke-width="5" stroke-miterlimit="10"/>
<path d="M197.114 561.017C216.799 548.694 226.017 561.017 245.736 548.941C265.455 536.865 256.204 524.296 275.923 512.127C295.642 499.959 304.826 512.281 324.545 500.051C344.264 487.821 335.012 475.406 354.731 463.237C374.45 451.069 383.634 463.391 403.353 451.161C423.072 438.931 413.82 426.516 433.539 414.347C453.258 402.179 462.442 414.347 482.161 402.271C501.88 390.195 492.662 377.626 512.347 365.304C532.033 352.981 541.284 365.458 560.97 353.258C580.655 341.059 571.437 328.613 591.156 316.29C610.875 303.968 620.093 316.444 639.812 304.214C659.531 291.984 650.279 279.569 669.998 267.401C689.717 255.232 698.935 267.555 718.654 255.324C738.373 243.094 729.155 230.679 748.84 218.357" stroke="white" stroke-width="5" stroke-miterlimit="10"/>
<path d="M212.007 580.918C231.692 568.596 240.944 581.072 260.629 568.842C280.314 556.612 271.096 544.197 290.815 532.028C310.534 519.86 319.718 532.028 339.437 519.952C359.156 507.876 349.904 495.307 369.623 483.138C389.342 470.97 398.56 483.138 418.245 471.062C437.931 458.986 428.747 446.417 448.432 434.249C468.117 422.08 477.369 434.249 497.054 422.172C516.739 410.096 507.555 397.527 527.24 385.205C546.925 372.882 556.177 385.205 575.862 373.159C595.547 361.114 586.363 348.514 606.048 336.192C625.733 323.869 634.985 336.346 654.704 324.116C674.423 311.885 665.171 299.47 684.89 287.302C704.609 275.133 713.827 287.456 733.546 275.226C753.265 262.995 744.047 250.58 763.935 238.258" stroke="white" stroke-width="5" stroke-miterlimit="10"/>
</g>
</g>
</svg>
