<svg width="43" height="43" viewBox="0 0 43 43" fill="none" xmlns="http://www.w3.org/2000/svg">
<path d="M21.3283 14.5703C17.4723 14.5703 14.3255 17.7171 14.3255 21.5732C14.3255 25.4293 17.4723 28.5762 21.3283 28.5762C25.1844 28.5762 28.3312 25.4293 28.3312 21.5732C28.3312 17.7171 25.1844 14.5703 21.3283 14.5703ZM42.3316 21.5732C42.3316 18.6733 42.3579 15.7996 42.1951 12.9049C42.0322 9.54261 41.2652 6.5586 38.8066 4.09994C36.3427 1.63602 33.364 0.874257 30.0018 0.711397C27.1019 0.548537 24.2282 0.574805 21.3336 0.574805C18.4337 0.574805 15.5601 0.548537 12.6654 0.711397C9.30319 0.874257 6.31923 1.64127 3.86061 4.09994C1.39674 6.56385 0.634994 9.54261 0.472137 12.9049C0.30928 15.8048 0.335547 18.6785 0.335547 21.5732C0.335547 24.4679 0.30928 27.3469 0.472137 30.2416C0.634994 33.6039 1.402 36.5879 3.86061 39.0465C6.32448 41.5105 9.30319 42.2722 12.6654 42.4351C15.5653 42.5979 18.4389 42.5717 21.3336 42.5717C24.2335 42.5717 27.1071 42.5979 30.0018 42.4351C33.364 42.2722 36.348 41.5052 38.8066 39.0465C41.2704 36.5826 42.0322 33.6039 42.1951 30.2416C42.3632 27.3469 42.3316 24.4732 42.3316 21.5732ZM21.3283 32.3483C15.3657 32.3483 10.5535 27.536 10.5535 21.5732C10.5535 15.6105 15.3657 10.7982 21.3283 10.7982C27.291 10.7982 32.1032 15.6105 32.1032 21.5732C32.1032 27.536 27.291 32.3483 21.3283 32.3483ZM32.5445 12.8734C31.1523 12.8734 30.0281 11.7491 30.0281 10.3569C30.0281 8.96472 31.1523 7.84046 32.5445 7.84046C33.9366 7.84046 35.0609 8.96472 35.0609 10.3569C35.0613 10.6875 34.9965 11.0149 34.8702 11.3204C34.7438 11.6259 34.5585 11.9035 34.3247 12.1372C34.091 12.371 33.8134 12.5563 33.5079 12.6827C33.2024 12.809 32.875 12.8738 32.5445 12.8734Z" fill="white"/>
</svg>
