<svg width="43" height="43" viewBox="0 0 43 43" fill="none" xmlns="http://www.w3.org/2000/svg">
<path d="M21.3479 14.5703C17.4918 14.5703 14.345 17.7171 14.345 21.5732C14.345 25.4293 17.4918 28.5762 21.3479 28.5762C25.2039 28.5762 28.3507 25.4293 28.3507 21.5732C28.3507 17.7171 25.2039 14.5703 21.3479 14.5703ZM42.3512 21.5732C42.3512 18.6733 42.3774 15.7996 42.2146 12.9049C42.0517 9.54261 41.2847 6.5586 38.8261 4.09994C36.3622 1.63602 33.3835 0.874257 30.0213 0.711397C27.1214 0.548537 24.2478 0.574805 21.3531 0.574805C18.4532 0.574805 15.5796 0.548537 12.6849 0.711397C9.32272 0.874257 6.33876 1.64128 3.88014 4.09994C1.41628 6.56385 0.654525 9.54261 0.491668 12.9049C0.328811 15.8048 0.355078 18.6785 0.355078 21.5732C0.355078 24.4679 0.328811 27.3469 0.491668 30.2416C0.654525 33.6039 1.42153 36.5879 3.88014 39.0465C6.34401 41.5105 9.32272 42.2722 12.6849 42.4351C15.5848 42.5979 18.4585 42.5717 21.3531 42.5717C24.253 42.5717 27.1267 42.5979 30.0213 42.4351C33.3835 42.2722 36.3675 41.5052 38.8261 39.0465C41.29 36.5826 42.0517 33.6039 42.2146 30.2416C42.3827 27.3469 42.3512 24.4732 42.3512 21.5732ZM21.3479 32.3483C15.3852 32.3483 10.573 27.536 10.573 21.5732C10.573 15.6105 15.3852 10.7982 21.3479 10.7982C27.3105 10.7982 32.1227 15.6105 32.1227 21.5732C32.1227 27.536 27.3105 32.3483 21.3479 32.3483ZM32.564 12.8734C31.1718 12.8734 30.0476 11.7491 30.0476 10.3569C30.0476 8.96472 31.1718 7.84046 32.564 7.84046C33.9562 7.84046 35.0804 8.96472 35.0804 10.3569C35.0808 10.6875 35.016 11.0149 34.8897 11.3204C34.7634 11.6259 34.578 11.9035 34.3443 12.1372C34.1105 12.371 33.833 12.5563 33.5275 12.6827C33.222 12.809 32.8946 12.8738 32.564 12.8734Z" fill="#433F3A"/>
</svg>
