<svg width="57" height="39" viewBox="0 0 57 39" fill="none" xmlns="http://www.w3.org/2000/svg">
<path d="M55.5483 6.77614C55.2296 5.65018 54.6068 4.62334 53.7418 3.79781C52.8768 2.97229 51.7999 2.37688 50.6182 2.07085C46.2365 0.925164 28.7069 0.906514 28.7069 0.906514C28.7069 0.906514 11.1801 0.887863 6.79558 1.98292C5.61461 2.30304 4.53988 2.90687 3.67458 3.73644C2.80927 4.56602 2.18245 5.59348 1.85428 6.72019C0.698697 10.8926 0.687504 19.5465 0.687504 19.5465C0.687504 19.5465 0.676312 28.2431 1.8235 32.3728C2.46705 34.6562 4.35571 36.46 6.75641 37.0755C11.1829 38.2212 28.6649 38.2398 28.6649 38.2398C28.6649 38.2398 46.1945 38.2585 50.5762 37.1661C51.7584 36.8606 52.8363 36.2665 53.7034 35.4427C54.5705 34.6189 55.1968 33.5938 55.5203 32.4688C56.6787 28.299 56.6871 19.6478 56.6871 19.6478C56.6871 19.6478 56.743 10.9486 55.5483 6.77614ZM23.0997 27.5636L23.1136 11.5774L37.6829 19.5838L23.0997 27.5636Z" fill="#433F3A"/>
</svg>
