<svg width="57" height="39" viewBox="0 0 57 39" fill="none" xmlns="http://www.w3.org/2000/svg">
<path d="M55.5288 6.7759C55.2101 5.64994 54.5872 4.62309 53.7223 3.79757C52.8573 2.97205 51.7804 2.37664 50.5986 2.0706C46.2169 0.92492 28.6874 0.90627 28.6874 0.90627C28.6874 0.90627 11.1606 0.887619 6.77605 1.98268C5.59508 2.3028 4.52035 2.90663 3.65504 3.7362C2.78974 4.56577 2.16291 5.59324 1.83475 6.71995C0.679165 10.8924 0.667973 19.5463 0.667973 19.5463C0.667973 19.5463 0.656781 28.2428 1.80397 32.3726C2.44751 34.656 4.33618 36.4598 6.73688 37.0752C11.1633 38.2209 28.6454 38.2396 28.6454 38.2396C28.6454 38.2396 46.175 38.2582 50.5567 37.1658C51.7388 36.8603 52.8168 36.2663 53.6839 35.4425C54.551 34.6186 55.1773 33.5935 55.5008 32.4685C56.6592 28.2988 56.6676 19.6475 56.6676 19.6475C56.6676 19.6475 56.7235 10.9483 55.5288 6.7759ZM23.0801 27.5634L23.0941 11.5771L37.6634 19.5836L23.0801 27.5634Z" fill="white"/>
</svg>
