<svg width="634" height="461" viewBox="0 0 634 461" fill="none" xmlns="http://www.w3.org/2000/svg">
<g opacity="0.2">
<mask id="mask0_16_3120" style="mask-type:luminance" maskUnits="userSpaceOnUse" x="0" y="0" width="634" height="461">
<path d="M402.86 0.5C463.773 0.50997 522.188 24.7236 565.257 67.8154C607.989 110.571 632.142 168.437 632.517 228.857L632.521 230.285C632.497 240.517 631.801 250.737 630.436 260.877L625.374 287.355C612.694 336.764 583.945 380.551 543.656 411.819C503.364 443.09 453.818 460.065 402.822 460.069H309.27C362.886 455.042 413.297 431.363 451.512 392.82C494.042 349.925 518.047 292.07 518.408 231.692L518.412 230.266C518.409 169.381 494.356 110.965 451.493 67.7412C413.275 29.2017 362.863 5.52594 309.245 0.5H402.86ZM287.196 0.5V460.069H173.162V230.553L173.563 230.285L173.162 230.018V0.5H287.196ZM171.761 230.285L0.5 344.502V116.085L171.761 230.285Z" fill="white" stroke="white"/>
</mask>
<g mask="url(#mask0_16_3120)">
<g opacity="0.3">
<path d="M-103.705 181.554C-83.4611 167.791 -73.9841 181.722 -53.7214 167.959C-33.4588 154.196 -42.9545 140.247 -22.5984 126.465C-2.24231 112.683 7.1226 126.633 27.3852 112.852C47.6479 99.0702 38.1522 85.139 58.3961 71.3575C78.6401 57.5759 88.1358 71.5258 108.398 57.7442C128.661 43.9627 119.165 30.0315 139.428 16.2499C159.691 2.46837 169.149 16.4182 189.412 2.63666C209.674 -11.1449 200.179 -25.0761 220.441 -38.8576C240.704 -52.6392 250.162 -38.6893 270.425 -52.4709C290.687 -66.2525 281.192 -80.1836 301.454 -93.9652C321.717 -107.747 331.175 -93.7969 351.438 -107.578C371.701 -121.36 362.205 -135.31 382.468 -149.073C402.73 -162.836 412.207 -148.904 432.451 -162.686C452.695 -176.468 443.237 -190.417 463.499 -204.199" stroke="#716D65" stroke-width="7.52" stroke-miterlimit="10"/>
<path d="M-88.3965 204.087C-68.1338 190.324 -58.6568 204.255 -38.4128 190.492C-18.1689 176.729 -27.6459 162.686 -7.38325 148.998C12.8794 135.31 22.3378 149.166 42.6004 135.385C62.8631 121.603 53.3672 107.653 73.6299 93.8904C93.8925 80.1276 103.351 94.0587 123.614 80.2772C143.876 66.4956 134.418 52.5458 154.643 38.7829C174.868 25.02 184.364 38.9512 204.627 25.1696C224.889 11.3881 215.394 -2.5618 235.656 -16.3247C255.919 -30.0875 265.396 -16.1564 285.64 -29.9379C305.884 -43.7195 296.426 -57.6506 316.669 -71.4322C336.913 -85.2138 346.409 -71.2639 366.653 -85.0455C386.897 -98.827 377.439 -112.777 397.683 -126.54C417.927 -140.303 427.422 -126.371 447.685 -140.153C467.948 -153.935 458.452 -167.884 478.714 -181.666" stroke="#716D65" stroke-width="7.52" stroke-miterlimit="10"/>
<path d="M-73.0684 226.62C-52.8057 212.857 -43.3287 226.788 -23.0847 213.025C-2.84075 199.262 -12.2991 185.294 7.94487 171.531C28.1888 157.768 37.6846 171.699 57.9285 157.918C78.1725 144.136 68.714 130.186 88.958 116.423C109.202 102.661 118.698 116.592 138.942 102.81C159.186 89.0286 149.727 75.0787 169.971 61.3158C190.215 47.553 199.711 61.4841 219.955 47.7026C240.199 33.921 230.74 19.9712 250.984 6.20829C271.228 -7.55457 280.724 6.37659 300.968 -7.40497C321.212 -21.1865 311.754 -35.1364 331.998 -48.8993C352.242 -62.6621 361.737 -48.731 382 -62.5125C402.263 -76.2941 392.767 -90.2439 413.03 -104.007C433.292 -117.77 442.751 -103.839 463.013 -117.62C483.276 -131.402 473.799 -145.351 494.043 -159.133" stroke="#716D65" stroke-width="7.52" stroke-miterlimit="10"/>
<path d="M-57.7598 249.153C-37.5158 235.39 -28.0387 249.321 -7.77611 235.558C12.4865 221.795 2.99081 207.827 23.2348 194.045C43.4787 180.264 52.9745 194.232 73.2184 180.451C93.4624 166.669 84.0039 152.719 104.248 138.956C124.492 125.193 133.988 139.125 154.232 125.343C174.475 111.562 165.017 97.6117 185.261 83.8488C205.505 70.0859 215.001 84.0171 235.263 70.2355C255.526 56.454 246.03 42.5041 266.293 28.7413C286.556 14.9784 296.014 28.9095 316.277 15.128C336.539 1.34642 327.044 -12.6034 347.306 -26.3663C367.569 -40.1292 377.027 -26.198 397.29 -39.9796C417.552 -53.7611 408.057 -67.711 428.319 -81.4738C448.582 -95.2367 458.059 -81.3055 478.303 -95.0871C498.547 -108.869 489.088 -122.819 509.351 -136.6" stroke="#716D65" stroke-width="7.52" stroke-miterlimit="10"/>
<path d="M-42.4492 271.686C-22.2053 257.904 -12.7095 271.854 7.53444 258.091C27.7784 244.328 18.3013 230.36 38.5639 216.578C58.8265 202.797 68.285 216.746 88.5477 202.984C108.81 189.221 99.3145 175.252 119.577 161.489C139.84 147.726 149.298 161.658 169.561 147.876C189.823 134.094 180.328 120.145 200.59 106.382C220.853 92.6189 230.311 106.55 250.574 92.7685C270.837 78.9869 261.341 65.0371 281.603 51.2742C301.866 37.5113 311.343 51.4425 331.587 37.6609C351.831 23.8794 342.354 9.92953 362.617 -3.73984C382.879 -17.4092 392.375 -3.73984 412.6 -17.4466C432.826 -31.1534 423.386 -45.178 443.63 -58.9409C463.874 -72.7038 473.37 -58.7913 493.632 -72.5542C513.895 -86.317 504.399 -100.286 524.662 -114.067" stroke="#716D65" stroke-width="7.52" stroke-miterlimit="10"/>
<path d="M-27.1406 294.219C-6.87798 280.437 2.59908 294.387 22.843 280.624C43.087 266.861 33.6285 252.893 53.8725 239.111C74.1164 225.33 83.6123 239.279 103.856 225.517C124.1 211.754 114.623 197.785 134.886 184.022C155.148 170.259 164.625 184.191 184.869 170.409C205.113 156.627 195.655 142.678 215.899 128.915C236.143 115.152 245.639 129.083 265.883 115.301C286.127 101.52 276.668 87.57 296.912 73.7885C317.156 60.0069 326.652 73.9755 346.896 60.1939C367.14 46.4123 357.681 32.4625 377.925 18.6996C398.169 4.93676 407.665 18.8679 427.909 5.08636C448.153 -8.6952 438.694 -22.6451 458.938 -36.4079C479.182 -50.1708 488.678 -36.2583 508.941 -50.0212C529.203 -63.7841 519.708 -77.7526 539.97 -91.5342" stroke="#716D65" stroke-width="7.52" stroke-miterlimit="10"/>
<path d="M-11.8125 316.752C8.43145 302.97 17.9085 316.92 38.1712 303.138C58.4338 289.357 48.938 275.426 69.1819 261.644C89.4259 247.862 98.9217 261.812 119.166 248.049C139.41 234.287 129.951 220.318 150.195 206.536C170.439 192.755 179.935 206.723 200.179 192.942C220.423 179.16 211.058 165.21 231.208 151.466C251.359 137.722 260.948 151.635 281.192 137.872C301.436 124.109 291.978 110.14 312.24 96.3588C332.503 82.5772 341.961 96.5271 362.224 82.7642C382.487 69.0013 372.991 55.0328 393.253 41.2512C413.516 27.4697 422.974 41.4195 443.237 27.6567C463.5 13.8938 454.004 -0.0747557 474.267 -13.8563C494.529 -27.6379 504.006 -13.688 524.25 -27.4509C544.494 -41.2137 535.036 -55.1823 555.299 -68.9639" stroke="#716D65" stroke-width="7.52" stroke-miterlimit="10"/>
<path d="M3.57031 339.285C23.8143 325.503 33.2913 339.453 53.554 325.671C73.8166 311.89 64.3209 297.959 84.5836 284.177C104.846 270.395 114.305 284.345 134.567 270.582C154.83 256.82 145.334 242.851 165.597 229.07C185.859 215.288 195.318 229.238 215.58 215.475C235.843 201.712 226.272 187.744 246.572 173.906C266.873 160.068 276.294 174.074 296.556 160.311C316.819 146.548 307.323 132.58 327.586 118.798C347.848 105.017 357.307 118.967 377.569 105.204C397.832 91.4409 388.336 77.4723 408.599 63.6907C428.862 49.9092 438.339 63.859 458.583 50.0962C478.827 36.3333 469.331 22.4396 489.575 8.63929C509.819 -5.16097 519.314 8.80759 539.577 -4.97398C559.84 -18.7555 550.344 -32.6867 570.607 -46.4683" stroke="#716D65" stroke-width="7.52" stroke-miterlimit="10"/>
<path d="M18.8047 361.817C39.0673 348.036 48.5444 361.986 68.7883 348.204C89.0323 334.422 79.5739 320.491 99.8178 306.71C120.062 292.928 129.558 306.878 149.801 293.115C170.045 279.352 160.568 265.384 180.831 251.602C201.094 237.821 210.552 251.771 230.815 238.008C251.077 224.245 241.582 210.276 261.844 196.495C282.107 182.713 291.584 196.663 311.828 182.9C332.072 169.137 322.613 155.169 342.857 141.387C363.101 127.606 372.597 141.555 392.841 127.793C413.085 114.03 403.627 100.061 423.871 86.2796C444.114 72.498 453.61 86.4478 473.854 72.685C494.098 58.9221 484.64 44.9536 504.884 31.172C525.128 17.3904 534.623 31.3403 554.886 17.5587C575.149 3.77718 565.653 -10.154 585.916 -23.9355" stroke="#716D65" stroke-width="7.52" stroke-miterlimit="10"/>
<path d="M34.1328 384.351C54.3768 370.569 63.8539 384.519 84.1166 370.737C104.379 356.956 94.8834 343.025 115.127 329.243C135.371 315.461 144.867 329.411 165.111 315.648C185.355 301.886 175.897 287.973 196.103 274.135C216.31 260.298 225.843 274.304 246.087 260.541C266.331 246.778 256.872 232.809 277.116 219.028C297.36 205.246 306.856 219.196 327.1 205.433C347.344 191.67 337.886 177.702 358.13 163.92C378.373 150.139 387.869 164.089 408.132 150.326C428.395 136.563 418.899 122.594 439.161 108.813C459.424 95.0312 468.882 108.981 489.145 95.2182C509.408 81.4553 499.912 67.4868 520.175 53.7052C540.437 39.9236 549.896 53.8735 570.158 40.0919C590.421 26.3104 580.944 12.3792 601.188 -1.40234" stroke="#716D65" stroke-width="7.52" stroke-miterlimit="10"/>
<path d="M49.4414 406.883C69.6854 393.102 79.1625 407.052 99.4252 393.27C119.688 379.488 110.192 365.557 130.455 351.776C150.717 337.994 160.176 351.944 180.438 338.162C200.701 324.381 191.205 310.45 211.449 296.668C231.693 282.887 241.189 296.836 261.452 283.074C281.714 269.311 272.218 255.342 292.481 241.561C312.744 227.779 322.202 241.729 342.465 227.966C362.727 214.203 353.232 200.235 373.494 186.453C393.757 172.671 403.215 186.621 423.478 172.858C443.741 159.096 434.245 145.127 454.507 131.345C474.77 117.564 484.228 131.514 504.491 117.732C524.754 103.951 515.258 90.0195 535.52 76.2379C555.783 62.4564 565.26 76.4062 585.504 62.6247C605.748 48.8431 596.29 34.9119 616.552 21.1304" stroke="#716D65" stroke-width="7.52" stroke-miterlimit="10"/>
<path d="M64.752 429.416C85.0146 415.635 94.4917 429.584 114.736 415.803C134.98 402.021 125.521 388.09 145.765 374.309C166.009 360.527 175.505 374.477 195.749 360.695C215.993 346.914 206.516 332.983 226.778 319.201C247.041 305.42 256.499 319.369 276.762 305.588C297.025 291.806 287.529 277.875 307.792 264.094C328.054 250.312 337.531 264.262 357.775 250.499C378.019 236.736 368.561 222.768 388.805 208.986C409.049 195.204 418.544 209.154 438.788 195.373C459.032 181.591 449.574 167.66 469.818 153.878C490.062 140.097 499.558 154.047 519.802 140.265C540.046 126.484 530.587 112.552 550.831 98.7709C571.075 84.9893 580.571 98.9392 600.833 85.1576C621.096 71.3761 611.6 57.4449 631.863 43.6633" stroke="#716D65" stroke-width="7.52" stroke-miterlimit="10"/>
<path d="M80.0605 451.949C100.323 438.168 109.8 452.117 130.044 438.336C150.288 424.554 140.83 410.623 161.074 396.842C181.318 383.06 190.813 397.01 211.057 383.228C231.301 369.447 221.843 355.516 242.087 341.734C262.331 327.952 271.827 341.902 292.071 328.121C312.315 314.339 302.856 300.408 323.1 286.626C343.344 272.845 352.84 286.795 373.084 273.013C393.328 259.232 383.869 245.3 404.113 231.519C424.357 217.737 433.853 231.687 454.097 217.906C474.341 204.124 464.883 190.193 485.126 176.411C505.37 162.63 514.866 176.58 535.129 162.798C555.391 149.017 545.896 135.085 566.158 121.304C586.421 107.522 595.879 121.472 616.142 107.691C636.405 93.909 626.928 79.9779 647.172 66.1963" stroke="#716D65" stroke-width="7.52" stroke-miterlimit="10"/>
<path d="M95.3887 474.482C115.633 460.701 125.11 474.65 145.372 460.869C165.635 447.087 156.139 433.156 176.402 419.375C196.665 405.593 206.123 419.543 226.386 405.761C246.648 391.98 237.152 378.049 257.396 364.267C277.64 350.485 287.136 364.435 307.399 350.654C327.661 336.872 318.166 322.941 338.428 309.159C358.691 295.378 368.149 309.328 388.412 295.546C408.675 281.765 399.179 267.833 419.441 254.052C439.704 240.27 449.162 254.22 469.425 240.439C489.688 226.657 480.192 212.726 500.455 198.944C520.717 185.163 530.176 199.113 550.438 185.331C570.701 171.55 561.205 157.618 581.468 143.837C601.73 130.055 611.208 144.005 631.452 130.224C651.695 116.442 642.237 102.511 662.5 88.7292" stroke="#716D65" stroke-width="7.52" stroke-miterlimit="10"/>
<path d="M110.697 497.015C130.96 483.234 140.437 497.183 160.681 483.402C180.925 469.62 171.448 455.689 191.71 441.908C211.973 428.126 221.432 442.076 241.694 428.294C261.957 414.513 252.461 400.582 272.724 386.8C292.986 373.018 302.445 386.968 322.707 373.187C342.97 359.405 333.474 345.474 353.737 331.692C373.999 317.911 383.458 331.861 403.72 318.079C423.983 304.298 414.487 290.366 434.75 276.585C455.013 262.803 464.49 276.753 484.734 262.972C504.978 249.19 495.519 235.259 515.763 221.477C536.007 207.696 545.503 221.646 565.747 207.864C585.991 194.082 576.532 180.151 596.776 166.37C617.02 152.588 626.516 166.538 646.779 152.756C667.041 138.975 657.546 125.025 677.808 111.262" stroke="#716D65" stroke-width="7.52" stroke-miterlimit="10"/>
<path d="M126.006 519.548C146.269 505.766 155.746 519.716 175.99 505.935C196.233 492.153 186.775 478.222 207.019 464.44C227.263 450.659 236.759 464.609 257.003 450.827C277.247 437.046 267.788 423.114 288.032 409.333C308.276 395.551 317.772 409.501 338.016 395.72C358.26 381.938 348.801 368.007 369.045 354.225C389.289 340.444 398.785 354.394 419.029 340.612C439.273 326.831 429.815 312.899 450.059 299.118C470.303 285.336 479.798 299.286 500.042 285.505C520.286 271.723 510.828 257.792 531.072 244.01C551.316 230.229 560.811 244.179 581.074 230.397C601.337 216.615 591.841 202.684 612.104 188.903C632.366 175.121 641.825 189.071 662.087 175.289C682.35 161.508 672.873 147.558 693.117 133.795" stroke="#716D65" stroke-width="7.52" stroke-miterlimit="10"/>
<path d="M141.334 542.081C161.578 528.299 171.055 542.249 191.318 528.468C211.58 514.686 202.084 500.755 222.347 486.973C242.61 473.192 252.068 487.142 272.312 473.36C292.556 459.579 283.098 445.647 303.342 431.866C323.586 418.084 333.081 432.034 353.325 418.253C373.569 404.471 364.111 390.54 384.373 376.758C404.636 362.977 414.094 376.927 434.357 363.145C454.62 349.363 445.124 335.432 465.387 321.651C485.649 307.869 495.108 321.819 515.37 308.038C535.633 294.256 526.137 280.325 546.4 266.543C566.663 252.762 576.121 266.712 596.384 252.93C616.646 239.148 607.15 225.217 627.413 211.436C647.676 197.654 657.153 211.604 677.397 197.822C697.641 184.041 688.182 170.091 708.445 156.328" stroke="#716D65" stroke-width="7.52" stroke-miterlimit="10"/>
<path d="M156.645 564.614C176.907 550.832 186.384 564.782 206.628 551.001C226.872 537.219 217.395 523.269 237.658 509.506C257.92 495.743 267.379 509.675 287.641 495.893C307.904 482.111 298.408 468.18 318.671 454.399C338.934 440.617 348.392 454.567 368.655 440.785C388.917 427.004 379.421 413.073 399.684 399.291C419.947 385.51 429.405 399.46 449.668 385.678C469.93 371.896 460.435 357.965 480.697 344.184C500.96 330.402 510.437 344.352 530.681 330.57C550.925 316.789 541.448 302.858 561.71 289.076C581.973 275.295 591.45 289.244 611.694 275.463C631.938 261.681 622.48 247.75 642.724 233.969C662.968 220.187 672.463 234.137 692.726 220.355C712.989 206.574 703.493 192.624 723.756 178.842" stroke="#716D65" stroke-width="7.52" stroke-miterlimit="10"/>
<path d="M171.953 587.166C192.216 573.403 201.693 587.353 221.937 573.571C242.181 559.79 232.722 545.84 252.966 532.077C273.21 518.314 282.706 532.245 302.95 518.464C323.194 504.682 313.736 490.751 333.979 476.969C354.223 463.188 363.719 477.138 383.963 463.356C404.207 449.574 394.749 435.643 414.993 421.862C435.237 408.08 444.732 422.03 464.976 408.248C485.22 394.467 475.762 380.536 496.006 366.754C516.25 352.973 525.746 366.923 545.99 353.141C566.234 339.359 556.775 325.428 577.019 311.647C597.263 297.865 606.759 311.815 627.021 298.033C647.284 284.252 637.788 270.321 658.032 256.539C678.276 242.758 687.772 256.707 708.035 242.926C728.297 229.144 718.82 215.194 739.064 201.413" stroke="#716D65" stroke-width="7.52" stroke-miterlimit="10"/>
<path d="M187.281 609.605C207.525 595.842 217.002 609.773 237.265 596.011C257.528 582.248 248.032 568.279 268.276 554.516C288.52 540.753 298.015 554.685 318.259 540.903C338.503 527.122 329.045 513.19 349.289 499.409C369.533 485.627 379.029 499.577 399.273 485.796C419.517 472.014 410.058 458.083 430.302 444.301C450.546 430.52 460.042 444.47 480.304 430.688C500.567 416.906 491.071 402.975 511.334 389.194C531.597 375.412 541.055 389.362 561.318 375.58C581.58 361.799 572.084 347.868 592.347 334.086C612.61 320.305 622.068 334.254 642.331 320.473C662.593 306.691 653.098 292.76 673.36 278.979C693.623 265.197 703.1 279.147 723.344 265.365C743.588 251.584 734.13 237.634 754.392 223.852" stroke="#716D65" stroke-width="7.52" stroke-miterlimit="10"/>
<path d="M202.59 632.194C222.834 618.431 232.33 632.362 252.574 618.599C272.818 604.837 263.397 590.905 283.603 577.105C303.81 563.305 313.324 577.273 333.587 563.492C353.849 549.71 344.354 535.76 364.616 521.998C384.879 508.235 394.337 522.166 414.6 508.384C434.863 494.603 425.367 480.672 445.629 466.89C465.892 453.109 475.35 467.058 495.613 453.277C515.876 439.495 506.38 425.545 526.643 411.783C546.905 398.02 556.364 411.951 576.626 398.169C596.889 384.388 587.393 370.457 607.656 356.675C627.919 342.893 637.396 356.843 657.64 343.062C677.884 329.28 668.425 315.33 688.669 301.567C708.913 287.805 718.409 301.736 738.671 287.954C758.934 274.173 749.438 260.223 769.701 246.441" stroke="#716D65" stroke-width="7.52" stroke-miterlimit="10"/>
<path d="M217.898 654.727C238.161 640.964 247.638 654.895 267.882 641.132C288.126 627.37 278.668 613.345 298.912 599.638C319.156 585.931 328.651 599.806 348.895 586.025C369.139 572.243 359.662 558.293 379.925 544.531C400.188 530.768 409.664 544.699 429.908 530.917C450.152 517.136 440.694 503.186 460.938 489.423C481.182 475.66 490.678 489.591 510.922 475.81C531.166 462.028 521.707 448.078 541.951 434.315C562.195 420.553 571.691 434.484 591.935 420.702C612.179 406.921 602.72 392.971 622.964 379.208C643.208 365.445 652.704 379.376 672.948 365.595C693.192 351.813 683.734 337.863 703.977 324.1C724.221 310.338 733.717 324.269 753.98 310.487C774.242 296.706 764.747 282.756 785.01 268.974" stroke="#716D65" stroke-width="7.52" stroke-miterlimit="10"/>
</g>
</g>
</g>
</svg>
