<svg width="584" height="433" viewBox="0 0 584 433" fill="none" xmlns="http://www.w3.org/2000/svg">
<g opacity="0.2">
<mask id="mask0_20_7" style="mask-type:luminance" maskUnits="userSpaceOnUse" x="0" y="0" width="595" height="433">
<path d="M378.639 0.5C408.945 0.464255 438.913 6.82045 466.589 19.1475L467.904 19.7393C495.507 32.2555 520.157 50.4497 540.251 73.1309L541.204 74.2148C561.153 97.0382 576.064 123.808 584.971 152.775L585.391 154.156C594.245 183.653 596.681 214.704 592.537 245.222L587.79 270.076C576.059 315.784 549.697 356.371 512.761 385.657L510.994 387.043C473.127 416.431 426.564 432.384 378.638 432.388H291.331C341.06 427.581 387.818 405.706 423.479 370.186L424.426 369.236C464.721 328.601 487.33 273.682 487.328 216.444L487.324 215.103C486.974 158.797 464.753 104.831 425.361 64.6123L424.42 63.6572C388.639 27.5747 341.49 5.35031 291.316 0.5H378.639ZM269.966 0.5V432.388H162.776V216.712L163.178 216.444L162.776 216.177V0.5H269.966ZM161.375 216.444L0.5 323.74V109.165L161.375 216.444Z" fill="white" stroke="white"/>
</mask>
<g mask="url(#mask0_20_7)">
<g opacity="0.3">
<path d="M-97.4824 170.648C-78.4458 157.709 -69.5377 170.812 -50.501 157.891C-31.4644 144.97 -40.3725 131.849 -21.354 118.892C-2.33558 105.935 6.59069 119.056 25.6273 106.136C44.664 93.2149 35.7559 80.0938 54.7744 67.1367C73.7928 54.1796 82.7191 67.3007 101.756 54.3801C120.792 41.4594 111.884 28.3383 130.903 15.3812C149.921 2.42406 158.848 15.5452 177.884 2.62452C196.921 -10.2961 188.013 -23.4355 207.031 -36.3744C226.05 -49.3133 234.976 -36.2286 254.013 -49.131C273.049 -62.0335 264.141 -75.1911 283.16 -88.13C302.178 -101.069 311.104 -87.9841 330.141 -100.887C349.178 -113.789 340.27 -126.947 359.288 -139.904C378.306 -152.861 387.233 -139.74 406.288 -152.66C425.342 -165.581 416.416 -178.702 435.435 -191.659" stroke="#716D65" stroke-width="7.25" stroke-miterlimit="10"/>
<path d="M-83.0938 191.824C-64.0571 178.885 -55.149 191.988 -36.1124 179.067C-17.0757 166.147 -25.9838 153.025 -6.96536 140.068C12.0531 127.111 20.9794 140.232 40.016 127.312C59.0527 114.391 50.1446 101.252 69.1631 88.2945C88.1815 75.3374 97.1078 88.4585 116.144 75.5378C135.181 62.6172 126.273 49.4961 145.291 36.5389C164.31 23.5818 173.236 36.703 192.273 23.7823C211.309 10.8616 202.401 -2.27771 221.42 -15.2166C240.438 -28.1555 249.365 -15.0526 268.383 -27.9732C287.401 -40.8939 278.512 -54.0332 297.53 -66.9721C316.548 -79.911 325.475 -66.8263 344.511 -79.7288C363.548 -92.6312 354.64 -105.789 373.658 -118.728C392.677 -131.667 401.621 -118.582 420.658 -131.484C439.695 -144.387 430.787 -157.526 449.805 -170.483" stroke="#716D65" stroke-width="7.25" stroke-miterlimit="10"/>
<path d="M-68.6992 213C-49.6626 200.061 -40.7545 213.164 -21.7179 200.243C-2.6812 187.323 -11.5893 174.183 7.42918 161.226C26.4476 148.269 35.3739 161.39 54.4106 148.469C73.4472 135.549 64.5391 122.409 83.5576 109.452C102.576 96.4952 111.502 109.616 130.539 96.6956C149.576 83.775 140.668 70.6539 159.686 57.6968C178.704 44.7396 187.631 57.8608 206.667 44.9401C225.704 32.0194 216.796 18.8801 235.814 5.94123C254.833 -6.99766 263.759 6.10524 282.796 -6.81542C301.832 -19.7361 292.924 -32.8755 311.943 -45.8144C330.961 -58.7532 339.887 -45.6686 358.924 -58.571C377.961 -71.4734 369.053 -84.631 388.071 -97.5699C407.09 -110.509 416.016 -97.4241 435.053 -110.327C454.089 -123.229 445.181 -136.387 464.2 -149.344" stroke="#716D65" stroke-width="7.25" stroke-miterlimit="10"/>
<path d="M-54.291 234.176C-35.2544 221.237 -26.3463 234.34 -7.30965 221.419C11.727 208.499 2.80073 195.359 21.8374 182.402C40.874 169.445 49.7821 182.566 68.8187 169.645C87.8554 156.725 78.9473 143.585 97.9658 130.628C116.984 117.671 125.91 130.792 144.947 117.872C163.984 104.951 155.076 91.8117 174.094 78.8546C193.113 65.8975 202.039 79.0186 221.076 66.0979C240.112 53.1773 231.204 40.0561 250.223 27.099C269.241 14.1419 278.167 27.2631 297.204 14.3424C316.241 1.42173 307.333 -11.7176 326.351 -24.6565C345.369 -37.5954 354.296 -24.4925 373.332 -37.4131C392.369 -50.3338 383.461 -63.4731 402.479 -76.412C421.498 -89.3509 430.424 -76.2662 449.461 -89.1687C468.497 -102.071 459.589 -115.229 478.608 -128.186" stroke="#716D65" stroke-width="7.25" stroke-miterlimit="10"/>
<path d="M-39.9004 255.352C-20.8637 242.413 -11.9557 255.516 7.08098 242.595C26.1176 229.675 17.2096 216.535 36.228 203.578C55.2464 190.621 64.1727 203.742 83.2094 190.821C102.246 177.901 93.338 164.761 112.356 151.823C131.375 138.884 140.301 151.968 159.338 139.066C178.374 126.164 169.466 113.006 188.485 100.049C207.503 87.0917 216.43 100.213 235.466 87.2922C254.503 74.3715 245.595 61.2322 264.613 48.2751C283.632 35.318 292.558 48.4391 311.595 35.5184C330.631 22.5978 321.723 9.47664 340.742 -3.48047C359.76 -16.4376 368.686 -3.31645 387.723 -16.2371C406.76 -29.1578 397.852 -42.2971 416.87 -55.236C435.888 -68.1749 444.815 -55.0902 463.851 -67.9926C482.888 -80.8951 473.98 -94.0527 492.998 -107.01" stroke="#716D65" stroke-width="7.25" stroke-miterlimit="10"/>
<path d="M-25.5059 276.546C-6.46921 263.589 2.43885 276.692 21.4755 263.789C40.5122 250.887 31.6041 237.729 50.6225 224.791C69.641 211.852 78.5672 224.936 97.5857 212.034C116.604 199.131 107.714 185.974 126.733 173.035C145.751 160.096 154.677 173.181 173.714 160.278C192.751 147.376 183.843 134.218 202.861 121.261C221.88 108.304 230.806 121.425 249.842 108.505C268.879 95.584 259.971 82.4446 278.99 69.4875C298.008 56.5304 306.934 69.6515 325.971 56.7309C345.008 43.8102 336.099 30.6891 355.118 17.732C374.136 4.77487 383.063 17.896 402.099 4.97533C421.136 -7.94533 412.228 -21.0847 431.246 -34.0236C450.265 -46.9625 459.191 -33.8778 478.228 -46.7802C497.264 -59.6827 488.356 -72.8403 507.375 -85.7974" stroke="#716D65" stroke-width="7.25" stroke-miterlimit="10"/>
<path d="M-11.1172 297.667C7.91947 284.71 16.8275 297.813 35.8642 284.911C54.9008 272.008 45.9928 258.851 65.0112 245.912C84.0297 232.973 92.9559 246.058 111.993 233.155C131.029 220.253 122.121 207.095 141.14 194.156C160.158 181.218 169.084 194.302 188.121 181.4C207.158 168.497 198.25 155.34 217.268 142.383C236.286 129.426 245.213 142.547 264.249 129.626C283.286 116.705 274.378 103.566 293.396 90.6089C312.415 77.6518 321.341 90.7729 340.378 77.8523C359.414 64.9316 350.506 51.8105 369.525 38.8534C388.543 25.8963 397.47 39.0174 416.506 26.0967C435.543 13.1761 426.635 0.0366875 445.653 -12.9022C464.672 -25.8411 473.598 -12.7382 492.653 -25.6588C511.708 -38.5795 502.781 -51.7188 521.8 -64.6759" stroke="#716D65" stroke-width="7.25" stroke-miterlimit="10"/>
<path d="M3.20312 318.898C22.2398 305.941 31.1478 319.044 50.1845 306.141C69.2211 293.239 60.3131 280.081 79.3315 267.143C98.35 254.204 107.276 267.307 126.313 254.386C145.35 241.465 136.441 228.326 155.46 215.387C174.478 202.448 183.405 215.533 202.441 202.63C221.478 189.728 212.57 176.57 231.588 163.632C250.607 150.693 259.533 163.777 278.57 150.875C297.606 137.972 288.698 124.815 307.717 111.858C326.735 98.9007 335.661 112.022 354.68 99.1012C373.698 86.1805 364.808 73.0411 383.827 60.084C402.845 47.1269 411.772 60.248 430.808 47.3274C449.845 34.4067 440.937 21.2856 459.955 8.32851C478.974 -4.6286 487.918 8.49253 506.955 -4.42813C525.992 -17.3488 517.083 -30.4881 536.102 -43.4453" stroke="#716D65" stroke-width="7.25" stroke-miterlimit="10"/>
<path d="M17.666 340.074C36.7027 327.117 45.6107 340.238 64.6474 327.318C83.684 314.397 74.776 301.258 93.7944 288.319C112.813 275.38 121.739 288.483 140.776 275.562C159.812 262.641 150.904 249.502 169.923 236.563C188.941 223.624 197.868 236.727 216.904 223.807C235.941 210.886 227.033 197.747 246.051 184.808C265.07 171.869 273.996 184.953 293.033 172.051C312.069 159.149 303.161 145.991 322.18 133.034C341.198 120.077 350.124 133.198 369.161 120.277C388.198 107.357 379.29 94.2172 398.308 81.2601C417.326 68.303 426.253 81.4241 445.289 68.5034C464.326 55.5828 455.418 42.4617 474.436 29.5046C493.455 16.5474 502.381 29.6686 521.418 16.7479C540.454 3.82725 531.546 -9.31209 550.565 -22.251" stroke="#716D65" stroke-width="7.25" stroke-miterlimit="10"/>
<path d="M32.0762 361.25C51.1128 348.293 60.0209 361.414 79.0575 348.494C98.0942 335.573 89.1679 322.434 108.205 309.495C127.241 296.556 136.149 309.659 155.186 296.738C174.223 283.817 165.315 270.678 184.333 257.739C203.351 244.8 212.278 257.903 231.314 244.983C250.351 232.062 241.443 218.923 260.461 205.984C279.48 193.045 288.406 206.129 307.443 193.227C326.479 180.325 317.571 167.167 336.59 154.228C355.608 141.289 364.534 154.374 383.571 141.471C402.608 128.569 393.7 115.411 412.718 102.454C431.737 89.4972 440.663 102.618 459.7 89.6977C478.736 76.777 469.828 63.6377 488.847 50.6806C507.865 37.7235 516.791 50.8446 535.828 37.9239C554.865 25.0033 545.957 11.8639 564.975 -1.07495" stroke="#716D65" stroke-width="7.25" stroke-miterlimit="10"/>
<path d="M46.4648 382.426C65.5015 369.469 74.4096 382.59 93.4462 369.67C112.483 356.749 103.575 343.628 122.593 330.671C141.612 317.714 150.538 330.835 169.575 317.914C188.611 304.993 179.703 291.872 198.722 278.915C217.74 265.958 226.666 279.079 245.703 266.159C264.74 253.238 255.832 240.099 274.85 227.16C293.868 214.221 302.795 227.324 321.831 214.403C340.868 201.482 331.96 188.343 350.978 175.404C369.997 162.465 378.923 175.55 397.96 162.648C416.996 149.745 408.088 136.588 427.107 123.649C446.125 110.71 455.052 123.794 474.088 110.892C493.125 97.9895 484.217 84.832 503.235 71.8749C522.254 58.9177 531.18 72.0389 550.217 59.1182C569.253 46.1975 560.345 33.0582 579.364 20.1193" stroke="#716D65" stroke-width="7.25" stroke-miterlimit="10"/>
<path d="M60.8594 403.602C79.896 390.663 88.8041 403.766 107.841 390.846C126.877 377.925 117.969 364.804 136.988 351.847C156.006 338.89 164.932 352.011 183.951 339.09C202.969 326.17 194.08 313.048 213.098 300.091C232.116 287.134 241.043 300.255 260.079 287.335C279.116 274.414 270.208 261.275 289.226 248.336C308.245 235.397 317.171 248.5 336.208 235.579C355.244 222.658 346.336 209.519 365.355 196.58C384.373 183.641 393.299 196.726 412.336 183.824C431.373 170.921 422.465 157.764 441.483 144.825C460.502 131.886 469.428 144.97 488.465 132.068C507.501 119.166 498.593 106.008 517.612 93.0509C536.63 80.0938 545.556 93.2149 564.593 80.2942C583.63 67.3736 574.722 54.2342 593.74 41.2953" stroke="#716D65" stroke-width="7.25" stroke-miterlimit="10"/>
<path d="M75.248 424.778C94.2847 411.839 103.193 424.942 122.229 412.022C141.266 399.101 132.358 385.98 151.376 373.023C170.395 360.066 179.321 373.187 198.358 360.266C217.394 347.346 208.486 334.224 227.505 321.267C246.523 308.31 255.45 321.431 274.486 308.511C293.523 295.59 284.615 282.469 303.633 269.512C322.652 256.555 331.578 269.676 350.615 256.755C369.651 243.834 360.743 230.695 379.762 217.756C398.78 204.817 407.706 217.92 426.743 205C445.78 192.079 436.872 178.94 455.89 166.001C474.908 153.062 483.835 166.146 502.871 153.244C521.908 140.342 513 127.184 532.018 114.227C551.037 101.27 559.963 114.391 579.018 101.47C598.073 88.5496 589.147 75.4285 608.165 62.4714" stroke="#716D65" stroke-width="7.25" stroke-miterlimit="10"/>
<path d="M89.6387 445.954C108.675 433.015 117.583 446.118 136.62 433.198C155.657 420.277 146.749 407.156 165.767 394.199C184.786 381.242 193.712 394.363 212.748 381.442C231.785 368.521 222.877 355.382 241.895 342.425C260.914 329.468 269.84 342.589 288.877 329.668C307.914 316.748 299.005 303.627 318.024 290.67C337.042 277.712 345.969 290.834 365.005 277.913C384.042 264.992 375.134 251.853 394.152 238.914C413.171 225.975 422.097 239.078 441.134 226.157C460.17 213.237 451.244 200.097 470.281 187.158C489.317 174.22 498.225 187.304 517.262 174.402C536.299 161.499 527.391 148.342 546.409 135.403C565.428 122.464 574.372 135.549 593.409 122.646C612.445 109.744 603.537 96.5863 622.556 83.6292" stroke="#716D65" stroke-width="7.25" stroke-miterlimit="10"/>
<path d="M104.033 467.149C123.07 454.21 131.978 467.313 151.015 454.392C170.051 441.471 161.143 428.332 180.162 415.375C199.18 402.418 208.106 415.539 227.143 402.618C246.18 389.698 237.272 376.558 256.29 363.601C275.308 350.644 284.235 363.765 303.271 350.844C322.308 337.924 313.4 324.784 332.418 311.827C351.437 298.87 360.363 311.991 379.4 299.071C398.436 286.15 389.528 273.029 408.547 260.072C427.565 247.115 436.491 260.236 455.528 247.315C474.565 234.395 465.657 221.255 484.675 208.316C503.694 195.377 512.62 208.48 531.657 195.56C550.693 182.639 541.785 169.5 560.804 156.561C579.822 143.622 588.748 156.707 607.785 143.804C626.822 130.902 617.914 117.744 636.932 104.787" stroke="#716D65" stroke-width="7.25" stroke-miterlimit="10"/>
<path d="M118.441 488.306C137.478 475.368 146.386 488.47 165.423 475.55C184.459 462.629 175.533 449.49 194.57 436.533C213.606 423.576 222.515 436.697 241.551 423.776C260.588 410.855 251.68 397.716 270.698 384.759C289.717 371.802 298.643 384.923 317.68 372.002C336.716 359.082 327.808 345.942 346.827 332.985C365.845 320.028 374.771 333.149 393.808 320.229C412.845 307.308 403.937 294.187 422.955 281.23C441.973 268.273 450.9 281.394 469.936 268.473C488.973 255.552 480.065 242.431 499.083 229.474C518.102 216.517 527.028 229.638 546.065 216.717C565.101 203.797 556.193 190.657 575.212 177.719C594.23 164.78 603.157 177.864 622.193 164.962C641.23 152.059 632.322 138.902 651.34 125.945" stroke="#716D65" stroke-width="7.25" stroke-miterlimit="10"/>
<path d="M132.836 509.501C151.873 496.543 160.781 509.646 179.817 496.744C198.854 483.842 189.946 470.684 208.964 457.745C227.983 444.806 236.909 457.891 255.946 444.988C274.982 432.086 266.074 418.928 285.093 405.99C304.111 393.051 313.037 406.135 332.074 393.233C351.111 380.33 342.203 367.173 361.221 354.216C380.24 341.259 389.166 354.38 408.203 341.459C427.239 328.538 418.331 315.399 437.35 302.442C456.368 289.485 465.294 302.606 484.331 289.685C503.368 276.765 494.459 263.644 513.478 250.687C532.496 237.729 541.423 250.851 560.459 237.93C579.496 225.009 570.588 211.87 589.606 198.931C608.625 185.992 617.551 199.077 636.588 186.174C655.624 173.272 646.716 160.114 665.735 147.157" stroke="#716D65" stroke-width="7.25" stroke-miterlimit="10"/>
<path d="M147.225 530.677C166.261 517.72 175.169 530.823 194.206 517.92C213.243 505.018 204.335 491.86 223.353 478.921C242.371 465.982 251.298 479.067 270.316 466.165C289.335 453.262 280.445 440.105 299.463 427.166C318.482 414.227 327.408 427.311 346.445 414.409C365.481 401.507 356.573 388.349 375.592 375.392C394.61 362.435 403.536 375.556 422.573 362.635C441.61 349.715 432.702 336.575 451.72 323.618C470.738 310.661 479.665 323.782 498.701 310.862C517.738 297.941 508.83 284.82 527.848 271.863C546.867 258.906 555.793 272.027 574.83 259.106C593.866 246.185 584.958 233.046 603.977 220.107C622.995 207.168 631.921 220.253 650.958 207.35C669.995 194.448 661.087 181.29 680.105 168.333" stroke="#716D65" stroke-width="7.25" stroke-miterlimit="10"/>
<path d="M161.689 551.853C180.726 538.896 189.634 551.999 208.671 539.096C227.707 526.194 218.799 513.036 237.818 500.097C256.836 487.158 265.763 500.243 284.799 487.341C303.836 474.438 294.928 461.281 313.946 448.342C332.965 435.403 341.891 448.488 360.928 435.585C379.964 422.683 371.056 409.525 390.075 396.586C409.093 383.647 418.019 396.732 437.056 383.83C456.093 370.927 447.185 357.77 466.203 344.812C485.222 331.855 494.148 344.976 513.184 332.056C532.221 319.135 523.313 305.996 542.331 293.039C561.35 280.082 570.276 293.203 589.313 280.282C608.349 267.361 599.441 254.24 618.46 241.283C637.478 228.326 646.405 241.447 665.459 228.527C684.514 215.606 675.588 202.467 694.607 189.509" stroke="#716D65" stroke-width="7.25" stroke-miterlimit="10"/>
<path d="M176.008 573.029C195.044 560.072 203.953 573.175 222.989 560.272C242.026 547.37 233.118 534.212 252.136 521.273C271.155 508.334 280.081 521.437 299.118 508.517C318.154 495.596 309.246 482.457 328.265 469.518C347.283 456.579 356.209 469.682 375.246 456.761C394.283 443.84 385.375 430.701 404.393 417.762C423.411 404.823 432.338 417.908 451.374 405.006C470.411 392.103 461.503 378.946 480.521 365.988C499.54 353.031 508.466 366.152 527.485 353.232C546.503 340.311 537.613 327.172 556.632 314.215C575.65 301.258 584.576 314.379 603.613 301.458C622.65 288.537 613.742 275.416 632.76 262.459C651.778 249.502 660.723 262.623 679.76 249.702C698.796 236.782 689.888 223.642 708.907 210.704" stroke="#716D65" stroke-width="7.25" stroke-miterlimit="10"/>
<path d="M190.402 594.205C209.439 581.248 218.347 594.369 237.384 581.448C256.42 568.528 247.512 555.388 266.531 542.449C285.549 529.511 294.475 542.613 313.512 529.693C332.549 516.772 323.641 503.633 342.659 490.694C361.678 477.755 370.604 490.858 389.641 477.937C408.677 465.016 399.769 451.877 418.788 438.938C437.806 425.999 446.732 439.084 465.769 426.182C484.806 413.279 475.898 400.122 494.916 387.164C513.934 374.207 522.861 387.329 541.897 374.408C560.934 361.487 552.026 348.348 571.044 335.391C590.063 322.434 598.989 335.555 618.026 322.634C637.062 309.713 628.154 296.592 647.173 283.635C666.191 270.678 675.118 283.799 694.154 270.879C713.191 257.958 704.283 244.819 723.301 231.88" stroke="#716D65" stroke-width="7.25" stroke-miterlimit="10"/>
<path d="M204.811 615.381C223.847 602.424 232.755 615.545 251.774 602.624C270.792 589.704 261.902 576.564 280.921 563.625C299.939 550.686 308.865 563.789 327.902 550.869C346.939 537.948 338.031 524.809 357.049 511.87C376.068 498.931 384.994 512.034 404.03 499.113C423.067 486.192 414.159 473.053 433.178 460.114C452.196 447.175 461.122 460.26 480.159 447.358C499.196 434.455 490.288 421.298 509.306 408.359C528.324 395.42 537.251 408.505 556.287 395.602C575.324 382.7 566.416 369.542 585.434 356.585C604.453 343.628 613.379 356.749 632.416 343.828C651.452 330.908 642.544 317.768 661.563 304.811C680.581 291.854 689.507 304.975 708.544 292.055C727.581 279.134 718.673 265.995 737.691 253.056" stroke="#716D65" stroke-width="7.25" stroke-miterlimit="10"/>
</g>
</g>
</g>
</svg>
