<svg width="559" height="371" viewBox="0 0 559 371" fill="none" xmlns="http://www.w3.org/2000/svg">
<g opacity="0.3">
<mask id="mask0_7_7" style="mask-type:luminance" maskUnits="userSpaceOnUse" x="0" y="0" width="559" height="371">
<path d="M356.027 0.5C408.901 0.5 459.635 19.3643 497.424 52.9961L499.214 54.6094C536.884 88.9782 558.166 135.486 558.496 184.038L558.5 185.186C558.479 193.414 557.866 201.632 556.669 209.788L552.211 231.043C541.212 270.125 516.494 304.839 481.849 329.892L480.191 331.078C444.673 356.218 400.992 369.867 356.027 369.871H275.695C322.166 365.443 365.785 346.517 398.982 315.989C436.793 281.219 458.023 234.215 458.029 185.214L458.025 184.065C457.704 136.253 437.184 90.4174 400.785 56.0879L399.025 54.4492C365.81 23.887 322.153 4.943 275.64 0.522461L356.027 0.5ZM254.148 0.52832V369.899H153.647V185.494L154.109 185.214L153.647 184.932V0.52832H254.148ZM152.185 185.213L1.41016 276.931V93.5234L152.185 185.213Z" fill="white" stroke="white"/>
</mask>
<g mask="url(#mask0_7_7)">
<path d="M-90.5244 146.043C-72.6844 134.876 -64.3305 146.183 -46.4599 135.099C-28.5892 124.015 -36.9737 112.764 -19.1031 101.736C-1.23248 90.7082 7.0908 101.876 24.9614 90.792C42.8321 79.7082 34.4476 68.4568 52.3182 57.4289C70.1888 46.4009 78.5121 57.5685 96.3827 46.4847C114.253 35.4009 105.869 24.1496 123.739 13.1217C141.61 2.09374 149.964 13.1216 167.804 2.17746C185.644 -8.76673 177.321 -20.1576 195.161 -31.3252C213.001 -42.4927 221.385 -31.1856 239.225 -42.2414C257.065 -53.2973 248.742 -64.5765 266.582 -75.7441C284.422 -86.9116 292.807 -75.6044 310.677 -86.6882C328.548 -97.772 320.163 -109.023 338.034 -120.051C355.905 -131.079 364.258 -119.912 382.129 -130.995C400 -142.079 391.646 -153.331 409.516 -164.498" stroke="white" stroke-width="5" stroke-miterlimit="10"/>
<path d="M-77.0303 164.163C-59.1596 152.996 -50.8057 164.163 -32.9657 153.219C-15.1257 142.275 -23.449 130.884 -5.60899 119.856C12.231 108.828 20.6156 119.995 38.4556 108.912C56.2956 97.8278 47.9417 86.5765 65.8123 75.5485C83.683 64.5206 92.0369 75.6882 109.877 64.6044C127.717 53.5206 119.394 42.2693 137.234 31.2413C155.074 20.2134 163.458 31.2414 181.298 20.2972C199.138 9.353 190.815 -2.0379 208.839 -13.2054C226.862 -24.373 235.032 -13.0659 252.872 -24.1217C270.712 -35.1776 262.389 -46.4568 280.229 -57.6244C298.069 -68.7919 306.454 -57.4848 324.324 -68.5686C342.195 -79.6524 333.841 -90.9036 351.681 -101.932C369.521 -112.96 377.906 -101.792 395.776 -112.876C413.647 -123.96 405.293 -135.211 423.317 -146.378" stroke="white" stroke-width="5" stroke-miterlimit="10"/>
<path d="M-63.5371 182.282C-45.6665 171.114 -37.3126 182.282 -19.4419 171.337C-1.57132 160.393 -9.95585 149.002 7.88417 137.974C25.7242 126.947 34.1087 137.974 51.9488 127.03C69.7888 116.086 61.4654 104.695 79.3055 93.6673C97.1455 82.6393 105.53 93.6672 123.401 82.7231C141.271 71.7789 132.887 60.3879 150.727 49.36C168.567 38.332 176.951 49.36 194.822 38.4158C212.693 27.4716 204.308 16.0808 222.179 4.91321C240.049 -6.25433 248.373 4.9132 266.243 -6.00307C284.114 -16.9193 275.729 -28.3382 293.6 -39.5057C311.471 -50.6732 319.824 -39.3661 337.664 -50.4499C355.504 -61.5337 347.181 -72.785 365.021 -83.8129C382.861 -94.8409 391.246 -83.6734 409.116 -94.7571C426.987 -105.841 418.633 -117.092 436.504 -128.26" stroke="white" stroke-width="5" stroke-miterlimit="10"/>
<path d="M-50.0107 200.401C-32.1707 189.234 -23.8168 200.541 -5.94621 189.457C11.9244 178.373 3.53991 167.122 21.4105 155.954C39.2812 144.787 47.6045 156.094 65.4751 145.01C83.3457 133.926 74.9612 122.675 92.8319 111.647C110.702 100.619 119.026 111.647 136.896 100.703C154.767 89.7588 146.383 78.3679 164.253 67.3399C182.124 56.312 190.447 67.34 208.318 56.3958C226.188 45.4516 217.834 34.0607 235.674 22.8932C253.514 11.7256 261.899 22.8932 279.739 11.9769C297.579 1.06063 289.225 -10.3582 307.096 -21.5257C324.966 -32.6933 333.32 -21.5258 351.191 -32.47C369.061 -43.4141 360.677 -54.805 378.548 -65.8329C396.418 -76.8609 404.772 -65.833 422.643 -76.7772C440.513 -87.7214 432.159 -99.1122 450.03 -110.28" stroke="white" stroke-width="5" stroke-miterlimit="10"/>
<path d="M-36.5117 218.521C-18.6717 207.354 -10.2872 218.661 7.55281 207.577C25.3928 196.493 17.0389 185.242 34.9096 174.214C52.7802 163.186 61.1035 174.354 78.9741 163.27C96.8447 152.186 88.4602 140.935 106.331 129.767C124.201 118.6 132.555 129.907 150.395 118.823C168.235 107.739 159.912 96.488 177.752 85.3204C195.592 74.1529 203.977 85.3205 221.817 74.3763C239.657 63.4321 231.333 52.0412 249.173 40.8737C267.013 29.7061 275.398 41.0132 293.238 29.9574C311.078 18.9015 302.755 7.62229 320.595 -3.54525C338.435 -14.7128 346.819 -3.40569 364.69 -14.4895C382.56 -25.5733 374.176 -36.8245 392.047 -47.8525C409.917 -58.8804 418.271 -47.8525 436.142 -58.7967C454.012 -69.7409 445.658 -81.1318 463.529 -92.2993" stroke="white" stroke-width="5" stroke-miterlimit="10"/>
<path d="M-22.9014 236.64C-5.03074 225.473 3.32314 236.78 21.1632 225.696C39.0032 214.612 30.6799 203.361 48.5199 192.333C66.3599 181.305 74.7445 192.473 92.5845 181.389C110.425 170.305 102.101 159.054 119.941 148.026C137.781 136.998 146.166 148.166 164.006 137.082C181.846 125.998 173.523 114.747 191.363 103.719C209.203 92.6908 217.587 103.719 235.458 92.7746C253.328 81.8304 244.944 70.4395 262.814 59.272C280.685 48.1045 289.008 59.4116 306.879 48.3557C324.75 37.2999 316.365 26.0206 334.236 14.8531C352.106 3.68555 360.43 14.9926 378.3 3.90886C396.171 -7.17492 387.817 -18.4262 405.657 -29.5938C423.497 -40.7613 431.882 -29.4541 449.752 -40.5379C467.623 -51.6217 459.269 -62.873 477.14 -74.0405" stroke="white" stroke-width="5" stroke-miterlimit="10"/>
<path d="M-9.49609 254.759C8.34393 243.592 16.6978 254.899 34.5684 243.815C52.4391 232.731 44.0546 221.48 61.8946 210.452C79.7346 199.424 88.1191 210.592 105.99 199.508C123.86 188.424 115.476 177.173 133.316 166.145C151.156 155.117 159.54 166.284 177.411 155.2C195.282 144.117 186.897 132.865 204.768 121.838C222.638 110.81 230.962 121.837 248.832 110.893C266.703 99.9491 258.318 88.5582 276.189 77.3907C294.06 66.2231 302.414 77.5302 320.254 66.4744C338.094 55.4185 329.74 44.1393 347.61 32.9717C365.481 21.8042 373.835 33.1114 391.675 22.0276C409.515 10.9438 401.192 -0.307512 419.062 -11.3355C436.933 -22.3634 445.287 -11.1958 463.157 -22.2796C481.028 -33.3634 472.644 -44.6147 490.514 -55.7822" stroke="white" stroke-width="5" stroke-miterlimit="10"/>
<path d="M4 272.879C21.84 261.711 30.194 273.018 48.0646 261.935C65.9352 250.851 57.5507 239.6 75.4213 228.572C93.292 217.544 101.615 228.711 119.486 217.627C137.356 206.544 128.972 195.292 146.843 184.264C164.713 173.236 173.037 184.404 190.907 173.32C208.778 162.236 200.393 150.985 218.264 139.957C236.135 128.929 244.488 139.957 262.328 129.013C280.169 118.069 271.845 106.678 289.685 95.5104C307.525 84.3428 315.91 95.65 333.75 84.5941C351.59 73.5382 343.266 62.259 361.106 51.0915C378.947 39.9239 387.331 51.231 405.202 40.1472C423.072 29.0635 414.688 17.8121 432.558 6.78417C450.429 -4.24377 458.783 6.92382 476.654 -4.15997C494.524 -15.2438 486.17 -26.4951 504.041 -37.6626" stroke="white" stroke-width="5" stroke-miterlimit="10"/>
<path d="M17.4932 290.999C35.3638 279.831 43.7177 290.999 61.5577 280.055C79.3978 269.111 71.0744 257.72 88.9144 246.692C106.754 235.664 115.139 246.692 132.979 235.748C150.819 224.803 142.465 213.413 160.336 202.385C178.206 191.357 186.56 202.524 204.4 191.44C222.24 180.357 213.917 169.105 231.757 158.077C249.597 147.049 257.982 158.077 275.852 147.133C293.723 136.189 285.338 124.798 303.209 113.63C321.08 102.463 329.403 113.77 347.243 102.714C365.083 91.6583 356.76 80.3791 374.6 69.2116C392.44 58.044 400.824 69.3511 418.695 58.2674C436.565 47.1836 428.211 35.9323 446.052 24.9044C463.892 13.8764 472.276 25.0439 490.147 13.9601C508.017 2.87636 499.663 -8.37494 517.534 -19.5425" stroke="white" stroke-width="5" stroke-miterlimit="10"/>
<path d="M30.9893 309.118C48.8599 297.95 57.2138 309.257 75.0844 298.173C92.955 287.09 84.5705 275.838 102.411 264.671C120.251 253.503 128.635 264.81 146.475 253.727C164.315 242.643 155.992 231.391 173.832 220.363C191.672 209.336 200.056 220.364 217.927 209.419C235.798 198.475 227.413 187.084 245.284 176.056C263.154 165.028 271.478 176.056 289.348 165.112C307.219 154.168 298.834 142.777 316.705 131.609C334.576 120.442 342.899 131.609 360.77 120.693C378.64 109.777 370.256 98.3581 388.126 87.1906C405.997 76.023 414.351 87.1905 432.191 76.2464C450.031 65.3022 441.708 53.9113 459.548 42.8834C477.388 31.8554 485.803 43.0229 503.643 31.9391C521.483 20.8554 513.159 9.60406 531.03 -1.56348" stroke="white" stroke-width="5" stroke-miterlimit="10"/>
<path d="M44.418 327.237C62.258 316.07 70.6119 327.377 88.4825 316.293C106.353 305.209 97.9686 293.958 115.839 282.79C133.71 271.623 142.033 282.93 159.904 271.846C177.774 260.762 169.39 249.511 187.261 238.343C205.131 227.176 213.454 238.483 231.325 227.399C249.196 216.315 240.811 205.064 258.682 193.897C276.552 182.729 284.876 193.897 302.746 182.952C320.617 172.008 312.263 160.617 330.103 149.45C347.943 138.282 356.328 149.589 374.168 138.533C392.008 127.478 383.684 116.198 401.524 105.031C419.365 93.8633 427.749 105.17 445.62 94.0867C463.49 83.0029 455.106 71.7516 472.976 60.7236C490.847 49.6957 499.201 60.7237 517.071 49.7795C534.942 38.8353 526.588 27.4444 544.459 16.2769" stroke="white" stroke-width="5" stroke-miterlimit="10"/>
<path d="M58.0088 345.357C75.8794 334.189 84.2333 345.496 102.073 334.413C119.913 323.329 111.559 312.078 129.43 301.05C147.301 290.022 155.655 301.189 173.495 290.105C191.335 279.022 182.981 267.77 200.851 256.742C218.722 245.714 227.076 256.882 244.916 245.798C262.756 234.714 254.433 223.463 272.273 212.296C290.113 201.128 298.497 212.295 316.337 201.351C334.177 190.407 325.854 179.016 343.694 167.849C361.534 156.681 369.919 167.988 387.759 156.932C405.599 145.877 397.275 134.597 415.115 123.43C432.955 112.262 441.34 123.569 459.21 112.486C477.081 101.402 468.696 90.1505 486.567 78.983C504.438 67.8154 512.792 79.1225 530.662 68.0388C548.533 56.955 540.179 45.7037 558.203 34.5361" stroke="white" stroke-width="5" stroke-miterlimit="10"/>
<path d="M71.5049 363.475C89.3755 352.308 97.7294 363.615 115.569 352.531C133.409 341.448 125.086 330.196 142.926 319.168C160.766 308.14 169.151 319.308 186.991 308.224C204.831 297.14 196.507 285.889 214.347 274.861C232.187 263.833 240.572 275.001 258.443 263.917C276.313 252.833 267.929 241.582 285.769 230.554C303.609 219.526 311.993 230.554 329.864 219.61C347.735 208.665 339.35 197.275 357.221 186.107C375.091 174.939 383.415 186.247 401.285 175.191C419.156 164.135 410.771 152.856 428.642 141.688C446.513 130.521 454.866 141.828 472.706 130.744C490.546 119.66 482.223 108.409 500.063 97.3808C517.903 86.3529 526.288 97.5205 544.158 86.4367C562.029 75.3529 553.675 64.1016 571.546 52.9341" stroke="white" stroke-width="5" stroke-miterlimit="10"/>
<path d="M85.0273 381.595C102.867 370.428 111.221 381.735 129.092 370.651C146.963 359.567 138.578 348.316 156.418 337.288C174.258 326.26 182.643 337.428 200.513 326.344C218.384 315.26 209.999 304.009 227.839 292.981C245.679 281.953 254.064 293.12 271.934 282.037C289.805 270.953 281.421 259.701 299.291 248.673C317.162 237.645 325.485 248.673 343.356 237.729C361.226 226.785 352.842 215.394 370.713 204.227C388.583 193.059 396.937 204.366 414.777 193.31C432.617 182.255 424.263 170.975 442.134 159.808C460.004 148.64 468.358 159.947 486.229 148.864C504.1 137.78 495.715 126.528 513.586 115.5C531.456 104.473 539.81 115.64 557.681 104.556C575.552 93.4726 567.167 82.2213 585.038 71.0537" stroke="white" stroke-width="5" stroke-miterlimit="10"/>
<path d="M98.5205 399.715C116.361 388.547 124.714 399.715 142.585 388.771C160.456 377.826 152.071 366.436 169.942 355.408C187.812 344.38 196.136 355.408 214.006 344.463C231.877 333.519 223.492 322.128 241.363 311.1C259.234 300.072 267.557 311.24 285.428 300.156C303.298 289.072 294.914 277.821 312.784 266.793C330.655 255.765 339.009 266.793 356.849 255.849C374.689 244.905 366.366 233.514 384.206 222.346C402.046 211.179 410.43 222.486 428.27 211.43C446.11 200.374 437.787 189.095 455.627 177.927C473.467 166.76 481.852 178.067 499.722 166.983C517.593 155.899 509.208 144.648 527.079 133.62C544.95 122.592 553.303 133.76 571.174 122.676C589.045 111.592 580.691 100.341 598.561 89.1733" stroke="white" stroke-width="5" stroke-miterlimit="10"/>
<path d="M112.017 417.833C129.887 406.666 138.241 417.973 156.081 406.889C173.921 395.806 165.598 384.554 183.438 373.526C201.278 362.498 209.662 373.526 227.502 362.582C245.342 351.638 237.019 340.247 254.859 329.219C272.699 318.191 281.084 329.219 298.924 318.275C316.764 307.331 308.44 295.94 326.28 284.912C344.12 273.884 352.505 284.912 370.376 273.968C388.246 263.023 379.862 251.633 397.732 240.465C415.603 229.297 423.926 240.465 441.766 229.549C459.606 218.632 451.283 207.214 469.154 196.046C487.024 184.879 495.348 196.046 513.218 185.102C531.089 174.158 522.735 162.767 540.575 151.739C558.415 140.711 566.799 151.878 584.67 140.795C602.541 129.711 594.187 118.46 612.057 107.292" stroke="white" stroke-width="5" stroke-miterlimit="10"/>
<path d="M125.513 435.953C143.383 424.786 151.737 436.093 169.608 425.009C187.478 413.925 179.094 402.674 196.934 391.507C214.774 380.339 223.159 391.646 240.999 380.562C258.839 369.479 250.515 358.227 268.355 347.06C286.195 335.892 294.58 347.199 312.45 336.116C330.321 325.032 321.937 313.78 339.807 302.753C357.678 291.725 366.001 302.753 383.872 291.808C401.742 280.864 393.358 269.473 411.228 258.306C429.099 247.138 437.422 258.445 455.293 247.389C473.164 236.334 464.779 225.054 482.65 213.887C500.52 202.719 508.874 213.887 526.714 202.943C544.554 191.998 536.231 180.608 554.071 169.58C571.911 158.552 580.326 169.58 598.197 158.635C616.067 147.691 607.683 136.3 625.554 125.133" stroke="white" stroke-width="5" stroke-miterlimit="10"/>
<path d="M139.042 454.072C156.882 442.905 165.236 454.212 183.107 443.128C200.977 432.044 192.593 420.793 210.463 409.765C228.334 398.737 236.657 409.904 254.528 398.821C272.398 387.737 264.014 376.486 281.885 365.458C299.755 354.43 308.079 365.597 325.949 354.513C343.82 343.43 335.435 332.178 353.306 321.011C371.176 309.843 379.53 321.011 397.37 310.067C415.21 299.122 406.887 287.732 424.727 276.564C442.567 265.396 450.952 276.704 468.792 265.648C486.632 254.592 478.308 243.313 496.148 232.145C513.988 220.978 522.373 232.285 540.244 221.201C558.114 210.117 549.73 198.866 567.6 187.698C585.471 176.531 593.825 187.838 611.695 176.754C629.566 165.67 621.212 154.419 639.083 143.251" stroke="white" stroke-width="5" stroke-miterlimit="10"/>
<path d="M152.535 472.192C170.406 461.025 178.76 472.332 196.6 461.248C214.44 450.164 206.086 438.913 223.956 427.885C241.827 416.857 250.181 428.025 268.021 416.941C285.861 405.857 277.507 394.606 295.378 383.578C313.248 372.55 321.602 383.717 339.442 372.634C357.282 361.55 348.959 350.299 366.799 339.271C384.639 328.243 393.024 339.271 410.864 328.326C428.704 317.382 420.38 305.991 438.22 294.824C456.06 283.656 464.445 294.963 482.285 283.908C500.125 272.852 491.802 261.572 509.642 250.405C527.482 239.237 535.866 250.545 553.737 239.461C571.607 228.377 563.223 217.126 581.094 206.098C598.964 195.07 607.318 206.237 625.189 195.154C643.059 184.07 634.705 172.818 652.576 161.651" stroke="white" stroke-width="5" stroke-miterlimit="10"/>
<path d="M166.031 490.311C183.902 479.144 192.256 490.451 210.096 479.367C227.936 468.283 219.613 457.032 237.453 446.004C255.293 434.976 263.677 446.144 281.517 435.06C299.357 423.976 291.034 412.725 308.874 401.697C326.714 390.669 335.098 401.837 352.969 390.753C370.84 379.669 362.455 368.418 380.295 357.39C398.135 346.362 406.52 357.39 424.39 346.446C442.261 335.501 433.876 324.11 451.747 312.943C469.618 301.775 477.941 313.082 495.812 302.027C513.682 290.971 505.298 279.692 523.168 268.524C541.039 257.356 549.393 268.664 567.233 257.58C585.073 246.496 576.75 235.245 594.59 224.217C612.43 213.189 620.814 224.356 638.685 213.273C656.555 202.189 648.201 190.938 666.072 179.77" stroke="white" stroke-width="5" stroke-miterlimit="10"/>
<path d="M179.554 508.431C197.394 497.263 205.748 508.431 223.618 497.486C241.489 486.542 233.104 475.151 250.975 464.123C268.846 453.095 277.169 464.263 295.04 453.179C312.91 442.095 304.526 430.844 322.396 419.816C340.267 408.788 348.59 419.956 366.461 408.872C384.331 397.788 375.947 386.537 393.818 375.509C411.688 364.481 420.011 375.509 437.882 364.565C455.753 353.621 447.399 342.23 465.239 331.062C483.079 319.895 491.463 331.202 509.303 320.146C527.143 309.09 518.79 297.811 536.66 286.643C554.531 275.476 562.885 286.783 580.755 275.699C598.626 264.615 590.241 253.364 608.112 242.336C625.983 231.308 634.337 242.476 652.207 231.392C670.078 220.308 661.724 209.057 679.564 197.889" stroke="white" stroke-width="5" stroke-miterlimit="10"/>
<path d="M193.047 526.466C210.887 515.299 219.271 526.606 237.111 515.522C254.951 504.438 246.598 493.187 264.468 482.159C282.339 471.131 290.662 482.159 308.533 471.215C326.403 460.271 318.019 448.88 335.889 437.852C353.76 426.824 362.114 437.852 379.954 426.908C397.794 415.963 389.471 404.573 407.311 393.545C425.151 382.517 433.535 393.545 451.375 382.6C469.215 371.656 460.892 360.265 478.732 349.098C496.572 337.93 504.956 349.098 522.797 338.181C540.637 327.265 532.313 315.846 550.153 304.679C567.993 293.511 576.378 304.819 594.248 293.735C612.119 282.651 603.735 271.4 621.605 260.372C639.476 249.344 647.83 260.511 665.7 249.427C683.571 238.344 675.217 227.092 693.241 215.925" stroke="white" stroke-width="5" stroke-miterlimit="10"/>
</g>
</g>
</svg>
