<svg width="381" height="289" viewBox="0 0 381 289" fill="none" xmlns="http://www.w3.org/2000/svg">
<g opacity="0.3">
<mask id="mask0_7_6" style="mask-type:luminance" maskUnits="userSpaceOnUse" x="0" y="0" width="436" height="289">
<path d="M277.485 0.574219C318.703 0.574219 358.252 15.2799 387.707 41.4951L389.103 42.7529C418.234 69.3315 434.789 105.222 435.3 142.738L435.312 144.526C435.295 150.938 434.819 157.342 433.886 163.697L430.409 180.27C421.836 210.729 402.571 237.786 375.566 257.313L374.274 258.237C346.588 277.834 312.537 288.476 277.485 288.479H216.999C251.815 284.719 284.462 270.522 309.675 247.902L311.066 246.639C340.582 219.497 357.156 182.803 357.161 144.548L357.148 142.756C356.649 105.752 340.66 70.3285 312.474 43.7451L311.101 42.4658C285.689 19.0838 252.448 4.4139 216.955 0.59082L277.485 0.574219ZM197.906 0.595703V288.5H119.731V144.829L120.193 144.548L119.731 144.267V0.595703H197.906ZM118.269 144.548L0.980469 215.895V73.2217L118.269 144.548Z" fill="white" stroke="white"/>
</mask>
<g mask="url(#mask0_7_6)">
<path d="M-70.8516 113.994C-56.9357 105.283 -50.4193 114.103 -36.4795 105.457C-22.5397 96.8113 -29.08 88.0348 -15.1402 79.4326C-1.20043 70.8304 5.29205 79.5415 19.2318 70.8957C33.1716 62.25 26.6314 53.4735 40.5711 44.8713C54.5109 36.2691 61.0034 44.9801 74.9432 36.3344C88.8829 27.6886 82.3427 18.9122 96.2825 10.31C110.222 1.70774 116.739 10.3099 130.655 1.77304C144.57 -6.76384 138.078 -15.6492 151.994 -24.3603C165.91 -33.0714 172.45 -24.2514 186.366 -32.8754C200.282 -41.4994 193.789 -50.2976 207.705 -59.0087C221.621 -67.7198 228.161 -58.8998 242.101 -67.5456C256.041 -76.1914 249.501 -84.9678 263.44 -93.5701C277.38 -102.172 283.897 -93.4611 297.836 -102.107C311.776 -110.753 305.26 -119.529 319.199 -128.24" stroke="white" stroke-width="5" stroke-miterlimit="10"/>
<path d="M-60.3252 128.127C-46.3854 119.416 -39.869 128.127 -25.9531 119.59C-12.0372 111.053 -18.5298 102.168 -4.61386 93.5659C9.30204 84.9637 15.8423 93.6748 29.7582 85.029C43.6741 76.3833 37.1577 67.6068 51.0975 59.0046C65.0373 50.4024 71.5536 59.1135 85.4695 50.4677C99.3854 41.822 92.893 33.0455 106.809 24.4433C120.725 15.841 127.265 24.4433 141.181 15.9064C155.097 7.36952 148.604 -1.51581 162.663 -10.2269C176.723 -18.938 183.096 -10.118 197.012 -18.742C210.927 -27.366 204.435 -36.1643 218.351 -44.8754C232.267 -53.5865 238.807 -44.7665 252.747 -53.4123C266.687 -62.0581 260.17 -70.8345 274.086 -79.4367C288.002 -88.0389 294.542 -79.3278 308.482 -87.9736C322.422 -96.6194 315.905 -105.396 329.965 -114.107" stroke="white" stroke-width="5" stroke-miterlimit="10"/>
<path d="M-49.7988 142.262C-35.8591 133.55 -29.3427 142.262 -15.4029 133.725C-1.46314 125.188 -8.00339 116.302 5.91251 107.7C19.8284 99.098 26.3687 107.7 40.2846 99.1633C54.2005 90.6264 47.7079 81.7411 61.6238 73.1389C75.5397 64.5367 82.08 73.1389 96.0198 64.602C109.96 56.0651 103.419 47.1798 117.335 38.5775C131.251 29.9753 137.791 38.5776 151.731 30.0407C165.671 21.5038 159.131 12.6185 173.07 3.90736C187.01 -4.80375 193.503 3.90735 207.442 -4.60776C221.382 -13.1229 214.842 -22.03 228.782 -30.7411C242.722 -39.4522 249.238 -30.6322 263.154 -39.278C277.07 -47.9238 270.577 -56.7002 284.493 -65.3024C298.409 -73.9046 304.949 -65.1935 318.889 -73.8393C332.829 -82.4851 326.312 -91.2615 340.252 -99.9727" stroke="white" stroke-width="5" stroke-miterlimit="10"/>
<path d="M-39.2412 156.395C-25.3253 147.684 -18.809 156.504 -4.86919 147.858C9.07058 139.212 2.53035 130.436 16.4701 121.725C30.4099 113.014 36.9024 121.834 50.8422 113.188C64.7819 104.542 58.2417 95.7656 72.1815 87.1633C86.1213 78.5611 92.6137 87.1633 106.554 78.6264C120.493 70.0895 113.953 61.2042 127.893 52.602C141.833 43.9997 148.325 52.602 162.265 44.0651C176.205 35.5282 169.688 26.6429 183.604 17.9318C197.52 9.22066 204.06 17.9318 217.976 9.41665C231.892 0.901544 225.376 -8.00557 239.315 -16.7167C253.255 -25.4278 259.772 -16.7167 273.711 -25.2536C287.651 -33.7905 281.111 -42.6758 295.051 -51.278C308.99 -59.8802 315.507 -51.278 329.447 -59.8149C343.386 -68.3518 336.87 -77.2371 350.81 -85.9482" stroke="white" stroke-width="5" stroke-miterlimit="10"/>
<path d="M-28.7217 170.529C-14.8058 161.818 -8.26556 170.638 5.65034 161.992C19.5662 153.346 13.0499 144.57 26.9897 135.967C40.9294 127.365 47.4219 136.076 61.3617 127.43C75.3014 118.785 68.7612 110.008 82.701 101.297C96.6408 92.586 103.157 101.406 117.073 92.7602C130.989 84.1144 124.496 75.338 138.412 66.6269C152.328 57.9157 158.868 66.6269 172.784 58.09C186.7 49.5531 180.208 40.6678 194.124 31.9567C208.04 23.2456 214.58 32.0656 228.496 23.4416C242.412 14.8176 235.919 6.01934 249.835 -2.69177C263.751 -11.4029 270.291 -2.58291 284.231 -11.2287C298.171 -19.8745 291.63 -28.6509 305.57 -37.2531C319.51 -45.8553 326.026 -37.2531 339.966 -45.79C353.906 -54.3269 347.39 -63.2122 361.329 -71.9233" stroke="white" stroke-width="5" stroke-miterlimit="10"/>
<path d="M-18.1016 184.663C-4.16179 175.952 2.35456 184.772 16.2705 176.126C30.1864 167.48 23.6939 158.704 37.6098 150.102C51.5257 141.499 58.0659 150.21 71.9818 141.565C85.8977 132.919 79.4052 124.142 93.3211 115.54C107.237 106.938 113.777 115.649 127.693 107.003C141.609 98.3576 135.117 89.5811 149.032 80.9789C162.948 72.3767 169.489 80.9789 183.428 72.442C197.368 63.9051 190.828 55.0198 204.768 46.3087C218.707 37.5976 225.2 46.4176 239.14 37.7936C253.08 29.1696 246.539 20.3714 260.479 11.6603C274.419 2.94914 280.911 11.7691 294.851 3.12334C308.791 -5.52244 302.274 -14.2989 316.19 -23.01C330.106 -31.7211 336.647 -22.9011 350.586 -31.5468C364.526 -40.1926 358.01 -48.9691 371.949 -57.6802" stroke="white" stroke-width="5" stroke-miterlimit="10"/>
<path d="M-7.64551 198.796C6.27039 190.085 12.7867 198.905 26.7265 190.259C40.6663 181.614 34.1261 172.837 48.042 164.235C61.9579 155.633 68.4981 164.344 82.4378 155.698C96.3776 147.052 89.8374 138.276 103.753 129.674C117.669 121.071 124.209 129.782 138.149 121.137C152.089 112.491 145.549 103.714 159.488 95.1122C173.428 86.51 179.921 95.1122 193.861 86.5753C207.8 78.0384 201.26 69.1531 215.2 60.442C229.14 51.7308 235.656 60.5508 249.572 51.9268C263.488 43.3028 256.971 34.5046 270.911 25.7935C284.851 17.0824 291.367 25.9024 305.283 17.2567C319.199 8.61088 312.707 -0.165586 326.646 -8.76781C340.586 -17.37 347.103 -8.65888 361.042 -17.3047C374.982 -25.9504 368.442 -34.7269 382.382 -43.438" stroke="white" stroke-width="5" stroke-miterlimit="10"/>
<path d="M2.8877 212.93C16.8036 204.219 23.32 213.039 37.2598 204.393C51.1995 195.747 44.6593 186.971 58.5991 178.369C72.5388 169.766 79.0313 178.478 92.9711 169.832C106.911 161.186 100.371 152.41 114.31 143.807C128.25 135.205 134.743 143.916 148.682 135.27C162.622 126.625 156.082 117.848 170.022 109.246C183.961 100.644 190.478 109.246 204.394 100.709C218.31 92.1723 211.817 83.2869 225.733 74.5758C239.649 65.8647 246.189 74.6847 260.105 66.0607C274.021 57.4367 267.528 48.6385 281.444 39.9274C295.36 31.2163 301.901 40.0362 315.84 31.3904C329.78 22.7447 323.24 13.9682 337.18 5.36598C351.119 -3.23624 357.636 5.47491 371.576 -3.17087C385.515 -11.8166 378.999 -20.5931 392.939 -29.3042" stroke="white" stroke-width="5" stroke-miterlimit="10"/>
<path d="M13.4141 227.064C27.3538 218.353 33.8702 227.064 47.7861 218.527C61.702 209.99 55.2095 201.105 69.1254 192.502C83.0413 183.9 89.5816 192.502 103.497 183.966C117.413 175.429 110.897 166.543 124.837 157.941C138.777 149.339 145.293 158.05 159.209 149.404C173.125 140.758 166.632 131.982 180.548 123.38C194.464 114.778 201.004 123.38 214.944 114.843C228.884 106.306 222.344 97.4207 236.283 88.7096C250.223 79.9985 256.716 88.8185 270.631 80.1945C284.547 71.5705 278.055 62.7723 291.971 54.0612C305.887 45.35 312.427 54.17 326.367 45.5242C340.306 36.8785 333.79 28.1021 347.706 19.4998C361.622 10.8976 368.162 19.6087 382.102 10.9629C396.042 2.31714 389.525 -6.4593 403.465 -15.1704" stroke="white" stroke-width="5" stroke-miterlimit="10"/>
<path d="M23.9336 241.198C37.8734 232.486 44.3897 241.306 58.3295 232.661C72.2693 224.015 65.729 215.239 79.6449 206.527C93.5608 197.816 100.101 206.636 114.017 197.99C127.933 189.345 121.44 180.568 135.356 171.966C149.272 163.364 155.812 171.966 169.752 163.429C183.692 154.892 177.152 146.007 191.091 137.405C205.031 128.802 211.524 137.405 225.464 128.868C239.403 120.331 232.863 111.446 246.803 102.735C260.743 94.0234 267.235 102.734 281.175 94.2194C295.115 85.7043 288.574 76.7972 302.514 68.0861C316.454 59.3749 322.97 68.086 336.886 59.5491C350.802 51.0123 344.31 42.127 358.226 33.5247C372.141 24.9225 378.706 33.6336 392.621 24.9878C406.537 16.342 400.045 7.5656 413.985 -1.14551" stroke="white" stroke-width="5" stroke-miterlimit="10"/>
<path d="M34.4102 255.331C48.3261 246.62 54.8424 255.44 68.7822 246.794C82.722 238.149 76.1817 229.372 90.1215 220.661C104.061 211.95 110.554 220.77 124.494 212.124C138.433 203.478 131.893 194.702 145.833 185.991C159.773 177.28 166.265 186.1 180.205 177.454C194.145 168.808 187.604 160.032 201.544 151.321C215.484 142.61 221.976 151.321 235.916 142.784C249.856 134.247 243.34 125.362 257.256 116.65C271.171 107.939 277.712 116.759 291.628 108.135C305.544 99.5113 299.051 90.7131 312.967 82.002C326.883 73.2909 333.423 82.1109 347.363 73.4652C361.303 64.8194 354.762 56.0429 368.702 47.4407C382.642 38.8385 389.158 47.4407 403.098 38.9038C417.038 30.367 410.521 21.4816 424.461 12.7705" stroke="white" stroke-width="5" stroke-miterlimit="10"/>
<path d="M45.0068 269.466C58.9466 260.755 65.463 269.575 79.3789 260.929C93.2948 252.283 86.7784 243.507 100.718 234.904C114.658 226.302 121.174 235.013 135.09 226.367C149.006 217.722 142.49 208.945 156.43 200.343C170.369 191.741 176.886 200.452 190.802 191.806C204.717 183.16 198.225 174.384 212.141 165.673C226.057 156.962 232.597 165.673 246.513 157.136C260.429 148.599 253.936 139.714 267.852 131.003C281.768 122.291 288.308 131.111 302.224 122.487C316.14 113.863 309.648 105.065 323.564 96.3542C337.479 87.6431 344.02 96.463 357.959 87.8172C371.899 79.1715 365.359 70.395 379.299 61.6839C393.239 52.9728 399.755 61.7928 413.695 53.147C427.634 44.5012 421.118 35.7248 435.177 27.0137" stroke="white" stroke-width="5" stroke-miterlimit="10"/>
<path d="M55.5332 283.599C69.473 274.888 75.9893 283.708 89.9052 275.063C103.821 266.417 97.3286 257.64 111.245 249.038C125.16 240.436 131.701 249.147 145.617 240.501C159.532 231.855 153.04 223.079 166.956 214.477C180.872 205.875 187.412 214.586 201.352 205.94C215.292 197.294 208.751 188.518 222.667 179.915C236.583 171.313 243.123 179.915 257.063 171.379C271.003 162.842 264.463 153.956 278.402 145.245C292.342 136.534 298.835 145.354 312.774 136.73C326.714 128.106 320.174 119.308 334.114 110.597C348.054 101.886 354.57 110.706 368.486 102.06C382.402 93.4141 375.909 84.6376 389.825 76.0354C403.741 67.4332 410.281 76.1443 424.221 67.4986C438.161 58.8528 431.644 50.0763 445.584 41.3652" stroke="white" stroke-width="5" stroke-miterlimit="10"/>
<path d="M66.0879 297.733C80.0038 289.022 86.5201 297.842 100.46 289.196C114.4 280.55 107.859 271.774 121.775 263.171C135.691 254.569 142.231 263.28 156.171 254.635C170.111 245.989 163.571 237.212 177.487 228.61C191.403 220.008 197.943 228.719 211.883 220.073C225.822 211.427 219.282 202.651 233.222 194.049C247.162 185.447 253.654 194.049 267.594 185.512C281.534 176.975 274.994 168.09 288.933 159.378C302.873 150.667 309.389 159.487 323.305 150.863C337.221 142.239 330.705 133.441 344.645 124.73C358.584 116.019 365.101 124.839 379.041 116.193C392.98 107.547 386.44 98.7709 400.38 90.1687C414.32 81.5665 420.836 90.2776 434.776 81.6319C448.716 72.9861 442.175 64.2096 456.115 55.4985" stroke="white" stroke-width="5" stroke-miterlimit="10"/>
<path d="M76.6104 311.867C90.5263 303.155 97.0426 311.867 110.982 303.33C124.922 294.793 118.382 285.907 132.322 277.305C146.261 268.703 152.754 277.305 166.694 268.768C180.634 260.231 174.093 251.346 188.033 242.744C201.973 234.142 208.465 242.853 222.405 234.207C236.345 225.561 229.805 216.785 243.744 208.183C257.684 199.58 264.201 208.183 278.116 199.646C292.032 191.109 285.54 182.223 299.456 173.512C313.372 164.801 319.912 173.621 333.828 164.997C347.744 156.373 341.251 147.575 355.167 138.864C369.083 130.153 375.623 138.973 389.563 130.327C403.503 121.681 396.963 112.905 410.902 104.303C424.842 95.7004 431.358 104.411 445.298 95.7657C459.238 87.1199 452.722 78.3434 466.661 69.6323" stroke="white" stroke-width="5" stroke-miterlimit="10"/>
<path d="M87.1436 326C101.083 317.289 107.6 326.109 121.516 317.463C135.432 308.817 128.939 300.041 142.855 291.439C156.771 282.836 163.311 291.438 177.227 282.902C191.143 274.365 184.65 265.479 198.566 256.877C212.482 248.275 219.022 256.877 232.938 248.34C246.854 239.803 240.362 230.918 254.278 222.316C268.193 213.714 274.734 222.316 288.673 213.779C302.613 205.242 296.073 196.357 310.013 187.646C323.953 178.935 330.445 187.646 344.361 179.131C358.277 170.615 351.784 161.708 365.724 152.997C379.664 144.286 386.156 152.997 400.096 144.46C414.036 135.923 407.52 127.038 421.436 118.436C435.351 109.834 441.892 118.545 455.831 109.899C469.771 101.253 463.255 92.4767 477.195 83.7656" stroke="white" stroke-width="5" stroke-miterlimit="10"/>
<path d="M97.6631 340.134C111.603 331.423 118.119 340.243 132.059 331.597C145.999 322.951 139.459 314.175 153.374 305.464C167.29 296.753 173.831 305.573 187.746 296.927C201.662 288.281 195.17 279.505 209.086 270.794C223.002 262.083 229.542 270.903 243.482 262.257C257.421 253.611 250.881 244.835 264.821 236.232C278.761 227.63 285.253 236.232 299.193 227.695C313.133 219.159 306.593 210.273 320.532 201.562C334.472 192.851 340.965 201.671 354.904 193.047C368.844 184.423 362.304 175.625 376.244 166.914C390.183 158.203 396.7 166.914 410.616 158.377C424.532 149.84 418.039 140.955 431.955 132.352C445.871 123.75 452.435 132.352 466.375 123.815C480.315 115.279 473.774 106.393 487.714 97.6821" stroke="white" stroke-width="5" stroke-miterlimit="10"/>
<path d="M108.214 354.268C122.13 345.557 128.646 354.377 142.586 345.731C156.526 337.085 149.985 328.309 163.925 319.707C177.865 311.104 184.357 319.815 198.297 311.17C212.237 302.524 205.697 293.747 219.637 285.145C233.576 276.543 240.069 285.254 254.009 276.608C267.948 267.963 261.408 259.186 275.348 250.475C289.288 241.764 295.804 250.475 309.72 241.938C323.636 233.401 317.143 224.516 331.059 215.805C344.975 207.094 351.515 215.914 365.431 207.29C379.347 198.666 372.855 189.867 386.771 181.156C400.686 172.445 407.227 181.265 421.166 172.619C435.106 163.974 428.566 155.197 442.506 146.486C456.446 137.775 462.962 146.595 476.902 137.949C490.841 129.303 484.325 120.527 498.265 111.816" stroke="white" stroke-width="5" stroke-miterlimit="10"/>
<path d="M118.739 368.402C132.679 359.691 139.195 368.511 153.111 359.865C167.027 351.22 160.511 342.443 174.451 333.841C188.39 325.239 194.907 333.95 208.823 325.304C222.739 316.658 216.222 307.882 230.162 299.28C244.102 290.677 250.618 299.388 264.534 290.743C278.45 282.097 271.957 273.32 285.873 264.718C299.789 256.116 306.329 264.718 320.245 256.181C334.161 247.644 327.669 238.759 341.585 230.048C355.501 221.337 362.041 230.157 375.957 221.533C389.873 212.909 383.38 204.111 397.296 195.4C411.212 186.688 417.752 195.508 431.692 186.863C445.632 178.217 439.091 169.44 453.031 160.838C466.971 152.236 473.487 160.947 487.427 152.301C501.367 143.656 494.85 134.879 508.79 126.168" stroke="white" stroke-width="5" stroke-miterlimit="10"/>
<path d="M129.266 382.536C143.205 373.825 149.722 382.645 163.638 373.999C177.554 365.353 171.061 356.577 184.977 347.975C198.893 339.372 205.433 348.084 219.349 339.438C233.265 330.792 226.772 322.015 240.688 313.413C254.604 304.811 261.144 313.522 275.084 304.876C289.024 296.231 282.484 287.454 296.4 278.852C310.316 270.25 316.856 278.852 330.796 270.315C344.735 261.778 338.195 252.893 352.135 244.182C366.075 235.471 372.567 244.291 386.507 235.667C400.447 227.043 393.906 218.244 407.846 209.533C421.786 200.822 428.302 209.642 442.218 200.996C456.134 192.351 449.642 183.574 463.558 174.972C477.473 166.37 484.014 175.081 497.953 166.435C511.893 157.789 505.377 149.013 519.317 140.302" stroke="white" stroke-width="5" stroke-miterlimit="10"/>
<path d="M139.816 396.669C153.732 387.958 160.249 396.669 174.188 388.132C188.128 379.595 181.588 370.71 195.528 362.108C209.468 353.506 215.96 362.217 229.9 353.571C243.84 344.925 237.299 336.149 251.239 327.547C265.179 318.944 271.671 327.655 285.611 319.01C299.551 310.364 293.011 301.587 306.95 292.985C320.89 284.383 327.383 292.985 341.322 284.448C355.262 275.912 348.746 267.026 362.662 258.315C376.578 249.604 383.118 258.424 397.034 249.8C410.95 241.176 404.433 232.378 418.373 223.667C432.313 214.956 438.829 223.775 452.769 215.13C466.709 206.484 460.169 197.708 474.108 189.105C488.048 180.503 494.564 189.214 508.504 180.568C522.444 171.923 515.928 163.146 529.844 154.435" stroke="white" stroke-width="5" stroke-miterlimit="10"/>
<path d="M150.35 410.738C164.266 402.027 170.806 410.847 184.722 402.201C198.638 393.555 192.121 384.779 206.061 376.177C220.001 367.575 226.493 376.177 240.433 367.64C254.373 359.103 247.833 350.218 261.772 341.615C275.712 333.013 282.228 341.615 296.144 333.079C310.06 324.542 303.568 315.656 317.484 307.054C331.4 298.452 337.94 307.054 351.856 298.517C365.772 289.98 359.279 281.095 373.195 272.384C387.111 263.673 393.651 272.384 407.567 263.869C421.483 255.354 414.99 246.447 428.906 237.735C442.822 229.024 449.362 237.844 463.302 229.199C477.242 220.553 470.702 211.776 484.642 203.174C498.581 194.572 505.098 203.283 519.037 194.637C532.977 185.991 526.461 177.215 540.52 168.504" stroke="white" stroke-width="5" stroke-miterlimit="10"/>
</g>
</g>
</svg>
