<svg width="266" height="354" viewBox="0 0 266 354" fill="none" xmlns="http://www.w3.org/2000/svg">
<g opacity="0.1">
<mask id="mask0_20_6" style="mask-type:luminance" maskUnits="userSpaceOnUse" x="0" y="0" width="487" height="354">
<path d="M309.308 0.5C355.315 0.507475 399.465 18.5101 432.354 50.6104L433.911 52.1494C466.44 84.6962 484.937 128.655 485.507 174.618L485.521 176.809C485.502 184.657 484.969 192.496 483.922 200.274L480.036 220.603C470.458 257.918 448.935 291.053 418.78 314.963L417.338 316.095C386.423 340.088 348.407 353.112 309.279 353.116H239.766C279.377 348.879 316.579 331.381 345.191 303.228L346.744 301.682C379.677 268.467 398.152 223.577 398.143 176.794L398.129 174.603C397.559 128.618 379.146 84.6178 346.729 51.9287C317.917 22.874 280.084 4.81467 239.755 0.5H309.308ZM220.387 0.5V353.116H133.066V177.075L133.468 176.808L133.066 176.54V0.5H220.387ZM131.665 176.809L0.5 264.285V89.3447L131.665 176.809Z" fill="white" stroke="white"/>
</mask>
<g mask="url(#mask0_20_6)">
<path d="M-79.623 139.393C-64.0801 128.827 -56.8038 139.523 -41.2466 128.956C-25.6893 118.389 -32.98 107.679 -17.351 97.0973C-1.72195 86.5161 5.46824 97.2265 21.0255 86.6453C36.5827 76.0641 29.2921 65.368 44.835 54.7868C60.3779 44.2056 67.6686 54.9161 83.2258 44.3348C98.7831 33.7536 91.4924 23.0576 107.05 12.4764C122.607 1.89515 129.869 12.6056 145.426 2.02437C160.983 -8.55684 153.693 -19.2529 169.25 -29.8341C184.807 -40.4153 192.069 -29.7049 207.626 -40.2861C223.184 -50.8673 215.893 -61.5634 231.45 -72.1446C247.007 -82.7258 254.269 -72.0154 269.827 -82.5966C285.384 -93.1778 278.093 -103.888 293.651 -114.455C309.208 -125.022 316.484 -114.326 332.027 -124.907C347.57 -135.488 340.308 -146.199 355.865 -156.78" stroke="#716D65" stroke-width="7.52" stroke-miterlimit="10"/>
<path d="M-67.8691 156.694C-52.3119 146.127 -45.0356 156.823 -29.4927 146.256C-13.9498 135.689 -21.226 124.907 -5.6688 114.398C9.88846 103.888 17.1504 114.527 32.7077 103.946C48.2649 93.3645 40.9742 82.6541 56.5315 72.0872C72.0887 61.5204 79.3507 72.2164 94.9079 61.6352C110.465 51.054 103.203 40.3436 118.732 29.7767C134.26 19.2099 141.551 29.9059 157.108 19.3247C172.666 8.74352 165.375 -1.9669 180.932 -12.5338C196.489 -23.1006 203.766 -12.4045 219.309 -22.9857C234.852 -33.567 227.59 -44.263 243.132 -54.8442C258.675 -65.4254 265.966 -54.715 281.509 -65.2962C297.052 -75.8774 289.79 -86.5879 305.333 -97.1547C320.876 -107.722 328.166 -97.0255 343.723 -107.607C359.281 -118.188 351.99 -128.898 367.547 -139.48" stroke="#716D65" stroke-width="7.52" stroke-miterlimit="10"/>
<path d="M-56.1016 173.994C-40.5443 163.427 -33.268 174.123 -17.7251 163.557C-2.18221 152.99 -9.44412 142.265 6.09878 131.698C21.6417 121.131 28.9323 131.827 44.4752 121.246C60.0181 110.665 52.7561 99.9544 68.299 89.3876C83.8419 78.8207 91.1326 89.5168 106.675 78.9356C122.218 68.3544 114.956 57.6439 130.499 47.0771C146.042 36.5102 153.333 47.2063 168.876 36.6251C184.419 26.0439 177.157 15.3335 192.7 4.7666C208.243 -5.80025 215.533 4.89581 231.076 -5.68539C246.619 -16.2666 239.357 -26.977 254.9 -37.5439C270.443 -48.1107 277.734 -37.4147 293.291 -47.9959C308.848 -58.5771 301.557 -69.2875 317.115 -79.8544C332.672 -90.4212 339.934 -79.7252 355.491 -90.3064C371.048 -100.888 363.772 -111.598 379.315 -122.179" stroke="#716D65" stroke-width="7.52" stroke-miterlimit="10"/>
<path d="M-44.3477 191.294C-28.8048 180.728 -21.5285 191.424 -5.9712 180.857C9.58605 170.29 2.29542 159.565 17.8383 148.984C33.3812 138.403 40.6719 149.128 56.2148 138.546C71.7577 127.965 64.4957 117.255 80.0386 106.688C95.5815 96.121 102.872 106.817 118.415 96.2359C133.958 85.6547 126.696 74.9442 142.239 64.3774C157.782 53.8105 165.072 64.5066 180.63 53.9254C196.187 43.3442 188.896 32.6338 204.454 22.0669C220.011 11.5001 227.273 22.1961 242.83 11.6149C258.387 1.03369 251.097 -9.67673 266.654 -20.2436C282.211 -30.8104 289.473 -20.1144 305.03 -30.6956C320.588 -41.2768 313.297 -51.9872 328.854 -62.5541C344.411 -73.1209 351.688 -62.4248 367.231 -73.0061C382.774 -83.5873 375.512 -94.2977 391.069 -104.879" stroke="#716D65" stroke-width="7.52" stroke-miterlimit="10"/>
<path d="M-32.5938 208.595C-17.0508 198.014 -9.7602 208.724 5.78271 198.157C21.3256 187.59 14.0493 176.866 29.6065 166.284C45.1638 155.703 52.4258 166.414 67.9831 155.847C83.5403 145.28 76.2496 134.555 91.8069 123.988C107.364 113.421 114.626 124.117 130.183 113.536C145.741 102.955 138.45 92.2446 154.007 81.6778C169.564 71.1109 176.826 81.807 192.384 71.2258C207.941 60.6446 200.65 49.9341 216.207 39.3673C231.765 28.8004 239.041 39.4965 254.584 28.9153C270.127 18.3341 262.851 7.62367 278.408 -2.87139C293.965 -13.3665 301.256 -2.8714 316.784 -13.3952C332.313 -23.919 325.065 -34.6868 340.608 -45.2537C356.151 -55.8205 363.442 -45.1388 378.999 -55.7056C394.556 -66.2725 387.266 -76.9973 402.823 -87.5785" stroke="#716D65" stroke-width="7.52" stroke-miterlimit="10"/>
<path d="M-20.8398 225.895C-5.28259 215.314 1.99371 226.024 17.5366 215.458C33.0795 204.891 25.8175 194.166 41.3604 183.585C56.9033 173.003 64.1941 183.714 79.737 173.147C95.2799 162.58 88.0035 151.855 103.561 141.289C119.118 130.722 126.394 141.418 141.937 130.837C157.48 120.255 150.218 109.545 165.761 98.9781C181.304 88.4112 188.595 99.1073 204.138 88.5261C219.68 77.9449 212.418 67.2344 227.961 56.6532C243.504 46.072 250.795 56.7968 266.338 46.2156C281.881 35.6344 274.619 24.924 290.162 14.3571C305.705 3.79026 312.995 14.4863 328.538 3.90512C344.081 -6.67609 336.819 -17.3865 352.362 -27.9534C367.905 -38.5202 375.196 -27.8385 390.753 -38.4054C406.31 -48.9722 399.019 -59.697 414.577 -70.2782" stroke="#716D65" stroke-width="7.52" stroke-miterlimit="10"/>
<path d="M-9.07031 243.196C6.47259 232.614 13.7489 243.325 29.3061 232.744C44.8634 222.162 37.5727 211.466 53.1156 200.885C68.6585 190.304 75.9492 201.014 91.4921 190.447C107.035 179.881 99.773 169.156 115.316 158.575C130.859 147.993 138.149 158.718 153.692 148.137C169.235 137.556 162.045 126.845 177.516 116.293C192.987 105.74 200.35 116.422 215.893 105.855C231.436 95.2883 224.174 84.5636 239.731 73.9824C255.288 63.4011 262.55 74.1116 278.107 63.5447C293.665 52.9779 286.374 42.2531 301.931 31.6719C317.488 21.0907 324.75 31.8011 340.308 21.2342C355.865 10.6674 348.574 -0.0574043 364.132 -10.6386C379.689 -21.2198 386.965 -10.5094 402.508 -21.0763C418.051 -31.6431 410.789 -42.3679 426.346 -52.9491" stroke="#716D65" stroke-width="7.52" stroke-miterlimit="10"/>
<path d="M2.74219 260.496C18.2851 249.915 25.5614 260.625 41.1186 250.044C56.6759 239.463 49.3853 228.767 64.9425 218.185C80.4998 207.604 87.7617 218.315 103.319 207.748C118.876 197.181 111.586 186.456 127.143 175.875C142.7 165.294 149.962 176.004 165.519 165.437C181.077 154.87 173.728 144.146 189.314 133.521C204.9 122.897 212.134 133.651 227.691 123.084C243.248 112.517 235.958 101.792 251.515 91.2109C267.072 80.6297 274.334 91.3401 289.891 80.7732C305.448 70.2064 298.158 59.4816 313.715 48.9004C329.272 38.3192 336.549 49.0296 352.092 38.4628C367.634 27.8959 360.344 17.2286 375.887 6.63299C391.43 -3.96257 398.72 6.76221 414.277 -3.819C429.835 -14.4002 422.544 -25.0963 438.101 -35.6775" stroke="#716D65" stroke-width="7.52" stroke-miterlimit="10"/>
<path d="M14.4395 277.796C29.9967 267.215 37.273 277.925 52.8159 267.344C68.3588 256.763 61.0968 246.067 76.6397 235.486C92.1826 224.905 99.4733 235.615 115.016 225.048C130.559 214.481 123.283 203.756 138.84 193.175C154.397 182.594 161.659 193.304 177.217 182.738C192.774 172.171 185.483 161.446 201.04 150.865C216.598 140.284 223.874 150.994 239.417 140.427C254.96 129.86 247.698 119.136 263.241 108.554C278.784 97.9731 286.074 108.684 301.617 98.1167C317.16 87.5498 309.898 76.825 325.441 66.2438C340.984 55.6626 348.274 66.373 363.817 55.8062C379.36 45.2393 372.098 34.5146 387.641 23.9333C403.184 13.3521 410.475 24.0626 426.032 13.4814C441.589 2.90014 434.299 -7.79593 449.856 -18.3771" stroke="#716D65" stroke-width="7.52" stroke-miterlimit="10"/>
<path d="M26.207 295.097C41.7499 284.515 49.0263 295.226 64.5836 284.645C80.1408 274.063 72.8501 263.367 88.393 252.786C103.936 242.205 111.227 252.915 126.769 242.348C142.312 231.782 135.05 221.1 150.565 210.476C166.079 199.851 173.398 210.605 188.941 200.038C204.484 189.471 197.222 178.746 212.765 168.165C228.308 157.584 235.599 168.294 251.141 157.727C266.684 147.161 259.422 136.436 274.965 125.855C290.508 115.273 297.799 125.984 313.356 115.417C328.913 104.85 321.623 94.1254 337.18 83.5442C352.737 72.963 359.999 83.6734 375.556 73.1065C391.114 62.5397 383.823 51.8149 399.38 41.2337C414.937 30.6525 422.199 41.3629 437.757 30.7817C453.314 20.2005 446.038 9.50443 461.58 -1.07678" stroke="#716D65" stroke-width="7.52" stroke-miterlimit="10"/>
<path d="M37.9609 312.397C53.5038 301.816 60.7802 312.526 76.3375 301.945C91.8947 291.364 84.604 280.668 100.161 270.086C115.719 259.505 122.98 270.216 138.538 259.634C154.095 249.053 146.804 238.357 162.347 227.776C177.89 217.195 185.181 227.905 200.738 217.338C216.295 206.771 209.005 196.047 224.562 185.465C240.119 174.884 247.381 185.595 262.938 175.028C278.496 164.461 271.205 153.736 286.762 143.155C302.319 132.574 309.581 143.284 325.139 132.717C340.696 122.151 333.405 111.426 348.962 100.845C364.52 90.2633 371.782 100.974 387.339 90.3925C402.896 79.8113 395.605 69.1153 411.163 58.5341C426.72 47.9528 433.996 58.6633 449.539 48.0821C465.082 37.5008 457.82 26.8048 473.378 16.2236" stroke="#716D65" stroke-width="7.52" stroke-miterlimit="10"/>
<path d="M49.7148 329.697C65.2721 319.116 72.5484 329.826 88.0913 319.245C103.634 308.664 96.3723 297.968 111.915 287.387C127.458 276.806 134.749 287.516 150.292 276.935C165.835 266.354 158.558 255.658 174.115 245.076C189.673 234.495 196.935 245.206 212.492 234.624C228.049 224.043 220.759 213.347 236.316 202.766C251.873 192.185 259.149 202.895 274.692 192.328C290.235 181.761 282.973 171.037 298.516 160.455C314.059 149.874 321.35 160.585 336.893 150.003C352.435 139.422 345.174 128.726 360.716 118.145C376.259 107.564 383.55 118.274 399.093 107.693C414.636 97.1117 407.374 86.4156 422.917 75.8344C438.46 65.2532 445.75 75.9636 461.308 65.3824C476.865 54.8012 469.574 44.1051 485.131 33.5239" stroke="#716D65" stroke-width="7.52" stroke-miterlimit="10"/>
<path d="M61.4688 346.998C77.026 336.416 84.3023 347.127 99.8452 336.546C115.388 325.964 108.126 315.268 123.669 304.687C139.212 294.106 146.503 304.816 162.046 294.235C177.588 283.654 170.326 272.958 185.869 262.377C201.412 251.795 208.703 262.506 224.246 251.925C239.789 241.343 232.527 230.647 248.07 220.066C263.613 209.485 270.903 220.195 286.446 209.614C301.989 199.033 294.727 188.337 310.27 177.756C325.813 167.174 333.104 177.885 348.646 167.304C364.189 156.722 356.927 146.026 372.47 135.445C388.013 124.864 395.304 135.574 410.861 124.993C426.418 114.412 419.128 103.716 434.685 93.1347C450.242 82.5535 457.504 93.2639 473.061 82.6827C488.619 72.1015 481.342 61.4054 496.885 50.8242" stroke="#716D65" stroke-width="7.52" stroke-miterlimit="10"/>
<path d="M73.2363 364.298C88.7792 353.717 96.0555 364.427 111.613 353.846C127.17 343.265 119.879 332.569 135.437 321.988C150.994 311.406 158.256 322.117 173.813 311.536C189.37 300.954 182.08 290.258 197.623 279.677C213.165 269.096 220.456 279.806 236.013 269.225C251.571 258.644 244.28 247.948 259.837 237.367C275.395 226.785 282.656 237.496 298.214 226.915C313.771 216.333 306.48 205.637 322.038 195.056C337.595 184.475 344.857 195.185 360.414 184.604C375.971 174.023 368.681 163.327 384.238 152.746C399.795 142.164 407.057 152.875 422.614 142.294C438.172 131.712 430.881 121.016 446.438 110.435C461.995 99.8539 469.272 110.564 484.815 99.9831C500.358 89.4019 493.096 78.7058 508.653 68.1246" stroke="#716D65" stroke-width="7.52" stroke-miterlimit="10"/>
<path d="M84.9902 381.598C100.547 371.017 107.824 381.728 123.367 371.146C138.91 360.565 131.633 349.869 147.191 339.288C162.748 328.707 170.01 339.417 185.567 328.836C201.124 318.255 193.834 307.559 209.391 296.977C224.948 286.396 232.21 297.107 247.767 286.525C263.325 275.944 256.034 265.248 271.591 254.667C287.148 244.086 294.41 254.796 309.968 244.215C325.525 233.634 318.234 222.938 333.792 212.356C349.349 201.775 356.625 212.486 372.168 201.904C387.711 191.323 380.449 180.627 395.992 170.046C411.535 159.465 418.825 170.175 434.368 159.594C449.911 149.013 442.649 138.317 458.192 127.735C473.735 117.154 481.026 127.865 496.583 117.283C512.14 106.702 504.849 95.9918 520.407 85.425" stroke="#716D65" stroke-width="7.52" stroke-miterlimit="10"/>
<path d="M96.7441 398.899C112.301 388.317 119.578 399.028 135.121 388.447C150.663 377.865 143.402 367.169 158.944 356.588C174.487 346.007 181.778 356.717 197.321 346.136C212.864 335.555 205.602 324.859 221.145 314.278C236.688 303.697 243.978 314.407 259.521 303.826C275.064 293.245 267.802 282.548 283.345 271.967C298.888 261.386 306.179 272.096 321.722 261.515C337.264 250.934 330.002 240.238 345.545 229.657C361.088 219.076 368.379 229.786 383.922 219.205C399.465 208.624 392.203 197.928 407.746 187.346C423.289 176.765 430.579 187.476 446.136 176.894C461.694 166.313 454.403 155.617 469.96 145.036C485.518 134.455 492.78 145.165 508.337 134.584C523.894 124.003 516.618 113.292 532.161 102.725" stroke="#716D65" stroke-width="7.52" stroke-miterlimit="10"/>
<path d="M108.514 416.199C124.057 405.618 131.333 416.328 146.89 405.747C162.447 395.166 155.157 384.47 170.714 373.889C186.271 363.307 193.533 374.018 209.076 363.437C224.619 352.855 217.357 342.159 232.9 331.578C248.443 320.997 255.733 331.707 271.276 321.126C286.819 310.545 279.557 299.849 295.115 289.268C310.672 278.686 317.934 289.397 333.491 278.816C349.048 268.234 341.758 257.538 357.315 246.957C372.872 236.376 380.134 247.086 395.691 236.505C411.249 225.924 403.958 215.228 419.515 204.647C435.072 194.065 442.334 204.776 457.892 194.195C473.449 183.613 466.158 172.917 481.715 162.336C497.273 151.755 504.549 162.465 520.092 151.884C535.635 141.303 528.373 130.592 543.93 120.026" stroke="#716D65" stroke-width="7.52" stroke-miterlimit="10"/>
<path d="M120.268 433.499C135.825 422.918 143.101 433.629 158.644 423.047C174.187 412.466 166.911 401.756 182.468 391.189C198.025 380.622 205.287 391.318 220.844 380.737C236.402 370.156 229.111 359.46 244.668 348.878C260.225 338.297 267.487 349.008 283.045 338.426C298.602 327.845 291.311 317.149 306.868 306.568C322.426 295.987 329.688 306.697 345.245 296.116C360.802 285.535 353.512 274.839 369.069 264.257C384.626 253.676 391.902 264.387 407.445 253.805C422.988 243.224 415.712 232.528 431.269 221.947C446.826 211.366 454.103 222.076 469.645 211.495C485.188 200.914 477.927 190.218 493.469 179.636C509.012 169.055 516.303 179.766 531.86 169.184C547.418 158.603 540.127 147.893 555.684 137.312" stroke="#716D65" stroke-width="7.52" stroke-miterlimit="10"/>
<path d="M132.02 450.814C147.577 440.247 154.853 450.958 170.396 440.376C185.939 429.795 178.677 419.085 194.22 408.518C209.763 397.951 217.053 408.647 232.596 398.066C248.139 387.485 240.877 376.789 256.42 366.207C271.963 355.626 279.254 366.337 294.797 355.755C310.339 345.174 303.077 334.478 318.62 323.897C334.163 313.316 341.454 324.026 356.997 313.445C372.54 302.864 365.278 292.168 380.821 281.586C396.364 271.005 403.654 281.716 419.197 271.135C434.74 260.553 427.478 249.857 443.021 239.276C458.564 228.695 465.855 239.405 481.412 228.824C496.969 218.243 489.678 207.547 505.221 196.966C520.764 186.384 528.055 197.095 543.612 186.514C559.169 175.932 551.893 165.222 567.436 154.641" stroke="#716D65" stroke-width="7.52" stroke-miterlimit="10"/>
<path d="M143.789 468.043C159.332 457.476 166.608 468.172 182.166 457.605C197.723 447.038 190.432 436.313 205.975 425.747C221.518 415.18 228.809 425.876 244.351 415.295C259.894 404.713 252.632 394.017 268.175 383.436C283.718 372.855 291.009 383.565 306.552 372.984C322.095 362.403 314.833 351.707 330.376 341.126C345.919 330.544 353.209 341.255 368.766 330.674C384.324 320.092 377.033 309.396 392.59 298.815C408.148 288.234 415.409 298.944 430.967 288.363C446.524 277.782 439.233 267.086 454.791 256.505C470.348 245.923 477.61 256.634 493.167 246.053C508.724 235.471 501.434 224.775 516.991 214.194C532.548 203.613 539.825 214.323 555.367 203.742C570.91 193.161 563.648 182.45 579.206 171.869" stroke="#716D65" stroke-width="7.52" stroke-miterlimit="10"/>
<path d="M155.543 485.386C171.086 474.819 178.377 485.515 193.92 474.948C209.462 464.382 202.229 453.685 217.743 443.09C233.258 432.494 240.563 443.219 256.12 432.638C271.677 422.057 264.386 411.346 279.944 400.779C295.501 390.213 302.763 400.909 318.32 390.327C333.877 379.746 326.587 369.05 342.144 358.469C357.701 347.888 364.963 358.598 380.52 348.017C396.078 337.436 388.787 326.725 404.344 316.158C419.901 305.592 427.163 316.288 442.721 305.706C458.278 295.125 450.987 284.429 466.545 273.848C482.102 263.267 489.378 273.977 504.921 263.396C520.464 252.815 513.202 242.104 528.745 231.537C544.288 220.971 551.578 231.667 567.136 221.086C582.693 210.504 575.402 199.794 590.959 189.213" stroke="#716D65" stroke-width="7.52" stroke-miterlimit="10"/>
<path d="M167.299 502.686C182.856 492.12 190.132 502.816 205.675 492.249C221.218 481.682 213.956 470.914 229.499 460.39C245.042 449.867 252.333 460.52 267.876 449.938C283.419 439.357 276.142 428.647 291.7 418.08C307.257 407.513 314.533 418.209 330.076 407.628C345.619 397.047 338.357 386.336 353.9 375.769C369.443 365.203 376.733 375.899 392.276 365.317C407.819 354.736 400.557 344.026 416.1 333.459C431.643 322.892 438.934 333.588 454.477 323.007C470.019 312.426 462.757 301.715 478.3 291.148C493.843 280.582 501.134 291.278 516.677 280.696C532.22 270.115 524.958 259.405 540.501 248.838C556.044 238.271 563.334 248.967 578.891 238.386C594.449 227.805 587.158 217.094 602.715 206.513" stroke="#716D65" stroke-width="7.52" stroke-miterlimit="10"/>
</g>
</g>
</svg>
