<svg width="611" height="445" viewBox="0 0 611 445" fill="none" xmlns="http://www.w3.org/2000/svg">
<g opacity="0.3">
<mask id="mask0_7_3" style="mask-type:luminance" maskUnits="userSpaceOnUse" x="0" y="0" width="611" height="445">
<path d="M388.568 0.5C420.161 0.462737 451.395 7.19456 480.17 20.2422C508.945 33.2899 534.593 52.3512 555.389 76.1436C576.184 99.9358 591.644 127.908 600.73 158.177C609.814 188.438 612.316 220.294 608.068 251.603L603.196 277.115C590.97 324.769 563.244 367.001 524.387 397.158C485.529 427.315 437.748 443.685 388.568 443.689H298.707C350.286 438.768 398.766 415.952 435.541 378.866C476.886 337.172 500.085 280.823 500.083 222.095L500.078 220.719C499.716 162.488 476.557 106.695 435.536 65.3281C398.76 28.241 350.277 5.42289 298.695 0.5H388.568ZM277.072 0.5V443.689H167.058V222.362L167.459 222.095L167.058 221.827V0.5H277.072ZM165.656 222.095L0.544922 332.217V111.99L165.656 222.095Z" fill="white" stroke="white"/>
</mask>
<g mask="url(#mask0_7_3)">
<path d="M-99.9785 175.103C-80.4449 161.826 -71.3043 175.271 -51.7706 162.013C-32.237 148.755 -41.3776 135.291 -21.8627 121.996C-2.34772 108.701 6.81158 122.164 26.3452 108.906C45.8789 95.6484 36.7382 82.1847 56.2532 68.8893C75.7681 55.594 84.9274 69.0576 104.461 55.7997C123.995 42.5417 114.854 29.078 134.369 15.7827C153.884 2.48728 163.043 15.951 182.577 2.69298C202.111 -10.565 192.97 -24.0474 212.485 -37.324C232 -50.6007 241.159 -37.1744 260.693 -50.4137C280.226 -63.653 271.086 -77.1541 290.601 -90.4308C310.116 -103.707 319.275 -90.2812 338.809 -103.52C358.342 -116.76 349.202 -130.261 368.717 -143.556C388.232 -156.852 397.391 -143.388 416.943 -156.646C436.495 -169.904 427.336 -183.367 446.851 -196.663" stroke="#433F3A" stroke-width="7.25" stroke-miterlimit="10"/>
<path d="M-85.2119 196.832C-65.6783 183.555 -56.5377 197 -37.004 183.742C-17.4704 170.484 -26.611 157.02 -7.09606 143.725C12.4189 130.43 21.5782 143.893 41.1118 130.635C60.6455 117.377 51.5049 103.895 71.0198 90.5995C90.5347 77.3041 99.6941 90.7678 119.228 77.5098C138.761 64.2519 129.621 50.7882 149.136 37.4928C168.651 24.1974 177.81 37.6611 197.344 24.4031C216.877 11.1452 207.737 -2.33719 227.251 -15.6139C246.766 -28.8905 255.926 -15.4456 275.441 -28.7035C294.956 -41.9615 285.834 -55.4439 305.349 -68.7206C324.864 -81.9972 334.023 -68.571 353.557 -81.8102C373.09 -95.0495 363.95 -108.551 383.464 -121.827C402.979 -135.104 412.157 -121.678 431.691 -134.917C451.225 -148.156 442.084 -161.639 461.599 -174.934" stroke="#433F3A" stroke-width="7.25" stroke-miterlimit="10"/>
<path d="M-70.4443 218.56C-50.9107 205.284 -41.7701 218.729 -22.2364 205.471C-2.70281 192.213 -11.8434 178.73 7.67152 165.435C27.1865 152.14 36.3458 165.603 55.8794 152.345C75.4131 139.087 66.2724 125.605 85.7874 112.31C105.302 99.0142 114.462 112.478 133.995 99.2199C153.529 85.962 144.388 72.4983 163.903 59.2029C183.418 45.9076 192.577 59.3712 212.111 46.1133C231.645 32.8553 222.504 19.3729 242.019 6.09625C261.534 -7.18043 270.693 6.26454 290.227 -6.99343C309.761 -20.2514 300.62 -33.7338 320.135 -47.0105C339.65 -60.2872 348.809 -46.8609 368.343 -60.1002C387.876 -73.3394 378.736 -86.8405 398.251 -100.117C417.766 -113.394 426.925 -99.9676 446.459 -113.207C465.992 -126.446 456.852 -139.947 476.367 -153.243" stroke="#433F3A" stroke-width="7.25" stroke-miterlimit="10"/>
<path d="M-55.6582 240.289C-36.1246 227.013 -26.9839 240.458 -7.45031 227.2C12.0833 213.942 2.92402 200.459 22.4577 187.164C41.9913 173.869 51.1319 187.332 70.6655 174.074C90.1992 160.816 81.0586 147.334 100.573 134.038C120.088 120.743 129.248 134.207 148.781 120.949C168.315 107.691 159.174 94.2085 178.689 80.9131C198.204 67.6177 207.364 81.0814 226.897 67.8234C246.431 54.5654 237.29 41.1018 256.805 27.8064C276.32 14.511 285.479 27.9747 305.013 14.7167C324.547 1.45876 315.406 -12.0236 334.921 -25.3003C354.436 -38.5769 363.595 -25.132 383.129 -38.3899C402.663 -51.6479 393.522 -65.1303 413.037 -78.4069C432.552 -91.6836 441.711 -78.2574 461.245 -91.4966C480.778 -104.736 471.638 -118.237 491.153 -131.532" stroke="#433F3A" stroke-width="7.25" stroke-miterlimit="10"/>
<path d="M-40.8916 262.018C-21.358 248.742 -12.2173 262.186 7.31629 248.928C26.8499 235.671 17.7093 222.188 37.2242 208.893C56.7392 195.597 65.8985 209.061 85.4322 195.803C104.966 182.545 95.8252 169.063 115.34 155.786C134.855 142.509 144.014 155.936 163.548 142.696C183.082 129.457 173.941 115.956 193.456 102.661C212.971 89.3653 222.13 102.829 241.664 89.571C261.198 76.313 252.057 62.8307 271.572 49.5353C291.087 36.2399 300.246 49.7036 319.78 36.4456C339.313 23.1876 330.173 9.72399 349.688 -3.57139C369.203 -16.8668 378.362 -3.40309 397.896 -16.6611C417.429 -29.919 408.289 -43.4014 427.804 -56.6781C447.318 -69.9547 456.478 -56.5285 476.011 -69.7677C495.545 -83.007 486.404 -96.5081 505.919 -109.803" stroke="#433F3A" stroke-width="7.25" stroke-miterlimit="10"/>
<path d="M-26.125 283.766C-6.59136 270.47 2.54925 283.915 22.0829 270.676C41.6165 257.437 32.4759 243.936 51.9908 230.659C71.5058 217.382 80.6651 230.809 100.18 217.569C119.695 204.33 110.573 190.829 130.088 177.552C149.603 164.276 158.762 177.702 178.296 164.463C197.83 151.223 188.689 137.722 208.204 124.427C227.719 111.132 236.878 124.595 256.412 111.337C275.945 98.0793 266.805 84.597 286.32 71.3016C305.835 58.0062 314.994 71.4699 334.528 58.2119C354.061 44.9539 344.921 31.4903 364.436 18.1949C383.95 4.89954 393.11 18.3632 412.643 5.10524C432.177 -8.15274 423.036 -21.6352 442.551 -34.9118C462.066 -48.1885 471.226 -34.7622 490.759 -48.0015C510.293 -61.2408 501.152 -74.7419 520.667 -88.0372" stroke="#433F3A" stroke-width="7.25" stroke-miterlimit="10"/>
<path d="M-11.3574 305.438C8.17621 292.143 17.3168 305.588 36.8505 292.349C56.3841 279.109 47.2435 265.608 66.7584 252.332C86.2734 239.055 95.4327 252.481 114.966 239.242C134.5 226.003 125.359 212.502 144.874 199.225C164.389 185.948 173.549 199.375 193.082 186.135C212.616 172.896 203.475 159.395 222.99 146.1C242.505 132.804 251.664 146.268 271.198 133.01C290.732 119.752 281.591 106.27 301.106 92.9743C320.621 79.6789 329.78 93.1426 349.314 79.8846C368.848 66.6266 359.707 53.163 379.222 39.8676C398.737 26.5722 407.896 40.0359 427.43 26.7779C446.963 13.5199 437.823 0.0375138 457.338 -13.2392C476.853 -26.5158 486.012 -13.0709 505.564 -26.3288C525.117 -39.5868 515.957 -53.0691 535.472 -66.3645" stroke="#433F3A" stroke-width="7.25" stroke-miterlimit="10"/>
<path d="M3.33496 327.223C22.8686 313.928 32.0092 327.373 51.5429 314.134C71.0765 300.895 61.9359 287.393 81.4508 274.117C100.966 260.84 110.125 274.285 129.659 261.027C149.192 247.769 140.052 234.287 159.567 221.01C179.082 207.733 188.241 221.16 207.775 207.92C227.308 194.681 218.168 181.18 237.683 167.903C257.197 154.627 266.357 168.053 285.89 154.814C305.424 141.574 296.283 128.073 315.798 114.778C335.313 101.483 344.473 114.946 363.988 101.688C383.503 88.4304 374.381 74.948 393.896 61.6526C413.41 48.3572 422.57 61.8209 442.103 48.5629C461.637 35.305 452.496 21.8413 472.011 8.54593C491.526 -4.74944 500.704 8.71423 520.238 -4.54375C539.772 -17.8017 530.631 -31.2841 550.146 -44.5795" stroke="#433F3A" stroke-width="7.25" stroke-miterlimit="10"/>
<path d="M18.1768 348.952C37.7104 335.657 46.851 349.121 66.3847 335.863C85.9183 322.605 76.7777 309.122 96.2926 295.846C115.808 282.569 124.967 296.014 144.501 282.756C164.034 269.498 154.894 256.016 174.408 242.739C193.923 229.462 203.083 242.907 222.616 229.649C242.15 216.391 233.009 202.909 252.524 189.632C272.039 176.356 281.199 189.782 300.732 176.543C320.266 163.303 311.125 149.802 330.64 136.507C350.155 123.212 359.314 136.675 378.848 123.417C398.382 110.159 389.241 96.6769 408.756 83.3815C428.271 70.0861 437.43 83.5498 456.964 70.2918C476.498 57.0338 467.357 43.5702 486.872 30.2748C506.387 16.9794 515.546 30.4431 535.08 17.1851C554.613 3.92713 545.473 -9.55523 564.988 -22.8319" stroke="#433F3A" stroke-width="7.25" stroke-miterlimit="10"/>
<path d="M32.9619 370.681C52.4956 357.386 61.6362 370.85 81.1698 357.592C100.703 344.334 91.5441 330.851 111.078 317.575C130.611 304.298 139.752 317.743 159.286 304.485C178.819 291.227 169.679 277.745 189.194 264.468C208.709 251.191 217.868 264.636 237.402 251.378C256.935 238.12 247.795 224.638 267.309 211.361C286.824 198.084 295.984 211.511 315.517 198.271C335.051 185.032 325.91 171.531 345.425 158.254C364.94 144.978 374.1 158.404 393.633 145.165C413.167 131.926 404.026 118.424 423.541 105.129C443.056 91.8337 452.215 105.297 471.749 92.0394C491.283 78.7814 482.142 65.299 501.657 52.0037C521.172 38.7083 530.331 52.172 549.865 38.914C569.399 25.656 560.258 12.1736 579.773 -1.10303" stroke="#433F3A" stroke-width="7.25" stroke-miterlimit="10"/>
<path d="M47.7295 392.41C67.2631 379.115 76.4038 392.578 95.9374 379.32C115.471 366.062 106.33 352.599 125.845 339.303C145.36 326.008 154.52 339.472 174.053 326.214C193.587 312.956 184.446 299.492 203.961 286.197C223.476 272.901 232.635 286.365 252.169 273.107C271.703 259.849 262.562 246.367 282.077 233.09C301.592 219.813 310.751 233.258 330.285 220C349.819 206.742 340.678 193.26 360.193 179.983C379.708 166.707 388.867 180.133 408.401 166.894C427.934 153.654 418.794 140.153 438.309 126.877C457.824 113.6 466.983 127.026 486.517 113.787C506.05 100.548 496.91 87.0466 516.425 73.7512C535.94 60.4558 545.099 73.9195 564.633 60.6615C584.166 47.4036 575.026 33.9212 594.54 20.6445" stroke="#433F3A" stroke-width="7.25" stroke-miterlimit="10"/>
<path d="M62.4961 414.139C82.0297 400.862 91.1704 414.307 110.704 401.049C130.238 387.791 121.097 374.328 140.612 361.032C160.127 347.737 169.286 361.201 188.801 347.943C208.316 334.685 199.194 321.221 218.709 307.926C238.224 294.63 247.383 308.094 266.917 294.836C286.451 281.578 277.31 268.096 296.825 254.819C316.34 241.542 325.499 254.987 345.033 241.729C364.566 228.471 355.426 214.989 374.941 201.712C394.456 188.436 403.615 201.862 423.149 188.623C442.682 175.383 433.542 161.882 453.057 148.606C472.572 135.329 481.731 148.755 501.265 135.516C520.798 122.277 511.658 108.775 531.173 95.4801C550.687 82.1847 559.847 95.6484 579.38 82.3904C598.914 69.1324 589.773 55.6501 609.288 42.3734" stroke="#433F3A" stroke-width="7.25" stroke-miterlimit="10"/>
<path d="M77.2637 435.868C96.7973 422.591 105.938 436.036 125.472 422.778C145.005 409.52 135.865 396.057 155.38 382.761C174.894 369.466 184.054 382.929 203.587 369.672C223.121 356.414 213.98 342.95 233.495 329.655C253.01 316.359 262.17 329.823 281.703 316.565C301.237 303.307 292.096 289.843 311.611 276.548C331.126 263.252 340.285 276.716 359.819 263.458C379.353 250.2 370.212 236.718 389.727 223.441C409.242 210.164 418.401 223.609 437.935 210.351C457.469 197.093 448.328 183.611 467.843 170.334C487.358 157.058 496.517 170.484 516.051 157.245C535.584 144.005 526.444 130.504 545.959 117.209C565.474 103.914 574.633 117.377 594.185 104.119C613.738 90.8613 604.578 77.3977 624.093 64.1023" stroke="#433F3A" stroke-width="7.25" stroke-miterlimit="10"/>
<path d="M92.0303 457.597C111.564 444.32 120.705 457.765 140.238 444.507C159.772 431.249 150.631 417.785 170.146 404.49C189.661 391.195 198.82 404.658 218.354 391.4C237.888 378.142 228.747 364.66 248.262 351.365C267.777 338.069 276.936 351.533 296.47 338.275C316.004 325.017 306.863 311.553 326.378 298.258C345.893 284.963 355.052 298.426 374.586 285.168C394.119 271.91 384.979 258.428 404.494 245.151C424.009 231.875 433.168 245.32 452.702 232.062C472.235 218.804 463.076 205.321 482.61 192.044C502.143 178.768 511.284 192.194 530.817 178.955C550.351 165.716 541.21 152.214 560.725 138.938C580.24 125.661 589.418 139.087 608.952 125.848C628.486 112.609 619.345 99.1078 638.86 85.8124" stroke="#433F3A" stroke-width="7.25" stroke-miterlimit="10"/>
<path d="M106.798 479.344C126.331 466.068 135.472 479.513 155.006 466.255C174.539 452.997 165.399 439.514 184.914 426.219C204.429 412.924 213.588 426.387 233.122 413.129C252.655 399.871 243.515 386.389 263.03 373.093C282.544 359.798 291.704 373.262 311.237 360.004C330.771 346.746 321.63 333.263 341.145 319.968C360.66 306.673 369.82 320.136 389.353 306.878C408.887 293.62 399.746 280.157 419.261 266.861C438.776 253.566 447.935 267.03 467.469 253.772C487.003 240.514 477.862 227.031 497.377 213.755C516.892 200.478 526.051 213.923 545.585 200.665C565.119 187.407 555.978 173.925 575.493 160.648C595.008 147.371 604.167 160.798 623.701 147.558C643.235 134.319 634.094 120.818 653.609 107.523" stroke="#433F3A" stroke-width="7.25" stroke-miterlimit="10"/>
<path d="M121.583 501.054C141.117 487.778 150.257 501.223 169.791 487.965C189.325 474.707 180.165 461.224 199.699 447.929C219.233 434.634 228.373 448.097 247.907 434.839C267.44 421.581 258.3 408.099 277.815 394.804C297.33 381.508 306.489 394.972 326.023 381.714C345.556 368.456 336.416 354.974 355.931 341.678C375.446 328.383 384.605 341.846 404.138 328.588C423.672 315.331 414.531 301.867 434.046 288.571C453.561 275.276 462.721 288.74 482.254 275.482C501.788 262.224 492.647 248.76 512.162 235.465C531.677 222.169 540.837 235.633 560.37 222.375C579.904 209.117 570.763 195.635 590.278 182.358C609.793 169.081 618.952 182.508 638.486 169.268C658.02 156.029 648.879 142.528 668.394 129.233" stroke="#433F3A" stroke-width="7.25" stroke-miterlimit="10"/>
<path d="M136.351 522.802C155.884 509.507 165.025 522.952 184.558 509.712C204.092 496.473 194.951 482.972 214.466 469.695C233.981 456.419 243.141 469.845 262.674 456.606C282.208 443.366 273.067 429.865 292.582 416.589C312.097 403.312 321.257 416.738 340.79 403.499C360.324 390.26 351.183 376.759 370.698 363.463C390.213 350.168 399.372 363.631 418.906 350.374C438.44 337.116 429.299 323.633 448.814 310.338C468.329 297.042 477.488 310.506 497.022 297.248C516.556 283.99 507.415 270.526 526.93 257.231C546.445 243.936 555.604 257.399 575.138 244.141C594.671 230.883 585.531 217.401 605.046 204.124C624.561 190.848 633.72 204.274 653.254 191.035C672.787 177.795 663.647 164.294 683.162 150.999" stroke="#433F3A" stroke-width="7.25" stroke-miterlimit="10"/>
<path d="M151.117 544.531C170.651 531.235 179.791 544.68 199.325 531.441C218.859 518.202 209.718 504.701 229.233 491.424C248.748 478.148 257.907 491.574 277.422 478.335C296.937 465.095 287.815 451.594 307.33 438.317C326.845 425.041 336.004 438.467 355.538 425.228C375.072 411.989 365.931 398.487 385.446 385.192C404.961 371.897 414.12 385.36 433.654 372.102C453.188 358.844 444.047 345.362 463.562 332.067C483.077 318.771 492.236 332.235 511.77 318.977C531.303 305.719 522.163 292.255 541.678 278.96C561.193 265.665 570.352 279.128 589.886 265.87C609.419 252.612 600.279 239.13 619.794 225.853C639.309 212.577 648.468 226.003 668.001 212.764C687.535 199.524 678.394 186.023 697.909 172.728" stroke="#433F3A" stroke-width="7.25" stroke-miterlimit="10"/>
<path d="M165.959 566.26C185.493 552.964 194.633 566.409 214.167 553.17C233.7 539.931 224.56 526.43 244.075 513.153C263.59 499.876 272.749 513.303 292.283 500.063C311.816 486.824 302.676 473.323 322.191 460.046C341.706 446.77 350.865 460.196 370.399 446.957C389.932 433.717 380.792 420.216 400.307 406.94C419.821 393.663 428.981 407.089 448.514 393.85C468.048 380.611 458.907 367.11 478.422 353.814C497.937 340.519 507.097 353.983 526.63 340.725C546.164 327.467 537.023 313.984 556.538 300.689C576.053 287.393 585.212 300.857 604.746 287.599C624.28 274.341 615.139 260.878 634.654 247.582C654.169 234.287 663.328 247.75 682.881 234.493C702.433 221.235 693.274 207.752 712.789 194.457" stroke="#433F3A" stroke-width="7.25" stroke-miterlimit="10"/>
<path d="M180.651 587.989C200.185 574.693 209.326 588.138 228.859 574.899C248.393 561.66 239.252 548.159 258.767 534.882C278.282 521.605 287.441 535.05 306.975 521.792C326.509 508.534 317.368 495.052 336.883 481.775C356.398 468.499 365.557 481.944 385.091 468.686C404.625 455.428 395.484 441.945 414.999 428.669C434.514 415.392 443.673 428.818 463.207 415.579C482.74 402.34 473.6 388.839 493.115 375.543C512.63 362.248 521.789 375.711 541.304 362.453C560.819 349.195 551.697 335.713 571.212 322.418C590.727 309.122 599.886 322.586 619.42 309.328C638.953 296.07 629.813 282.606 649.328 269.311C668.843 256.016 678.021 269.479 697.554 256.221C717.088 242.963 707.947 229.481 727.462 216.204" stroke="#433F3A" stroke-width="7.25" stroke-miterlimit="10"/>
<path d="M195.419 609.718C214.953 596.422 224.093 609.886 243.627 596.628C263.16 583.37 254.02 569.888 273.535 556.611C293.05 543.334 302.209 556.779 321.743 543.521C341.276 530.263 332.136 516.781 351.651 503.504C371.166 490.227 380.325 503.672 399.859 490.414C419.392 477.156 410.252 463.674 429.767 450.397C449.281 437.121 458.441 450.547 477.974 437.308C497.508 424.069 488.367 410.567 507.882 397.272C527.397 383.977 536.557 397.44 556.09 384.182C575.624 370.924 566.483 357.442 585.998 344.147C605.513 330.851 614.672 344.315 634.206 331.057C653.74 317.799 644.599 304.335 664.114 291.04C683.629 277.745 692.788 291.208 712.322 277.95C731.856 264.692 722.715 251.21 742.23 237.933" stroke="#433F3A" stroke-width="7.25" stroke-miterlimit="10"/>
<path d="M210.204 631.446C229.738 618.151 238.878 631.615 258.393 618.357C277.908 605.099 268.786 591.616 288.301 578.34C307.816 565.063 316.976 578.508 336.509 565.25C356.043 551.992 346.902 538.51 366.417 525.233C385.932 511.956 395.091 525.401 414.625 512.143C434.159 498.885 425.018 485.403 444.533 472.126C464.048 458.85 473.207 472.276 492.741 459.037C512.275 445.797 503.134 432.296 522.649 419.02C542.164 405.743 551.323 419.169 570.857 405.93C590.39 392.691 581.25 379.19 600.765 365.894C620.28 352.599 629.439 366.063 648.973 352.805C668.506 339.547 659.366 326.064 678.881 312.769C698.395 299.473 707.555 312.937 727.088 299.679C746.622 286.421 737.481 272.939 756.996 259.662" stroke="#433F3A" stroke-width="7.25" stroke-miterlimit="10"/>
</g>
</g>
</svg>
