<svg width="276" height="211" viewBox="0 0 276 211" fill="none" xmlns="http://www.w3.org/2000/svg">
<g opacity="0.2">
<mask id="mask0_7_2" style="mask-type:luminance" maskUnits="userSpaceOnUse" x="-15" y="0" width="291" height="211">
<path d="M169.562 0.5C184.068 0.480675 198.415 3.47359 211.696 9.2832L212.979 9.85449C226.191 15.8457 238.011 24.5128 247.696 35.3027L248.627 36.3535C258.173 47.2798 265.346 60.0652 269.695 73.8984L270.107 75.2412C274.408 89.5876 275.587 104.689 273.564 119.529L271.251 131.57C265.55 153.793 252.735 173.526 234.778 187.766L233.919 188.439C215.507 202.73 192.865 210.486 169.561 210.485H131.364C153.82 207.375 174.81 197.118 191.128 181.064L192.056 180.141C211.743 160.288 222.791 133.457 222.794 105.493L222.786 104.183C222.449 77.1281 211.782 51.2233 192.973 31.7812L192.056 30.8457C175.609 14.2604 154.245 3.66942 131.36 0.5H169.562ZM116.327 0.5V210.5H64.5938V105.831L64.9941 105.564L64.5938 105.297V0.5H116.327ZM63.1924 105.563L-14.5 157.312V53.6885L63.1924 105.563Z" fill="white" stroke="white"/>
</mask>
<g mask="url(#mask0_7_2)">
<path d="M-62.5107 83.1812C-53.245 76.8735 -48.8897 83.1812 -39.6239 76.9447C-30.3582 70.7083 -34.685 64.244 -25.3908 57.9364C-16.0966 51.6287 -11.7698 58.0076 -2.48979 51.6999C6.79019 45.3923 2.44909 38.9992 11.7433 32.6916C21.0375 26.3839 25.3644 32.7628 34.6443 26.4551C43.9243 20.1475 39.569 13.7544 48.8774 7.44675C58.1859 1.1391 62.4985 7.44674 71.7785 1.21029C81.0585 -5.02616 76.7174 -11.4904 86.0116 -17.7981C95.3058 -24.1057 99.6326 -17.7269 108.913 -24.0345C118.193 -30.3422 113.852 -36.7352 123.146 -43.0571C132.44 -49.379 136.767 -42.9717 146.047 -49.2793C155.327 -55.587 150.986 -61.9801 160.28 -68.3019C169.574 -74.6238 173.901 -68.2165 183.181 -74.5384C192.461 -80.8603 188.12 -87.2391 197.414 -93.5468" stroke="#E4EEFF" stroke-width="4.52" stroke-miterlimit="10"/>
<path d="M-55.4941 93.5041C-46.2284 87.1964 -41.8731 93.5041 -32.6073 87.2676C-23.3416 81.0312 -27.6684 74.5669 -18.3742 68.2593C-9.08002 61.9516 -4.75316 68.3304 4.52681 62.0228C13.8068 55.7152 9.46569 49.3221 18.7599 43.0144C28.0541 36.7068 32.381 43.0856 41.6609 36.778C50.9409 30.4703 46.5856 24.0773 55.894 17.7696C65.2025 11.462 69.5151 17.7696 78.7951 11.5332C88.0751 5.29672 83.734 -1.16755 93.0282 -7.47519C102.322 -13.7828 106.649 -7.47519 115.929 -13.7116C125.209 -19.9481 120.868 -26.4124 130.162 -32.7342C139.457 -39.0561 143.783 -32.6488 153.063 -38.9565C162.343 -45.2641 158.002 -51.6572 167.296 -57.9791C176.591 -64.3009 180.918 -57.8936 190.197 -64.2155C199.477 -70.5374 195.136 -76.9162 204.431 -83.2239" stroke="#E4EEFF" stroke-width="4.52" stroke-miterlimit="10"/>
<path d="M-48.4912 103.827C-39.197 97.5193 -34.9271 103.941 -25.5902 97.5905C-16.2533 91.2401 -20.6513 84.8898 -11.3571 78.5821C-2.06286 72.2745 2.264 78.6533 11.544 72.3457C20.8239 66.038 16.4829 59.645 25.7771 53.3373C35.0713 47.0297 39.3981 53.3373 48.6781 47.1009C57.9581 40.8644 53.6028 34.4001 62.9112 28.0925C72.2196 21.7849 76.5323 28.1637 85.8122 21.8561C95.0922 15.5484 90.6942 9.15533 99.9742 2.84768C109.254 -3.45996 113.595 2.84768 122.875 -3.38877C132.155 -9.62522 127.814 -16.0895 137.108 -22.4114C146.403 -28.7333 150.729 -22.3259 160.009 -28.6336C169.289 -34.9412 164.948 -41.3343 174.242 -47.6562C183.537 -53.9781 187.878 -47.5708 197.158 -53.8926C206.438 -60.2145 202.097 -66.5934 211.391 -72.901" stroke="#E4EEFF" stroke-width="4.52" stroke-miterlimit="10"/>
<path d="M-41.4746 114.15C-32.1946 107.842 -27.8535 114.15 -18.5736 107.913C-9.29359 101.677 -13.5777 95.2126 -4.35471 88.905C4.86834 82.5974 9.26636 88.9762 18.5463 82.6686C27.8263 76.3609 23.4852 69.9678 32.7794 63.6602C42.0736 57.3526 46.4005 63.6602 55.6662 57.4237C64.932 51.1873 60.6051 44.723 69.8993 38.4154C79.1935 32.1077 83.4919 38.4439 92.7719 32.1789C102.052 25.914 97.7108 19.4782 107.005 13.1706C116.299 6.86292 120.626 13.2418 129.906 6.93411C139.186 0.626463 134.845 -5.76661 144.139 -12.0885C153.433 -18.4104 157.76 -12.0031 167.04 -18.3107C176.32 -24.6184 171.965 -31.0114 181.273 -37.3333C190.582 -43.6552 194.909 -37.2479 204.189 -43.5698C213.469 -49.8916 209.113 -56.2705 218.422 -62.5781" stroke="#E4EEFF" stroke-width="4.52" stroke-miterlimit="10"/>
<path d="M-34.4561 124.473C-25.1761 118.179 -20.835 124.544 -11.555 118.179C-2.27503 111.815 -6.61613 105.479 2.67808 99.171C11.9723 92.8633 16.2992 99.171 25.5791 92.9345C34.8591 86.6981 30.5465 80.2908 39.7695 74.0401C48.9926 67.7894 53.4048 74.0401 62.6706 67.8036C71.9363 61.5672 67.6094 55.1029 76.9037 48.7952C86.1979 42.4876 90.5247 48.8664 99.8047 42.5588C109.085 36.2512 104.744 29.8581 114.038 23.5504C123.332 17.2428 127.659 23.6216 136.939 17.314C146.219 11.0063 141.878 4.61326 151.172 -1.70862C160.466 -8.0305 164.793 -1.62319 174.073 -7.93083C183.353 -14.2385 178.998 -20.6315 188.306 -26.9534C197.615 -33.2753 201.927 -26.868 211.221 -33.1899C220.516 -39.5118 216.146 -45.8906 225.454 -52.1982" stroke="#E4EEFF" stroke-width="4.52" stroke-miterlimit="10"/>
<path d="M-27.4395 134.796C-18.1595 128.488 -13.8184 134.796 -4.53841 128.559C4.74156 122.323 0.40047 115.859 9.69468 109.551C18.9889 103.243 23.3157 109.551 32.5957 103.314C41.8757 97.078 37.5346 90.6137 46.8288 84.3061C56.123 77.9984 60.4499 84.3061 69.7298 78.0696C79.0098 71.8332 74.6687 65.3689 83.9629 59.0612C93.2571 52.7536 97.584 59.1324 106.864 52.8248C116.144 46.5172 111.803 40.1241 121.097 33.8022C130.391 27.4803 134.718 33.8876 143.998 27.58C153.278 21.2723 148.937 14.8793 158.231 8.55738C167.525 2.2355 171.852 8.64281 181.132 2.33517C190.412 -3.97248 186.057 -10.3656 195.365 -16.6874C204.674 -23.0093 208.986 -16.602 218.266 -22.9239C227.546 -29.2458 223.205 -35.6246 232.499 -41.9323" stroke="#E4EEFF" stroke-width="4.52" stroke-miterlimit="10"/>
<path d="M-20.4229 145.118C-11.1429 138.811 -6.80178 145.118 2.47819 138.882C11.7582 132.646 7.41708 126.181 16.7113 119.874C26.0055 113.566 30.3324 119.874 39.6123 113.637C48.8923 107.401 44.5512 100.936 53.8454 94.6289C63.1396 88.3212 67.4665 94.7 76.7465 88.3924C86.0264 82.0848 81.6853 75.6917 90.9796 69.384C100.274 63.0764 104.601 69.4552 113.881 63.1476C123.161 56.8399 118.791 50.4469 128.043 44.1392C137.294 37.8316 141.664 44.2247 150.944 37.917C160.224 31.6094 155.882 25.2163 165.177 18.8944C174.471 12.5725 178.798 18.9798 188.078 12.658C197.358 6.33608 193.002 -0.0427592 202.311 -6.3504C211.619 -12.658 215.932 -6.26497 225.212 -12.5869C234.492 -18.9087 230.151 -25.2876 239.445 -31.5952" stroke="#E4EEFF" stroke-width="4.52" stroke-miterlimit="10"/>
<path d="M-13.4082 155.441C-4.12823 149.134 0.212864 155.441 9.49284 149.205C18.7728 142.969 14.4317 136.504 23.7259 130.197C33.0201 123.889 37.347 130.197 46.627 123.96C55.907 117.724 51.5516 111.259 60.8601 104.952C70.1685 98.6442 74.4811 105.023 83.7611 98.7154C93.0411 92.4077 88.7 86.0146 97.9942 79.707C107.288 73.3994 111.615 79.7782 120.895 73.4705C130.175 67.1629 125.834 60.7698 135.128 54.4479C144.423 48.1261 148.749 54.5334 158.029 48.2257C167.309 41.9181 162.968 35.525 172.263 29.2031C181.557 22.8812 185.884 29.2886 195.149 22.9667C204.415 16.6448 200.088 10.266 209.382 3.95832C218.677 -2.34933 223.003 4.04375 232.283 -2.27814C241.563 -8.60002 237.222 -14.9789 246.517 -21.2865" stroke="#E4EEFF" stroke-width="4.52" stroke-miterlimit="10"/>
<path d="M-6.38965 165.764C2.89033 159.442 7.23142 165.764 16.5114 159.528C25.7914 153.291 21.4503 146.827 30.7445 140.52C40.0387 134.212 44.3656 140.519 53.6455 134.283C62.9255 128.047 58.5702 121.582 67.8786 115.275C77.1871 108.967 81.4997 115.346 90.7797 109.038C100.06 102.731 95.7185 96.3375 105.013 90.0299C114.307 83.7222 118.634 90.1011 127.914 83.7934C137.194 77.4858 132.853 71.0927 142.147 64.7708C151.441 58.4489 155.768 64.8563 165.048 58.5486C174.328 52.241 169.987 45.8479 179.281 39.526C188.575 33.2041 192.902 39.6114 202.182 33.2896C211.462 26.9677 207.121 20.5888 216.415 14.2812C225.709 7.97355 230.036 14.3666 239.316 8.04474C248.596 1.72286 244.255 -4.65598 253.549 -10.9636" stroke="#E4EEFF" stroke-width="4.52" stroke-miterlimit="10"/>
<path d="M0.65625 176.087C9.93623 169.765 14.2773 176.087 23.5573 169.851C32.8373 163.614 28.4962 157.15 37.7904 150.842C47.0846 144.535 51.4115 150.842 60.6914 144.606C69.9714 138.369 65.6161 131.905 74.9245 125.598C84.233 119.29 88.5456 125.669 97.8256 119.361C107.106 113.053 102.764 106.66 112.059 100.353C121.353 94.0451 125.68 100.353 134.96 94.1163C144.24 87.8798 139.899 81.4156 149.193 75.0937C158.487 68.7718 162.814 75.1791 172.094 68.8715C181.374 62.5638 177.018 56.1708 186.327 49.8489C195.635 43.527 199.948 49.9343 209.228 43.6124C218.508 37.2905 214.167 30.9117 223.461 24.6041C232.755 18.2964 237.082 24.6895 246.362 18.3676C255.642 12.0457 251.159 5.69537 260.439 -0.640747" stroke="#E4EEFF" stroke-width="4.52" stroke-miterlimit="10"/>
<path d="M7.64453 186.41C16.9245 180.088 21.2656 186.481 30.5456 180.174C39.8255 173.866 35.4845 167.473 44.7787 161.165C54.0729 154.858 58.3997 161.165 67.6797 154.929C76.9597 148.692 72.6044 142.228 81.9128 135.92C91.2212 129.613 95.5339 135.992 104.814 129.684C114.094 123.376 109.753 116.983 119.047 110.676C128.341 104.368 132.668 110.676 141.948 104.439C151.228 98.2027 146.887 91.7385 156.181 85.4166C165.475 79.0947 169.802 85.502 179.082 79.1944C188.362 72.8867 184.007 66.4936 193.315 60.1718C202.624 53.8499 206.936 60.2572 216.216 53.9353C225.496 47.6134 221.155 41.2346 230.449 34.9269C239.744 28.6193 244.07 35.0124 253.35 28.6905C262.63 22.3686 258.289 15.9898 267.583 9.68213" stroke="#E4EEFF" stroke-width="4.52" stroke-miterlimit="10"/>
<path d="M14.6621 196.733C23.9421 190.411 28.2832 196.804 37.5632 190.497C46.8431 184.189 42.502 177.796 51.7962 171.488C61.0905 165.181 65.4173 171.488 74.6831 165.252C83.9488 159.015 79.6219 152.551 88.9162 146.243C98.2104 139.936 102.537 146.315 111.817 140.007C121.097 133.699 116.756 127.306 126.05 120.999C135.344 114.691 139.671 120.999 148.951 114.762C158.231 108.526 153.89 102.061 163.184 95.7396C172.479 89.4177 176.805 95.825 186.085 89.5174C195.365 83.2097 191.01 76.8166 200.319 70.4948C209.627 64.1729 213.94 70.5802 223.22 64.2583C232.5 57.9364 228.158 51.5576 237.453 45.2499C246.747 38.9423 251.074 45.3354 260.354 39.0135C269.634 32.6916 265.293 26.3128 274.587 20.0051" stroke="#E4EEFF" stroke-width="4.52" stroke-miterlimit="10"/>
<path d="M21.6777 207.056C30.9577 200.734 35.2988 207.127 44.5788 200.819C53.8588 194.512 49.5177 188.119 58.8119 181.811C68.1061 175.503 72.4329 181.811 81.6987 175.575C90.9644 169.338 86.6376 162.874 95.9318 156.566C105.226 150.259 109.553 156.638 118.833 150.33C128.113 144.022 123.772 137.629 133.066 131.322C142.36 125.014 146.687 131.322 155.967 125.085C165.247 118.849 160.906 112.384 170.2 106.062C179.494 99.7406 183.821 106.148 193.101 99.8402C202.381 93.5326 198.026 87.1395 207.334 80.8176C216.643 74.4957 220.955 80.9031 230.235 74.5812C239.515 68.2593 235.174 61.8805 244.468 55.5728C253.763 49.2652 258.089 55.5728 267.369 49.3364C276.649 43.0999 272.308 36.6356 281.602 30.328" stroke="#E4EEFF" stroke-width="4.52" stroke-miterlimit="10"/>
<path d="M28.6943 217.379C37.9743 211.057 42.3154 217.45 51.5954 211.142C60.8754 204.835 56.5343 198.442 65.8285 192.134C75.1227 185.826 79.4495 192.205 88.7153 185.898C97.981 179.59 93.6542 173.197 102.948 166.889C112.243 160.582 116.569 166.96 125.849 160.653C135.129 154.345 130.788 147.952 140.083 141.644C149.377 135.337 153.704 141.644 162.984 135.408C172.264 129.171 167.922 122.707 177.217 116.385C186.511 110.063 190.838 116.471 200.103 110.163C209.369 103.855 205.042 97.4624 214.337 91.1405C223.631 84.8186 227.958 91.2259 237.238 84.9041C246.518 78.5822 242.176 72.2033 251.471 65.8957C260.765 59.588 265.092 65.8957 274.372 59.6592C283.652 53.4228 279.311 46.9585 288.605 40.6509" stroke="#E4EEFF" stroke-width="4.52" stroke-miterlimit="10"/>
<path d="M35.7109 227.702C44.9909 221.38 49.332 227.773 58.612 221.465C67.892 215.158 63.5509 208.765 72.8451 202.457C82.1393 196.149 86.4661 202.528 95.7461 196.22C105.026 189.913 100.685 183.52 109.979 177.212C119.273 170.904 123.6 177.283 132.88 170.976C142.16 164.668 137.819 158.275 147.113 151.953C156.408 145.631 160.734 152.038 170.014 145.731C179.294 139.423 174.953 133.03 184.247 126.708C193.542 120.386 197.869 126.794 207.134 120.486C216.4 114.178 212.073 107.785 221.367 101.463C230.662 95.1415 234.988 101.549 244.268 95.2269C253.548 88.905 249.207 82.5262 258.502 76.2186C267.796 69.9109 272.123 76.2186 281.403 69.9821C290.683 63.7457 286.341 57.2814 295.636 50.9738" stroke="#E4EEFF" stroke-width="4.52" stroke-miterlimit="10"/>
<path d="M42.7295 238.025C52.0095 231.703 56.3506 238.096 65.6305 231.788C74.9105 225.48 70.5694 219.087 79.8636 212.78C89.1578 206.472 93.4847 212.851 102.765 206.543C112.045 200.236 107.704 193.843 116.998 187.535C126.292 181.227 130.619 187.535 139.899 181.298C149.179 175.062 144.838 168.598 154.132 162.276C163.426 155.954 167.753 162.361 177.033 156.054C186.313 149.746 181.972 143.353 191.266 137.031C200.56 130.709 204.887 137.117 214.167 130.795C223.447 124.473 219.106 118.108 228.4 111.786C237.694 105.464 242.021 111.872 251.301 105.55C260.581 99.2279 256.24 92.8491 265.534 86.5414C274.828 80.2338 279.155 86.5414 288.435 80.305C297.715 74.0685 293.374 67.6043 302.668 61.2966" stroke="#E4EEFF" stroke-width="4.52" stroke-miterlimit="10"/>
<path d="M49.7461 248.347C59.0261 242.026 63.3672 248.419 72.6471 242.111C81.9271 235.803 77.586 229.41 86.8802 223.103C96.1744 216.795 100.501 223.174 109.781 216.866C119.061 210.559 114.72 204.165 124.014 197.858C133.309 191.55 137.635 197.858 146.915 191.621C156.195 185.385 151.854 178.921 161.149 172.599C170.443 166.277 174.77 172.684 184.05 166.377C193.33 160.069 188.974 153.676 198.283 147.354C207.591 141.032 211.904 147.439 221.184 141.118C230.464 134.796 226.123 128.431 235.417 122.109C244.711 115.787 249.038 122.195 258.318 115.873C267.598 109.551 263.257 103.172 272.551 96.8643C281.845 90.5567 286.172 96.8643 295.452 90.6279C304.732 84.3914 300.391 77.9272 309.685 71.6195" stroke="#E4EEFF" stroke-width="4.52" stroke-miterlimit="10"/>
<path d="M56.7627 258.67C66.0427 252.348 70.3838 258.742 79.6637 252.434C88.9437 246.126 84.5884 239.733 93.8968 233.426C103.205 227.118 107.518 233.497 116.798 227.189C126.078 220.881 121.737 214.488 131.031 208.181C140.325 201.873 144.652 208.181 153.932 201.944C163.212 195.708 158.871 189.244 168.165 182.922C177.459 176.6 181.786 183.007 191.066 176.699C200.346 170.392 195.991 163.999 205.299 157.677C214.608 151.355 218.92 157.762 228.2 151.44C237.48 145.118 233.139 138.74 242.433 132.432C251.728 126.124 256.054 132.517 265.334 126.196C274.614 119.874 270.273 113.495 279.567 107.187C288.862 100.88 293.189 107.187 302.469 100.951C311.749 94.7143 307.407 88.25 316.702 81.9424" stroke="#E4EEFF" stroke-width="4.52" stroke-miterlimit="10"/>
<path d="M63.7783 268.993C73.0583 262.671 77.3994 269.064 86.6794 262.757C95.9593 256.449 91.604 250.056 100.912 243.748C110.221 237.441 114.534 243.82 123.813 237.512C133.093 231.204 128.752 224.811 138.047 218.504C147.341 212.196 151.668 218.504 160.948 212.267C170.228 206.031 165.887 199.566 175.181 193.245C184.475 186.923 188.802 193.33 198.082 187.022C207.362 180.715 203.006 174.322 212.315 168C221.623 161.678 225.936 168.085 235.216 161.763C244.496 155.441 240.155 149.063 249.449 142.755C258.743 136.447 263.07 142.84 272.35 136.518C281.63 130.197 277.289 123.818 286.583 117.51C295.877 111.202 300.204 117.51 309.484 111.274C318.764 105.037 314.423 98.5729 323.717 92.2653" stroke="#E4EEFF" stroke-width="4.52" stroke-miterlimit="10"/>
<path d="M70.7969 279.316C80.0769 272.994 84.4179 279.387 93.6979 273.08C102.978 266.772 98.6226 260.379 107.931 254.071C117.239 247.764 121.552 254.142 130.832 247.835C140.112 241.527 135.771 235.134 145.065 228.826C154.359 222.519 158.686 228.826 167.966 222.59C177.246 216.354 172.905 209.889 182.199 203.567C191.494 197.246 195.82 203.653 205.086 197.345C214.352 191.038 210.025 184.644 219.319 178.323C228.613 172.001 232.94 178.408 242.22 172.086C251.5 165.764 247.159 159.385 256.453 153.078C265.748 146.77 270.074 153.163 279.354 146.841C288.634 140.519 284.293 134.141 293.587 127.833C302.882 121.525 307.209 127.833 316.489 121.596C325.768 115.36 321.427 108.896 330.722 102.588" stroke="#E4EEFF" stroke-width="4.52" stroke-miterlimit="10"/>
<path d="M77.8135 289.639C87.0935 283.317 91.4346 289.71 100.715 283.403C109.995 277.095 105.639 270.702 114.948 264.394C124.256 258.087 128.569 264.465 137.849 258.158C147.129 251.85 142.788 245.457 152.082 239.149C161.376 232.842 165.703 239.149 174.983 232.913C184.263 226.677 179.922 220.212 189.216 213.89C198.51 207.569 202.837 213.976 212.103 207.668C221.368 201.361 217.042 194.967 226.336 188.646C235.63 182.324 239.957 188.731 249.237 182.409C258.517 176.087 254.176 169.708 263.47 163.401C272.764 157.093 277.091 163.486 286.371 157.164C295.651 150.842 291.31 144.464 300.604 138.156C309.898 131.848 314.225 138.156 323.505 131.919C332.785 125.683 328.444 119.219 337.738 112.911" stroke="#E4EEFF" stroke-width="4.52" stroke-miterlimit="10"/>
<path d="M84.8301 299.962C94.1101 293.64 98.4512 300.033 107.731 293.725C117.011 287.418 112.656 281.025 121.964 274.717C131.273 268.409 135.585 274.788 144.865 268.481C154.145 262.173 149.804 255.78 159.098 249.472C168.393 243.165 172.719 249.472 181.999 243.236C191.279 236.999 186.938 230.535 196.232 224.213C205.527 217.891 209.868 224.299 219.134 217.991C228.399 211.683 224.072 205.29 233.367 198.968C242.661 192.647 246.988 199.054 256.268 192.732C265.548 186.41 261.207 180.031 270.501 173.724C279.795 167.416 284.122 173.809 293.402 167.487C302.682 161.165 298.341 154.786 307.635 148.479C316.929 142.171 321.256 148.479 330.536 142.242C339.816 136.006 335.475 129.542 344.769 123.234" stroke="#E4EEFF" stroke-width="4.52" stroke-miterlimit="10"/>
</g>
</g>
</svg>
