<svg width="209" height="461" viewBox="0 0 209 461" fill="none" xmlns="http://www.w3.org/2000/svg">
<g opacity="0.3">
<mask id="mask0_1_2" style="mask-type:luminance" maskUnits="userSpaceOnUse" x="0" y="-1" width="634" height="462">
<path d="M402.907 0.49585C463.344 0.505738 521.322 24.3425 564.291 66.8044L565.304 67.8113C608.036 110.567 632.189 168.432 632.563 228.853L632.567 230.281C632.544 240.513 631.848 250.732 630.482 260.873L625.421 287.351C612.939 335.988 584.887 379.177 545.584 410.341L543.703 411.815C503.411 443.086 453.865 460.06 402.869 460.065H309.316C362.463 455.082 412.459 431.772 450.551 393.826L451.559 392.816C494.089 349.921 518.094 292.066 518.455 231.688L518.459 230.261C518.456 169.853 494.778 111.873 452.541 68.7527L451.54 67.7371C413.322 29.1976 362.91 5.52179 309.292 0.49585H402.907ZM287.243 0.49585V460.065H173.209V230.549L173.61 230.281L173.209 230.013V0.49585H287.243ZM171.808 230.281L0.546875 344.498V116.081L171.808 230.281Z" fill="white" stroke="white"/>
</mask>
<g mask="url(#mask0_1_2)">
<path d="M-103.659 181.55C-83.4152 167.787 -73.9382 181.718 -53.6755 167.955C-33.4129 154.192 -42.9086 140.242 -22.5525 126.461C-2.19641 112.679 7.1685 126.629 27.4311 112.848C47.6938 99.066 38.1981 85.1349 58.442 71.3533C78.686 57.5718 88.1817 71.5216 108.444 57.7401C128.707 43.9585 119.211 30.0273 139.474 16.2458C159.736 2.46422 169.195 16.4141 189.457 2.63251C209.72 -11.149 200.224 -25.0802 220.487 -38.8618C240.75 -52.6433 250.208 -38.6935 270.471 -52.475C290.733 -66.2566 281.238 -80.1878 301.5 -93.9693C321.763 -107.751 331.221 -93.801 351.484 -107.583C371.746 -121.364 362.251 -135.314 382.513 -149.077C402.776 -162.84 412.253 -148.909 432.497 -162.69C452.741 -176.472 443.283 -190.422 463.545 -204.203" stroke="#E4EEFF" stroke-width="7.52" stroke-miterlimit="10"/>
<path d="M-88.3496 204.083C-68.087 190.32 -58.6099 204.251 -38.366 190.488C-18.122 176.725 -27.599 162.682 -7.33638 148.994C12.9263 135.306 22.3846 149.162 42.6473 135.381C62.9099 121.599 53.4141 107.649 73.6767 93.8863C93.9394 80.1234 103.398 94.0546 123.66 80.273C143.923 66.4914 134.465 52.5416 154.69 38.7787C174.915 25.0158 184.411 38.947 204.674 25.1654C224.936 11.3839 215.44 -2.56598 235.703 -16.3288C255.966 -30.0917 265.443 -16.1605 285.687 -29.9421C305.931 -43.7237 296.472 -57.6548 316.716 -71.4364C336.96 -85.218 346.456 -71.2681 366.7 -85.0497C386.944 -98.8312 377.486 -112.781 397.73 -126.544C417.974 -140.307 427.469 -126.376 447.732 -140.157C467.994 -153.939 458.499 -167.889 478.761 -181.67" stroke="#E4EEFF" stroke-width="7.52" stroke-miterlimit="10"/>
<path d="M-73.0225 226.616C-52.7598 212.853 -43.2828 226.784 -23.0388 213.021C-2.79485 199.258 -12.2532 185.29 7.99077 171.527C28.2347 157.764 37.7305 171.695 57.9744 157.914C78.2184 144.132 68.7599 130.182 89.0039 116.419C109.248 102.656 118.744 116.588 138.988 102.806C159.232 89.0244 149.773 75.0746 170.017 61.3117C190.261 47.5488 199.757 61.48 220.001 47.6984C240.245 33.9169 230.786 19.967 251.03 6.20414C271.274 -7.55872 280.77 6.37244 301.014 -7.40912C321.258 -21.1907 311.8 -35.1405 332.043 -48.9034C352.287 -62.6663 361.783 -48.7351 382.046 -62.5167C402.308 -76.2982 392.813 -90.2481 413.075 -104.011C433.338 -117.774 442.796 -103.843 463.059 -117.624C483.322 -131.406 473.845 -145.356 494.089 -159.137" stroke="#E4EEFF" stroke-width="7.52" stroke-miterlimit="10"/>
<path d="M-57.7129 249.149C-37.4689 235.386 -27.9919 249.317 -7.72923 235.554C12.5334 221.791 3.03768 207.823 23.2816 194.041C43.5256 180.259 53.0213 194.228 73.2653 180.446C93.5092 166.665 84.0508 152.715 104.295 138.952C124.539 125.189 134.034 139.12 154.278 125.339C174.522 111.557 165.064 97.6075 185.308 83.8446C205.552 70.0817 215.048 84.0129 235.31 70.2313C255.573 56.4498 246.077 42.4999 266.34 28.7371C286.602 14.9742 296.061 28.9053 316.323 15.1238C336.586 1.34221 327.09 -12.6076 347.353 -26.3705C367.616 -40.1334 377.074 -26.2022 397.337 -39.9838C417.599 -53.7653 408.104 -67.7152 428.366 -81.4781C448.629 -95.2409 458.106 -81.3098 478.35 -95.0913C498.594 -108.873 489.135 -122.823 509.398 -136.604" stroke="#E4EEFF" stroke-width="7.52" stroke-miterlimit="10"/>
<path d="M-42.4043 271.681C-22.1603 257.9 -12.6646 271.85 7.57936 258.087C27.8233 244.324 18.3462 230.356 38.6088 216.574C58.8715 202.792 68.33 216.742 88.5926 202.979C108.855 189.217 99.3594 175.248 119.622 161.485C139.885 147.722 149.343 161.653 169.606 147.872C189.868 134.09 180.373 120.14 200.635 106.378C220.898 92.6147 230.356 106.546 250.619 92.7643C270.882 78.9827 261.386 65.0329 281.648 51.27C301.911 37.5071 311.388 51.4383 331.632 37.6567C351.876 23.8752 342.399 9.92531 362.662 -3.74405C382.924 -17.4134 392.42 -3.74405 412.645 -17.4508C432.87 -31.1576 423.431 -45.1822 443.675 -58.9451C463.919 -72.708 473.415 -58.7955 493.677 -72.5584C513.94 -86.3212 504.444 -100.29 524.707 -114.071" stroke="#E4EEFF" stroke-width="7.52" stroke-miterlimit="10"/>
<path d="M-27.0947 294.214C-6.83208 280.433 2.64498 294.383 22.8889 280.62C43.1329 266.857 33.6744 252.888 53.9184 239.107C74.1623 225.325 83.6582 239.275 103.902 225.512C124.146 211.749 114.669 197.781 134.932 184.018C155.194 170.255 164.671 184.186 184.915 170.405C205.159 156.623 195.701 142.673 215.945 128.911C236.189 115.148 245.685 129.079 265.929 115.297C286.172 101.516 276.714 87.5658 296.958 73.7843C317.202 60.0027 326.698 73.9713 346.942 60.1897C367.186 46.4081 357.727 32.4583 377.971 18.6954C398.215 4.93255 407.711 18.8637 427.955 5.08215C448.199 -8.69941 438.74 -22.6493 458.984 -36.4121C479.228 -50.175 488.724 -36.2625 508.987 -50.0254C529.249 -63.7883 519.754 -77.7568 540.016 -91.5384" stroke="#E4EEFF" stroke-width="7.52" stroke-miterlimit="10"/>
<path d="M-11.7666 316.747C8.47735 302.966 17.9544 316.916 38.2171 303.134C58.4797 289.353 48.9839 275.421 69.2278 261.64C89.4718 247.858 98.9676 261.808 119.212 248.045C139.456 234.282 129.997 220.314 150.241 206.532C170.485 192.751 179.981 206.719 200.225 192.938C220.469 179.156 211.104 165.206 231.254 151.462C251.405 137.718 260.994 151.63 281.238 137.868C301.482 124.105 292.023 110.136 312.286 96.3546C332.549 82.573 342.007 96.5229 362.27 82.76C382.532 68.9971 373.037 55.0286 393.299 41.247C413.562 27.4655 423.02 41.4153 443.283 27.6525C463.546 13.8896 454.05 -0.0789672 474.313 -13.8605C494.575 -27.6421 504.052 -13.6922 524.296 -27.4551C544.54 -41.218 535.082 -55.1865 555.344 -68.9681" stroke="#E4EEFF" stroke-width="7.52" stroke-miterlimit="10"/>
<path d="M3.61719 339.28C23.8611 325.499 33.3382 339.449 53.6008 325.667C73.8635 311.886 64.3678 297.954 84.6304 284.173C104.893 270.391 114.351 284.341 134.614 270.578C154.877 256.815 145.381 242.847 165.644 229.065C185.906 215.284 195.365 229.234 215.627 215.471C235.89 201.708 226.319 187.739 246.619 173.902C266.919 160.064 276.34 174.07 296.603 160.307C316.866 146.544 307.37 132.576 327.633 118.794C347.895 105.012 357.354 118.962 377.616 105.199C397.879 91.4366 388.383 77.468 408.646 63.6865C428.908 49.9049 438.386 63.8548 458.63 50.0919C478.873 36.329 469.378 22.4353 489.622 8.63502C509.866 -5.16524 519.361 8.80331 539.624 -4.97825C559.887 -18.7598 550.391 -32.691 570.653 -46.4725" stroke="#E4EEFF" stroke-width="7.52" stroke-miterlimit="10"/>
<path d="M18.8516 361.813C39.1142 348.032 48.5913 361.982 68.8352 348.2C89.0792 334.418 79.6207 320.487 99.8647 306.706C120.109 292.924 129.604 306.874 149.848 293.111C170.092 279.348 160.615 265.38 180.878 251.598C201.141 237.817 210.599 251.766 230.862 238.004C251.124 224.241 241.628 210.272 261.891 196.491C282.154 182.709 291.631 196.659 311.875 182.896C332.119 169.133 322.66 155.165 342.904 141.383C363.148 127.602 372.644 141.551 392.888 127.789C413.132 114.026 403.673 100.057 423.917 86.2755C444.161 72.494 453.657 86.4438 473.901 72.681C494.145 58.9181 484.687 44.9495 504.931 31.168C525.174 17.3864 534.67 31.3363 554.933 17.5547C575.196 3.77315 565.7 -10.158 585.963 -23.9396" stroke="#E4EEFF" stroke-width="7.52" stroke-miterlimit="10"/>
<path d="M34.1787 384.346C54.4227 370.565 63.8998 384.515 84.1625 370.733C104.425 356.951 94.9293 343.02 115.173 329.239C135.417 315.457 144.913 329.407 165.157 315.644C185.401 301.881 175.942 287.969 196.149 274.131C216.356 260.293 225.889 274.299 246.133 260.537C266.377 246.774 256.918 232.805 277.162 219.024C297.406 205.242 306.902 219.192 327.146 205.429C347.39 191.666 337.931 177.698 358.175 163.916C378.419 150.134 387.915 164.084 408.178 150.321C428.441 136.559 418.945 122.59 439.207 108.808C459.47 95.0269 468.928 108.977 489.191 95.2139C509.454 81.4511 499.958 67.4825 520.22 53.7009C540.483 39.9194 549.941 53.8692 570.204 40.0877C590.467 26.3061 580.99 12.3749 601.234 -1.40662" stroke="#E4EEFF" stroke-width="7.52" stroke-miterlimit="10"/>
<path d="M49.4883 406.879C69.7322 393.098 79.2094 407.047 99.4721 393.266C119.735 379.484 110.239 365.553 130.502 351.772C150.764 337.99 160.223 351.94 180.485 338.158C200.748 324.377 191.252 310.446 211.496 296.664C231.74 282.883 241.236 296.832 261.498 283.07C281.761 269.307 272.265 255.338 292.528 241.557C312.79 227.775 322.249 241.725 342.512 227.962C362.774 214.199 353.278 200.231 373.541 186.449C393.804 172.667 403.262 186.617 423.525 172.854C443.787 159.092 434.292 145.123 454.554 131.341C474.817 117.56 484.275 131.51 504.538 117.728C524.8 103.947 515.305 90.0155 535.567 76.2339C555.83 62.4523 565.307 76.4022 585.551 62.6206C605.795 48.8391 596.337 34.9079 616.599 21.1263" stroke="#E4EEFF" stroke-width="7.52" stroke-miterlimit="10"/>
<path d="M64.7979 429.412C85.0605 415.631 94.5376 429.58 114.782 415.799C135.025 402.017 125.567 388.086 145.811 374.305C166.055 360.523 175.551 374.473 195.795 360.691C216.039 346.91 206.562 332.979 226.824 319.197C247.087 305.415 256.545 319.365 276.808 305.584C297.071 291.802 287.575 277.871 307.837 264.09C328.1 250.308 337.577 264.258 357.821 250.495C378.065 236.732 368.607 222.764 388.851 208.982C409.095 195.2 418.59 209.15 438.834 195.369C459.078 181.587 449.62 167.656 469.864 153.874C490.108 140.093 499.604 154.043 519.848 140.261C540.092 126.48 530.633 112.548 550.877 98.7669C571.121 84.9853 580.617 98.9351 600.879 85.1536C621.142 71.372 611.646 57.4409 631.909 43.6593" stroke="#E4EEFF" stroke-width="7.52" stroke-miterlimit="10"/>
<path d="M80.1064 451.945C100.369 438.164 109.846 452.113 130.09 438.332C150.334 424.55 140.876 410.619 161.12 396.838C181.364 383.056 190.859 397.006 211.103 383.224C231.347 369.443 221.889 355.512 242.133 341.73C262.377 327.948 271.873 341.898 292.117 328.117C312.361 314.335 302.902 300.404 323.146 286.622C343.39 272.841 352.886 286.791 373.13 273.009C393.374 259.228 383.915 245.296 404.159 231.515C424.403 217.733 433.899 231.683 454.143 217.902C474.387 204.12 464.928 190.189 485.172 176.407C505.416 162.626 514.912 176.576 535.175 162.794C555.437 149.012 545.942 135.081 566.204 121.3C586.467 107.518 595.925 121.468 616.188 107.686C636.45 93.9049 626.974 79.9738 647.218 66.1922" stroke="#E4EEFF" stroke-width="7.52" stroke-miterlimit="10"/>
<path d="M95.4346 474.478C115.679 460.697 125.156 474.646 145.418 460.865C165.681 447.083 156.185 433.152 176.448 419.371C196.71 405.589 206.169 419.539 226.431 405.757C246.694 391.976 237.198 378.045 257.442 364.263C277.686 350.481 287.182 364.431 307.445 350.65C327.707 336.868 318.212 322.937 338.474 309.155C358.737 295.374 368.195 309.324 388.458 295.542C408.72 281.761 399.225 267.829 419.487 254.048C439.75 240.266 449.208 254.216 469.471 240.435C489.734 226.653 480.238 212.722 500.5 198.94C520.763 185.159 530.222 199.109 550.484 185.327C570.747 171.545 561.251 157.614 581.514 143.833C601.776 130.051 611.253 144.001 631.497 130.22C651.741 116.438 642.283 102.507 662.546 88.7252" stroke="#E4EEFF" stroke-width="7.52" stroke-miterlimit="10"/>
<path d="M110.743 497.011C131.006 483.229 140.483 497.179 160.727 483.398C180.971 469.616 171.494 455.685 191.756 441.903C212.019 428.122 221.477 442.072 241.74 428.29C262.003 414.509 252.507 400.578 272.77 386.796C293.032 373.014 302.491 386.964 322.753 373.183C343.016 359.401 333.52 345.47 353.783 331.688C374.045 317.907 383.504 331.857 403.766 318.075C424.029 304.294 414.533 290.362 434.796 276.581C455.059 262.799 464.536 276.749 484.78 262.968C505.024 249.186 495.565 235.255 515.809 221.473C536.053 207.692 545.549 221.642 565.793 207.86C586.037 194.078 576.578 180.147 596.822 166.366C617.066 152.584 626.562 166.534 646.825 152.752C667.087 138.971 657.591 125.021 677.854 111.258" stroke="#E4EEFF" stroke-width="7.52" stroke-miterlimit="10"/>
<path d="M126.053 519.544C146.315 505.762 155.792 519.712 176.036 505.931C196.28 492.149 186.822 478.218 207.066 464.436C227.31 450.655 236.806 464.605 257.05 450.823C277.294 437.042 267.835 423.11 288.079 409.329C308.323 395.547 317.819 409.497 338.063 395.716C358.307 381.934 348.848 368.003 369.092 354.221C389.336 340.44 398.832 354.39 419.076 340.608C439.32 326.826 429.861 312.895 450.105 299.114C470.349 285.332 479.845 299.282 500.089 285.5C520.333 271.719 510.875 257.788 531.119 244.006C551.363 230.225 560.858 244.174 581.121 230.393C601.384 216.611 591.888 202.68 612.151 188.899C632.413 175.117 641.872 189.067 662.134 175.285C682.397 161.504 672.92 147.554 693.164 133.791" stroke="#E4EEFF" stroke-width="7.52" stroke-miterlimit="10"/>
<path d="M141.381 542.077C161.625 528.295 171.102 542.245 191.365 528.464C211.627 514.682 202.131 500.751 222.394 486.969C242.657 473.188 252.115 487.138 272.359 473.356C292.603 459.575 283.145 445.643 303.389 431.862C323.632 418.08 333.128 432.03 353.372 418.249C373.616 404.467 364.158 390.536 384.42 376.754C404.683 362.973 414.141 376.923 434.404 363.141C454.667 349.359 445.171 335.428 465.434 321.647C485.696 307.865 495.155 321.815 515.417 308.033C535.68 294.252 526.184 280.321 546.447 266.539C566.709 252.758 576.168 266.707 596.43 252.926C616.693 239.144 607.197 225.213 627.46 211.432C647.723 197.65 657.2 211.6 677.444 197.818C697.688 184.037 688.229 170.087 708.492 156.324" stroke="#E4EEFF" stroke-width="7.52" stroke-miterlimit="10"/>
<path d="M156.689 564.61C176.952 550.828 186.429 564.778 206.673 550.997C226.917 537.215 217.44 523.265 237.703 509.502C257.965 495.739 267.424 509.671 287.686 495.889C307.949 482.107 298.453 468.176 318.716 454.395C338.978 440.613 348.437 454.563 368.699 440.781C388.962 427 379.466 413.069 399.729 399.287C419.992 385.506 429.45 399.455 449.713 385.674C469.975 371.892 460.48 357.961 480.742 344.18C501.005 330.398 510.482 344.348 530.726 330.566C550.97 316.785 541.493 302.854 561.755 289.072C582.018 275.29 591.495 289.24 611.739 275.459C631.983 261.677 622.525 247.746 642.769 233.965C663.013 220.183 672.508 234.133 692.771 220.351C713.034 206.57 703.538 192.62 723.8 178.838" stroke="#E4EEFF" stroke-width="7.52" stroke-miterlimit="10"/>
<path d="M171.999 587.161C192.262 573.399 201.739 587.348 221.983 573.567C242.227 559.785 232.768 545.835 253.012 532.073C273.256 518.31 282.752 532.241 302.996 518.459C323.24 504.678 313.781 490.747 334.025 476.965C354.269 463.183 363.765 477.133 384.009 463.352C404.253 449.57 394.795 435.639 415.038 421.857C435.282 408.076 444.778 422.026 465.022 408.244C485.266 394.463 475.808 380.531 496.052 366.75C516.296 352.968 525.792 366.918 546.036 353.137C566.279 339.355 556.821 325.424 577.065 311.642C597.309 297.861 606.805 311.811 627.067 298.029C647.33 284.248 637.834 270.316 658.078 256.535C678.322 242.753 687.818 256.703 708.08 242.922C728.343 229.14 718.866 215.19 739.11 201.409" stroke="#E4EEFF" stroke-width="7.52" stroke-miterlimit="10"/>
<path d="M187.326 609.601C207.57 595.838 217.047 609.769 237.31 596.006C257.572 582.243 248.077 568.275 268.321 554.512C288.565 540.749 298.06 554.68 318.304 540.899C338.548 527.117 329.09 513.186 349.334 499.405C369.578 485.623 379.074 499.573 399.317 485.791C419.561 472.01 410.103 458.079 430.347 444.297C450.591 430.515 460.087 444.465 480.349 430.684C500.612 416.902 491.116 402.971 511.379 389.189C531.642 375.408 541.1 389.358 561.363 375.576C581.625 361.795 572.129 347.863 592.392 334.082C612.655 320.3 622.113 334.25 642.376 320.469C662.638 306.687 653.142 292.756 673.405 278.974C693.668 265.193 703.145 279.143 723.389 265.361C743.633 251.579 734.175 237.63 754.437 223.848" stroke="#E4EEFF" stroke-width="7.52" stroke-miterlimit="10"/>
<path d="M202.636 632.19C222.88 618.427 232.376 632.358 252.62 618.595C272.863 604.833 263.442 590.901 283.649 577.101C303.856 563.301 313.37 577.269 333.633 563.488C353.895 549.706 344.4 535.756 364.662 521.994C384.925 508.231 394.383 522.162 414.646 508.38C434.909 494.599 425.413 480.668 445.675 466.886C465.938 453.104 475.396 467.054 495.659 453.273C515.922 439.491 506.426 425.541 526.688 411.779C546.951 398.016 556.409 411.947 576.672 398.165C596.935 384.384 587.439 370.453 607.702 356.671C627.964 342.889 637.442 356.839 657.685 343.058C677.929 329.276 668.471 315.326 688.715 301.563C708.959 287.801 718.455 301.732 738.717 287.95C758.98 274.169 749.484 260.219 769.747 246.437" stroke="#E4EEFF" stroke-width="7.52" stroke-miterlimit="10"/>
</g>
</g>
</svg>
