<svg width="515" height="375" viewBox="0 0 515 375" fill="none" xmlns="http://www.w3.org/2000/svg">
<g opacity="0.1">
<mask id="mask0_20_5" style="mask-type:luminance" maskUnits="userSpaceOnUse" x="0" y="0" width="515" height="375">
<path d="M327.595 0.5C430.293 0.500148 513.626 83.4412 514.275 185.987L514.279 187.194C514.263 195.515 513.696 203.825 512.585 212.07L508.476 233.562C487.854 314.243 414.69 373.889 327.595 373.889H253.504C348.019 364.13 421.72 284.278 421.72 187.203C421.72 90.1129 347.946 10.2596 253.45 0.514648L327.595 0.5ZM233.497 0.518555V373.907H140.9V187.48L141.302 187.213L140.9 186.945V0.518555H233.497ZM139.498 187.213L0.5 279.875V94.5498L139.498 187.213Z" fill="white" stroke="white"/>
</mask>
<g mask="url(#mask0_20_5)">
<path d="M-84.3379 147.605C-67.8658 136.406 -60.157 147.745 -43.6942 136.546C-27.2314 125.347 -34.9308 114.017 -18.4961 102.818C-2.06127 91.6187 5.6753 102.958 22.1474 91.7586C38.6195 80.5594 30.9108 69.2203 47.3456 58.0211C63.7803 46.822 71.5265 58.161 87.9986 46.9619C104.471 35.7627 96.7619 24.4236 113.197 13.2245C129.632 2.02529 137.378 13.3644 153.85 2.16518C170.322 -9.03399 162.613 -20.3731 179.048 -31.5722C195.483 -42.7714 203.219 -31.4323 219.692 -42.6315C236.164 -53.8307 228.455 -65.1604 244.89 -76.3596C261.325 -87.5587 269.061 -76.229 285.533 -87.4282C302.006 -98.6274 294.297 -109.957 310.732 -121.156C327.166 -132.355 334.912 -121.026 351.384 -132.225C367.857 -143.424 360.148 -154.763 376.583 -165.962" stroke="#716D65" stroke-width="8.24" stroke-miterlimit="10"/>
<path d="M-71.8867 165.944C-55.4146 154.744 -47.706 166.084 -31.2339 154.884C-14.7618 143.685 -22.4799 132.346 -6.03577 121.147C10.4083 109.948 18.1452 121.287 34.6079 110.088C51.0707 98.8885 43.3713 87.5588 59.8061 76.3596C76.2408 65.1605 83.9777 76.4902 100.45 65.291C116.922 54.0919 109.213 42.7621 125.648 31.563C142.083 20.3638 149.829 31.7029 166.292 20.5037C182.754 9.30451 175.055 -2.03456 191.49 -13.2337C207.925 -24.4329 215.67 -13.0938 232.133 -24.293C248.596 -35.4922 240.897 -46.8312 257.331 -58.0304C273.766 -69.2296 281.512 -57.8905 297.984 -69.0897C314.456 -80.2889 306.738 -91.6279 323.183 -102.827C339.627 -114.026 347.363 -102.687 363.836 -113.886C380.308 -125.086 372.599 -136.425 389.034 -147.624" stroke="#716D65" stroke-width="8.24" stroke-miterlimit="10"/>
<path d="M-59.4004 184.236C-42.9283 173.037 -35.2195 184.376 -18.7567 173.177C-2.2939 161.977 -9.99333 150.648 6.44145 139.449C22.8762 128.249 30.613 139.588 47.0852 128.389C63.5573 117.19 55.8485 105.851 72.2833 94.6519C88.7181 83.4527 96.464 94.7918 112.936 83.5926C129.408 72.3934 121.699 61.0544 138.134 49.8552C154.569 38.656 162.315 49.9951 178.787 38.7959C195.259 27.5968 187.551 16.2577 203.985 5.05851C220.42 -6.14066 228.166 5.19841 244.638 -6.00076C261.111 -17.1999 253.402 -28.5297 269.837 -39.7288C286.271 -50.928 294.018 -39.5983 310.49 -50.7974C326.962 -61.9966 319.253 -73.3263 335.688 -84.5255C352.123 -95.7247 359.869 -84.395 376.341 -95.5941C392.813 -106.793 385.104 -118.132 401.539 -129.332" stroke="#716D65" stroke-width="8.24" stroke-miterlimit="10"/>
<path d="M-46.9805 202.556C-30.5084 191.356 -22.7995 202.696 -6.32743 191.496C10.1447 180.297 2.42659 168.958 18.8707 157.759C35.3148 146.56 43.0514 157.899 59.5142 146.7C75.977 135.5 68.2775 124.171 84.7123 112.972C101.147 101.772 108.884 113.111 125.356 101.912C141.828 90.7131 134.119 79.3741 150.554 68.1749C166.989 56.9757 174.726 68.3148 191.198 57.1156C207.67 45.9165 199.961 34.5774 216.396 23.3782C232.831 12.179 240.577 23.5181 257.04 12.3189C273.502 1.11977 265.803 -10.2193 282.238 -21.4185C298.673 -32.6176 306.419 -21.2786 322.882 -32.4777C339.344 -43.6769 331.645 -55.016 348.08 -66.2152C364.514 -77.4143 372.26 -66.0753 388.732 -77.2744C405.205 -88.4736 397.496 -99.8127 413.931 -111.012" stroke="#716D65" stroke-width="8.24" stroke-miterlimit="10"/>
<path d="M-34.5195 220.867C-18.0474 209.667 -10.3479 221.006 6.12418 209.807C22.5963 198.608 14.8875 187.278 31.3223 176.079C47.7571 164.88 55.5032 176.219 71.9754 165.02C88.4475 153.821 80.7294 142.482 97.1735 131.282C113.618 120.083 121.354 131.422 137.817 120.223C154.28 109.024 146.581 97.685 163.015 86.4858C179.45 75.2866 187.196 86.6257 203.668 75.4265C220.14 64.2274 212.432 52.8976 228.866 41.6985C245.301 30.4993 253.047 41.829 269.519 30.6299C285.991 19.4307 278.283 8.10095 294.717 -3.09822C311.152 -14.2974 318.898 -2.96766 335.371 -14.1668C351.843 -25.366 344.134 -36.6957 360.569 -47.8949C377.003 -59.0941 384.75 -47.7643 401.222 -58.9635C417.694 -70.1627 409.994 -81.5018 426.467 -92.7009" stroke="#716D65" stroke-width="8.24" stroke-miterlimit="10"/>
<path d="M-22.0703 239.186C-5.5982 227.987 2.11061 239.326 18.5734 228.127C35.0362 216.928 27.3367 205.589 43.7715 194.39C60.2063 183.19 67.9431 194.529 84.4152 183.33C100.887 172.131 93.1786 160.801 109.613 149.602C126.048 138.403 133.794 149.742 150.266 138.543C166.738 127.344 159.03 116.005 175.464 104.806C191.899 93.6063 199.636 104.945 216.108 93.7462C232.58 82.5471 224.871 71.208 241.306 60.0088C257.741 48.8097 265.478 60.1487 281.95 48.9496C298.422 37.7504 290.713 26.4113 307.148 15.2121C323.583 4.01297 331.32 15.352 347.792 4.15287C364.264 -7.0463 356.555 -18.3854 372.99 -29.5845C389.425 -40.7837 397.171 -29.4446 413.643 -40.6438C430.115 -51.843 422.406 -63.1821 438.841 -74.3812" stroke="#716D65" stroke-width="8.24" stroke-miterlimit="10"/>
<path d="M-9.61133 257.507C6.85145 246.308 14.56 257.637 31.0321 246.438C47.5043 235.239 39.7955 223.909 56.2303 212.71C72.6651 201.511 80.4112 212.85 96.874 201.651C113.337 190.452 105.637 179.113 122.072 167.913C138.507 156.714 146.253 168.053 162.716 156.854C179.179 145.655 171.479 134.325 187.914 123.126C204.349 111.927 212.095 123.257 228.558 112.057C245.02 100.858 237.321 89.5285 253.756 78.3293C270.191 67.1302 277.937 78.4599 294.409 67.2607C310.881 56.0615 303.163 44.7318 319.607 33.5326C336.051 22.3335 343.788 33.6632 360.26 22.464C376.732 11.2649 369.023 -0.0648713 385.458 -11.264C401.893 -22.4632 409.639 -11.1335 426.111 -22.3327C442.583 -33.5318 434.874 -44.8709 451.309 -56.0701" stroke="#716D65" stroke-width="8.24" stroke-miterlimit="10"/>
<path d="M2.83789 275.817C19.31 264.618 27.0188 275.957 43.4816 264.758C59.9444 253.559 52.2449 242.219 68.6797 231.02C85.1145 219.821 92.8513 231.16 109.323 219.961C125.796 208.762 118.087 197.432 134.522 186.233C150.956 175.034 158.703 186.373 175.175 175.174C191.647 163.974 183.938 152.635 200.373 141.436C216.808 130.237 224.553 141.576 241.026 130.377C257.498 119.178 249.789 107.839 266.224 96.6396C282.658 85.4404 290.395 96.7795 306.867 85.5803C323.34 74.3811 315.631 63.0421 332.066 51.8429C348.5 40.6437 356.237 51.9828 372.709 40.7836C389.181 29.5844 381.473 18.2454 397.907 7.0462C414.342 -4.15298 422.088 7.18609 438.56 -4.01308C455.033 -15.2122 447.324 -26.5513 463.759 -37.7505" stroke="#716D65" stroke-width="8.24" stroke-miterlimit="10"/>
<path d="M15.2598 294.137C31.7225 282.938 39.4314 294.268 55.9035 283.069C72.3756 271.869 64.6668 260.54 81.1016 249.341C97.5364 238.141 105.283 249.48 121.745 238.281C138.208 227.082 130.509 215.743 146.943 204.544C163.378 193.345 171.115 204.684 187.587 193.485C204.059 182.285 196.35 170.956 212.785 159.757C229.22 148.557 236.966 159.887 253.429 148.688C269.892 137.489 262.192 126.159 278.627 114.96C295.062 103.761 302.808 115.09 319.271 103.891C335.733 92.692 328.034 81.3623 344.469 70.1631C360.903 58.964 368.65 70.303 385.122 59.1039C401.594 47.9047 393.876 36.5656 410.32 25.3665C426.764 14.1673 434.501 25.497 450.973 14.2978C467.445 3.09867 459.736 -8.23107 476.171 -19.4396" stroke="#716D65" stroke-width="8.24" stroke-miterlimit="10"/>
<path d="M27.7461 312.466C44.2182 301.267 51.927 312.606 68.3898 301.407C84.8526 290.208 77.1531 278.869 93.5879 267.679C110.023 256.489 117.76 267.809 134.232 256.61C150.704 245.411 142.995 234.081 159.43 222.882C175.865 211.683 183.611 223.022 200.083 211.823C216.555 200.624 208.846 189.285 225.281 178.086C241.716 166.886 249.462 178.225 265.934 167.026C282.406 155.827 274.697 144.488 291.132 133.289C307.567 122.09 315.303 133.429 331.776 122.23C348.248 111.03 340.539 99.6913 356.974 88.4922C373.409 77.293 381.155 88.6321 397.627 77.4329C414.099 66.2337 406.39 54.8947 422.825 43.7048C439.26 32.515 447.006 43.8354 463.478 32.6362C479.95 21.437 472.241 10.098 488.676 -1.1012" stroke="#716D65" stroke-width="8.24" stroke-miterlimit="10"/>
<path d="M40.1953 330.768C56.6674 319.569 64.3762 330.898 80.8484 319.708C97.3205 308.519 89.6024 297.17 106.046 285.971C122.491 274.772 130.227 286.111 146.69 274.912C163.153 263.713 155.454 252.374 171.888 241.184C188.323 229.994 196.06 241.314 212.532 230.115C229.004 218.916 221.295 207.586 237.73 196.387C254.165 185.188 261.902 196.518 278.374 185.318C294.846 174.119 287.137 162.789 303.572 151.59C320.007 140.391 327.753 151.721 344.215 140.531C360.678 129.341 352.979 117.993 369.414 106.794C385.848 95.5945 393.595 106.934 410.057 95.7344C426.52 84.5352 418.821 73.1961 435.255 61.9969C451.69 50.7978 459.436 62.1368 475.908 50.9283C492.381 39.7198 484.672 28.3994 501.107 17.1909" stroke="#716D65" stroke-width="8.24" stroke-miterlimit="10"/>
<path d="M52.6562 349.078C69.1284 337.879 76.8278 349.218 93.3 338.019C109.772 326.82 102.063 315.49 118.498 304.291C134.933 293.092 142.679 304.421 159.151 293.232C175.623 282.042 167.905 270.693 184.349 259.494C200.793 248.295 208.53 259.634 224.993 248.435C241.456 237.236 233.756 225.897 250.191 214.697C266.626 203.498 274.372 214.837 290.844 203.638C307.316 192.439 299.607 181.1 316.042 169.901C332.477 158.702 340.223 170.041 356.695 158.842C373.167 147.642 365.458 136.303 381.893 125.104C398.328 113.905 406.074 125.244 422.546 114.045C439.018 102.846 431.309 91.5159 447.744 80.3168C464.179 69.1176 471.916 80.4473 488.388 69.2482C504.86 58.049 497.161 46.7099 513.633 35.5107" stroke="#716D65" stroke-width="8.24" stroke-miterlimit="10"/>
<path d="M65.1055 367.398C81.5776 356.199 89.2864 367.529 105.759 356.339C122.231 345.149 114.513 333.801 130.957 322.601C147.401 311.402 155.128 322.741 171.6 311.542C188.072 300.343 180.364 289.013 196.798 277.814C213.233 266.615 220.97 277.945 237.442 266.745C253.914 255.546 246.206 244.217 262.64 233.017C279.075 221.818 286.812 233.148 303.284 221.949C319.756 210.75 312.047 199.42 328.482 188.221C344.917 177.022 352.654 188.351 369.126 177.161C385.598 165.972 377.889 154.623 394.324 143.424C410.759 132.225 418.495 143.564 434.967 132.365C451.44 121.166 443.731 109.827 460.166 98.6274C476.6 87.4282 484.347 98.7673 500.819 87.5588C517.291 76.3503 509.582 65.0299 526.017 53.8307" stroke="#716D65" stroke-width="8.24" stroke-miterlimit="10"/>
<path d="M77.5645 385.709C94.0272 374.51 101.736 385.849 118.208 374.65C134.68 363.45 126.972 352.121 143.406 340.922C159.841 329.722 167.587 341.052 184.05 329.862C200.513 318.672 192.813 307.324 209.248 296.125C225.683 284.926 233.429 296.265 249.892 285.066C266.354 273.866 258.655 262.527 275.09 251.328C291.525 240.129 299.271 251.468 315.733 240.269C332.196 229.07 324.497 217.731 340.932 206.532C357.366 195.332 365.113 206.671 381.585 195.472C398.057 184.273 390.339 172.943 406.783 161.744C423.227 150.545 430.964 161.875 447.436 150.676C463.908 139.476 456.199 128.147 472.634 116.948C489.069 105.748 496.815 117.078 513.287 105.879C529.759 94.6797 522.05 83.3407 538.532 72.1415" stroke="#716D65" stroke-width="8.24" stroke-miterlimit="10"/>
<path d="M90.0156 404.029C106.488 392.83 114.196 404.16 130.659 392.97C147.122 381.78 139.422 370.431 155.857 359.232C172.292 348.033 180.029 359.372 196.501 348.173C212.973 336.974 205.264 325.644 221.699 314.445C238.134 303.246 245.88 314.576 262.352 303.376C278.824 292.177 271.115 280.847 287.55 269.648C303.985 258.449 311.722 269.779 328.194 258.589C344.666 247.399 336.957 236.051 353.392 224.852C369.827 213.652 377.564 224.991 394.036 213.792C410.508 202.593 402.799 191.254 419.234 180.055C435.669 168.856 443.405 180.195 459.877 168.996C476.349 157.796 468.641 146.457 485.076 135.258C501.51 124.059 509.256 135.398 525.729 124.199C542.201 113 534.492 101.661 550.927 90.4615" stroke="#716D65" stroke-width="8.24" stroke-miterlimit="10"/>
<path d="M102.473 422.339C118.935 411.14 126.644 422.479 143.116 411.28C159.588 400.081 151.88 388.751 168.314 377.552C184.749 366.353 192.495 377.692 208.958 366.493C225.421 355.294 217.722 343.955 234.156 332.755C250.591 321.556 258.328 332.895 274.8 321.696C291.272 310.497 283.563 299.158 299.998 287.959C316.433 276.76 324.179 288.099 340.642 276.899C357.104 265.7 349.405 254.361 365.84 243.162C382.275 231.963 390.021 243.302 406.483 232.103C422.946 220.904 415.247 209.574 431.682 198.375C448.116 187.176 455.863 198.505 472.335 187.306C488.807 176.107 481.089 164.777 497.533 153.578C513.977 142.379 521.714 153.709 538.186 142.509C554.658 131.31 546.949 119.971 563.384 108.772" stroke="#716D65" stroke-width="8.24" stroke-miterlimit="10"/>
<path d="M114.924 440.659C131.396 429.46 139.105 440.799 155.568 429.6C172.03 418.401 164.331 407.062 180.766 395.863C197.2 384.664 204.937 396.003 221.409 384.804C237.881 373.604 230.172 362.275 246.607 351.075C263.042 339.876 270.788 351.206 287.26 340.007C303.732 328.808 296.024 317.478 312.458 306.279C328.893 295.08 336.639 306.419 353.111 295.22C369.584 284.02 361.875 272.681 378.31 261.482C394.744 250.283 402.481 261.622 418.953 250.423C435.425 239.224 427.717 227.885 444.151 216.685C460.586 205.486 468.323 216.825 484.795 205.626C501.267 194.427 493.559 183.088 509.993 171.889C526.428 160.69 534.174 172.029 550.646 160.829C567.118 149.63 559.409 138.291 575.844 127.092" stroke="#716D65" stroke-width="8.24" stroke-miterlimit="10"/>
<path d="M127.371 458.989C143.843 447.79 151.552 459.129 168.024 447.93C184.496 436.73 176.778 425.401 193.222 414.201C209.666 403.002 217.403 414.341 233.866 403.142C250.329 391.943 242.629 380.604 259.064 369.405C275.499 358.206 283.236 369.545 299.708 358.346C316.18 347.146 308.471 335.807 324.906 324.608C341.341 313.409 349.078 324.748 365.55 313.549C382.022 302.35 374.313 291.011 390.748 279.811C407.183 268.612 414.928 279.951 431.391 268.752C447.854 257.553 440.155 246.223 456.589 235.024C473.024 223.825 480.77 235.155 497.233 223.955C513.696 212.756 505.996 201.427 522.431 190.227C538.866 179.028 546.612 190.358 563.084 179.159C579.556 167.96 571.848 156.621 588.282 145.421" stroke="#716D65" stroke-width="8.24" stroke-miterlimit="10"/>
<path d="M139.832 477.29C156.304 466.091 164.004 477.43 180.476 466.231C196.948 455.031 189.239 443.692 205.674 432.493C222.109 421.294 229.855 432.633 246.327 421.434C262.799 410.235 255.081 398.905 271.525 387.706C287.969 376.507 295.706 387.846 312.178 376.647C328.65 365.447 320.932 354.108 337.376 342.909C353.82 331.71 361.557 343.049 378.029 331.85C394.501 320.651 386.792 309.312 403.227 298.112C419.662 286.913 427.408 298.252 443.88 287.053C460.352 275.854 452.644 264.515 469.078 253.316C485.513 242.117 493.259 253.456 509.731 242.257C526.204 231.057 518.495 219.718 534.93 208.519C551.364 197.32 559.101 208.659 575.582 197.46C592.064 186.261 584.346 174.922 600.78 163.722" stroke="#716D65" stroke-width="8.24" stroke-miterlimit="10"/>
<path d="M152.281 495.6C168.753 484.401 176.462 495.74 192.934 484.541C209.406 473.342 201.688 462.012 218.132 450.813C234.576 439.614 242.304 450.953 258.776 439.754C275.248 428.554 267.539 417.215 283.974 406.016C300.409 394.817 308.146 406.156 324.618 394.957C341.09 383.758 333.381 372.419 349.816 361.219C366.251 350.02 373.987 361.359 390.46 350.16C406.932 338.961 399.223 327.631 415.658 316.432C432.092 305.233 439.829 316.563 456.301 305.363C472.774 294.164 465.065 282.835 481.5 271.635C497.934 260.436 505.671 271.766 522.143 260.567C538.615 249.368 530.906 238.038 547.341 226.839C563.776 215.64 571.522 226.969 587.994 215.77C604.466 204.571 596.758 193.232 613.192 182.033" stroke="#716D65" stroke-width="8.24" stroke-miterlimit="10"/>
<path d="M164.74 513.921C181.203 502.722 188.912 514.061 205.384 502.861C221.856 491.662 214.147 480.323 230.582 469.124C247.017 457.925 254.763 469.264 271.235 458.065C287.707 446.866 279.989 435.536 296.433 424.337C312.877 413.138 320.614 424.477 337.077 413.277C353.54 402.078 345.84 390.739 362.275 379.54C378.71 368.341 386.456 379.68 402.928 368.481C419.4 357.282 411.682 345.942 428.126 334.743C444.57 323.544 452.307 334.883 468.779 323.684C485.251 312.485 477.533 301.146 493.977 289.947C510.421 278.747 518.158 290.087 534.63 278.887C551.102 267.688 543.394 256.349 559.828 245.15C576.263 233.951 584.009 245.29 600.481 234.091C616.954 222.892 609.245 211.552 625.68 200.353" stroke="#716D65" stroke-width="8.24" stroke-miterlimit="10"/>
<path d="M177.191 532.24C193.664 521.041 201.372 532.371 217.835 521.172C234.298 509.973 226.598 498.643 243.033 487.444C259.468 476.245 267.205 487.584 283.677 476.384C300.149 465.185 292.44 453.846 308.875 442.647C325.31 431.448 333.056 442.787 349.528 431.588C366 420.389 358.291 409.049 374.726 397.85C391.161 386.651 398.898 397.99 415.37 386.791C431.842 375.592 424.133 364.262 440.568 353.063C457.003 341.864 464.739 353.194 481.212 341.994C497.684 330.795 489.975 319.465 506.41 308.266C522.844 297.067 530.581 308.397 547.053 297.198C563.526 285.998 555.817 274.669 572.252 263.47C588.686 252.27 596.432 263.6 612.904 252.401C629.376 241.202 621.668 229.863 638.102 218.664" stroke="#716D65" stroke-width="8.24" stroke-miterlimit="10"/>
</g>
</g>
</svg>
