<svg width="211" height="461" viewBox="0 0 211 461" fill="none" xmlns="http://www.w3.org/2000/svg">
<g opacity="0.1">
<mask id="mask0_20_4" style="mask-type:luminance" maskUnits="userSpaceOnUse" x="0" y="-1" width="634" height="462">
<path d="M402.907 0.49585C463.344 0.505738 521.322 24.3425 564.291 66.8044L565.304 67.8113C608.036 110.567 632.189 168.432 632.563 228.853L632.567 230.281C632.544 240.513 631.848 250.732 630.482 260.873L625.421 287.351C612.939 335.988 584.887 379.177 545.584 410.341L543.703 411.815C503.411 443.086 453.865 460.06 402.869 460.065H309.316C362.463 455.082 412.459 431.772 450.551 393.826L451.559 392.816C494.089 349.921 518.094 292.066 518.455 231.688L518.459 230.261C518.456 169.853 494.778 111.873 452.541 68.7527L451.54 67.7371C413.322 29.1976 362.91 5.52179 309.292 0.49585H402.907ZM287.243 0.49585V460.065H173.209V230.549L173.61 230.281L173.209 230.013V0.49585H287.243ZM171.808 230.281L0.546875 344.498V116.081L171.808 230.281Z" fill="white" stroke="white"/>
</mask>
<g mask="url(#mask0_20_4)">
<path d="M-103.658 181.55C-83.4143 167.787 -73.9372 181.718 -53.6745 167.955C-33.4119 154.192 -42.9076 140.242 -22.5515 126.461C-2.19543 112.679 7.16948 126.629 27.4321 112.848C47.6948 99.066 38.199 85.1349 58.443 71.3533C78.6869 57.5718 88.1827 71.5216 108.445 57.7401C128.708 43.9585 119.212 30.0273 139.475 16.2458C159.737 2.46422 169.196 16.4141 189.458 2.63251C209.721 -11.149 200.225 -25.0802 220.488 -38.8618C240.751 -52.6433 250.209 -38.6935 270.472 -52.475C290.734 -66.2566 281.239 -80.1878 301.501 -93.9693C321.764 -107.751 331.222 -93.801 351.485 -107.583C371.747 -121.364 362.252 -135.314 382.514 -149.077C402.777 -162.84 412.254 -148.909 432.498 -162.69C452.742 -176.472 443.284 -190.422 463.546 -204.203" stroke="#716D65" stroke-width="7.52" stroke-miterlimit="10"/>
<path d="M-88.3496 204.083C-68.087 190.32 -58.6099 204.251 -38.366 190.488C-18.122 176.725 -27.599 162.682 -7.33638 148.994C12.9263 135.306 22.3846 149.162 42.6473 135.381C62.9099 121.599 53.4141 107.649 73.6767 93.8863C93.9394 80.1234 103.398 94.0546 123.66 80.273C143.923 66.4914 134.465 52.5416 154.69 38.7787C174.915 25.0158 184.411 38.947 204.674 25.1654C224.936 11.3839 215.44 -2.56598 235.703 -16.3288C255.966 -30.0917 265.443 -16.1605 285.687 -29.9421C305.931 -43.7237 296.472 -57.6548 316.716 -71.4364C336.96 -85.218 346.456 -71.2681 366.7 -85.0497C386.944 -98.8312 377.486 -112.781 397.73 -126.544C417.974 -140.307 427.469 -126.376 447.732 -140.157C467.994 -153.939 458.499 -167.889 478.761 -181.67" stroke="#716D65" stroke-width="7.52" stroke-miterlimit="10"/>
<path d="M-73.0215 226.616C-52.7588 212.853 -43.2818 226.784 -23.0378 213.021C-2.79388 199.258 -12.2522 185.29 7.99175 171.527C28.2357 157.764 37.7315 171.695 57.9754 157.914C78.2194 144.132 68.7609 130.182 89.0049 116.419C109.249 102.656 118.745 116.588 138.989 102.806C159.232 89.0244 149.774 75.0746 170.018 61.3117C190.262 47.5488 199.758 61.48 220.002 47.6984C240.246 33.9169 230.787 19.967 251.031 6.20414C271.275 -7.55872 280.771 6.37244 301.015 -7.40912C321.259 -21.1907 311.801 -35.1405 332.044 -48.9034C352.288 -62.6663 361.784 -48.7351 382.047 -62.5167C402.309 -76.2982 392.814 -90.2481 413.076 -104.011C433.339 -117.774 442.797 -103.843 463.06 -117.624C483.323 -131.406 473.846 -145.356 494.09 -159.137" stroke="#716D65" stroke-width="7.52" stroke-miterlimit="10"/>
<path d="M-57.7129 249.149C-37.4689 235.386 -27.9919 249.317 -7.72923 235.554C12.5334 221.791 3.03768 207.823 23.2816 194.041C43.5256 180.259 53.0213 194.228 73.2653 180.446C93.5092 166.665 84.0508 152.715 104.295 138.952C124.539 125.189 134.034 139.12 154.278 125.339C174.522 111.557 165.064 97.6075 185.308 83.8446C205.552 70.0817 215.048 84.0129 235.31 70.2313C255.573 56.4498 246.077 42.4999 266.34 28.7371C286.602 14.9742 296.061 28.9053 316.323 15.1238C336.586 1.34221 327.09 -12.6076 347.353 -26.3705C367.616 -40.1334 377.074 -26.2022 397.337 -39.9838C417.599 -53.7653 408.104 -67.7152 428.366 -81.4781C448.629 -95.2409 458.106 -81.3098 478.35 -95.0913C498.594 -108.873 489.135 -122.823 509.398 -136.604" stroke="#716D65" stroke-width="7.52" stroke-miterlimit="10"/>
<path d="M-42.4023 271.681C-22.1584 257.9 -12.6626 271.85 7.58131 258.087C27.8253 244.324 18.3481 230.356 38.6108 216.574C58.8734 202.792 68.3319 216.742 88.5945 202.979C108.857 189.217 99.3614 175.248 119.624 161.485C139.887 147.722 149.345 161.653 169.608 147.872C189.87 134.09 180.375 120.14 200.637 106.378C220.9 92.6147 230.358 106.546 250.621 92.7643C270.884 78.9827 261.388 65.0329 281.65 51.27C301.913 37.5071 311.39 51.4383 331.634 37.6567C351.878 23.8752 342.401 9.92531 362.664 -3.74405C382.926 -17.4134 392.422 -3.74405 412.647 -17.4508C432.872 -31.1576 423.433 -45.1822 443.677 -58.9451C463.921 -72.708 473.417 -58.7955 493.679 -72.5584C513.942 -86.3212 504.446 -100.29 524.709 -114.071" stroke="#716D65" stroke-width="7.52" stroke-miterlimit="10"/>
<path d="M-27.0938 294.214C-6.83111 280.433 2.64596 294.383 22.8899 280.62C43.1339 266.857 33.6754 252.888 53.9194 239.107C74.1633 225.325 83.6592 239.275 103.903 225.512C124.147 211.749 114.67 197.781 134.933 184.018C155.195 170.255 164.672 184.186 184.916 170.405C205.16 156.623 195.702 142.673 215.946 128.911C236.19 115.148 245.686 129.079 265.929 115.297C286.173 101.516 276.715 87.5658 296.959 73.7843C317.203 60.0027 326.699 73.9713 346.943 60.1897C367.187 46.4081 357.728 32.4583 377.972 18.6954C398.216 4.93255 407.712 18.8637 427.956 5.08215C448.2 -8.69941 438.741 -22.6493 458.985 -36.4121C479.229 -50.175 488.725 -36.2625 508.988 -50.0254C529.25 -63.7883 519.755 -77.7568 540.017 -91.5384" stroke="#716D65" stroke-width="7.52" stroke-miterlimit="10"/>
<path d="M-11.7656 316.747C8.47832 302.966 17.9554 316.916 38.218 303.134C58.4807 289.353 48.9848 275.421 69.2288 261.64C89.4727 247.858 98.9686 261.808 119.213 248.045C139.457 234.282 129.998 220.314 150.242 206.532C170.486 192.751 179.982 206.719 200.226 192.938C220.47 179.156 211.105 165.206 231.255 151.462C251.406 137.718 260.995 151.63 281.239 137.868C301.483 124.105 292.024 110.136 312.287 96.3546C332.55 82.573 342.008 96.5229 362.271 82.76C382.533 68.9971 373.038 55.0286 393.3 41.247C413.563 27.4655 423.021 41.4153 443.284 27.6525C463.547 13.8896 454.051 -0.0789672 474.314 -13.8605C494.576 -27.6421 504.053 -13.6922 524.297 -27.4551C544.541 -41.218 535.083 -55.1865 555.345 -68.9681" stroke="#716D65" stroke-width="7.52" stroke-miterlimit="10"/>
<path d="M3.61719 339.28C23.8611 325.499 33.3382 339.449 53.6008 325.667C73.8635 311.886 64.3678 297.954 84.6304 284.173C104.893 270.391 114.351 284.341 134.614 270.578C154.877 256.815 145.381 242.847 165.644 229.065C185.906 215.284 195.365 229.234 215.627 215.471C235.89 201.708 226.319 187.739 246.619 173.902C266.919 160.064 276.34 174.07 296.603 160.307C316.866 146.544 307.37 132.576 327.633 118.794C347.895 105.012 357.354 118.962 377.616 105.199C397.879 91.4366 388.383 77.468 408.646 63.6865C428.908 49.9049 438.386 63.8548 458.63 50.0919C478.873 36.329 469.378 22.4353 489.622 8.63502C509.866 -5.16524 519.361 8.80331 539.624 -4.97825C559.887 -18.7598 550.391 -32.691 570.653 -46.4725" stroke="#716D65" stroke-width="7.52" stroke-miterlimit="10"/>
<path d="M18.8516 361.813C39.1142 348.032 48.5913 361.982 68.8352 348.2C89.0792 334.418 79.6207 320.487 99.8647 306.706C120.109 292.924 129.604 306.874 149.848 293.111C170.092 279.348 160.615 265.38 180.878 251.598C201.141 237.817 210.599 251.766 230.862 238.004C251.124 224.241 241.628 210.272 261.891 196.491C282.154 182.709 291.631 196.659 311.875 182.896C332.119 169.133 322.66 155.165 342.904 141.383C363.148 127.602 372.644 141.551 392.888 127.789C413.132 114.026 403.673 100.057 423.917 86.2755C444.161 72.494 453.657 86.4438 473.901 72.681C494.145 58.9181 484.687 44.9495 504.931 31.168C525.174 17.3864 534.67 31.3363 554.933 17.5547C575.196 3.77315 565.7 -10.158 585.963 -23.9396" stroke="#716D65" stroke-width="7.52" stroke-miterlimit="10"/>
<path d="M34.1797 384.346C54.4236 370.565 63.9008 384.515 84.1635 370.733C104.426 356.951 94.9303 343.02 115.174 329.239C135.418 315.457 144.914 329.407 165.158 315.644C185.402 301.881 175.943 287.969 196.15 274.131C216.357 260.293 225.89 274.299 246.134 260.537C266.378 246.774 256.919 232.805 277.163 219.024C297.407 205.242 306.903 219.192 327.147 205.429C347.391 191.666 337.932 177.698 358.176 163.916C378.42 150.134 387.916 164.084 408.179 150.321C428.442 136.559 418.946 122.59 439.208 108.808C459.471 95.0269 468.929 108.977 489.192 95.2139C509.455 81.4511 499.959 67.4825 520.221 53.7009C540.484 39.9194 549.942 53.8692 570.205 40.0877C590.468 26.3061 580.991 12.3749 601.235 -1.40662" stroke="#716D65" stroke-width="7.52" stroke-miterlimit="10"/>
<path d="M49.4883 406.879C69.7322 393.098 79.2094 407.047 99.4721 393.266C119.735 379.484 110.239 365.553 130.502 351.772C150.764 337.99 160.223 351.94 180.485 338.158C200.748 324.377 191.252 310.446 211.496 296.664C231.74 282.883 241.236 296.832 261.498 283.07C281.761 269.307 272.265 255.338 292.528 241.557C312.79 227.775 322.249 241.725 342.512 227.962C362.774 214.199 353.278 200.231 373.541 186.449C393.804 172.667 403.262 186.617 423.525 172.854C443.787 159.092 434.292 145.123 454.554 131.341C474.817 117.56 484.275 131.51 504.538 117.728C524.8 103.947 515.305 90.0155 535.567 76.2339C555.83 62.4523 565.307 76.4022 585.551 62.6206C605.795 48.8391 596.337 34.9079 616.599 21.1263" stroke="#716D65" stroke-width="7.52" stroke-miterlimit="10"/>
<path d="M64.7988 429.412C85.0615 415.631 94.5385 429.58 114.782 415.799C135.026 402.017 125.568 388.086 145.812 374.305C166.056 360.523 175.552 374.473 195.796 360.691C216.04 346.91 206.563 332.979 226.825 319.197C247.088 305.415 256.546 319.365 276.809 305.584C297.072 291.802 287.576 277.871 307.838 264.09C328.101 250.308 337.578 264.258 357.822 250.495C378.066 236.732 368.608 222.764 388.852 208.982C409.096 195.2 418.591 209.15 438.835 195.369C459.079 181.587 449.621 167.656 469.865 153.874C490.109 140.093 499.605 154.043 519.849 140.261C540.092 126.48 530.634 112.548 550.878 98.7669C571.122 84.9853 580.618 98.9351 600.88 85.1536C621.143 71.372 611.647 57.4409 631.91 43.6593" stroke="#716D65" stroke-width="7.52" stroke-miterlimit="10"/>
<path d="M80.1074 451.945C100.37 438.164 109.847 452.113 130.091 438.332C150.335 424.55 140.877 410.619 161.121 396.838C181.365 383.056 190.86 397.006 211.104 383.224C231.348 369.443 221.89 355.512 242.134 341.73C262.378 327.948 271.874 341.898 292.118 328.117C312.361 314.335 302.903 300.404 323.147 286.622C343.391 272.841 352.887 286.791 373.131 273.009C393.375 259.228 383.916 245.296 404.16 231.515C424.404 217.733 433.9 231.683 454.144 217.902C474.388 204.12 464.929 190.189 485.173 176.407C505.417 162.626 514.913 176.576 535.176 162.794C555.438 149.012 545.943 135.081 566.205 121.3C586.468 107.518 595.926 121.468 616.189 107.686C636.451 93.9049 626.975 79.9738 647.219 66.1922" stroke="#716D65" stroke-width="7.52" stroke-miterlimit="10"/>
<path d="M95.4355 474.478C115.679 460.697 125.157 474.646 145.419 460.865C165.682 447.083 156.186 433.152 176.449 419.371C196.711 405.589 206.17 419.539 226.432 405.757C246.695 391.976 237.199 378.045 257.443 364.263C277.687 350.481 287.183 364.431 307.446 350.65C327.708 336.868 318.212 322.937 338.475 309.155C358.738 295.374 368.196 309.324 388.459 295.542C408.721 281.761 399.226 267.829 419.488 254.048C439.751 240.266 449.209 254.216 469.472 240.435C489.735 226.653 480.239 212.722 500.501 198.94C520.764 185.159 530.223 199.109 550.485 185.327C570.748 171.545 561.252 157.614 581.515 143.833C601.777 130.051 611.254 144.001 631.498 130.22C651.742 116.438 642.284 102.507 662.547 88.7252" stroke="#716D65" stroke-width="7.52" stroke-miterlimit="10"/>
<path d="M110.744 497.011C131.007 483.229 140.484 497.179 160.728 483.398C180.972 469.616 171.495 455.685 191.757 441.903C212.02 428.122 221.478 442.072 241.741 428.29C262.004 414.509 252.508 400.578 272.77 386.796C293.033 373.014 302.492 386.964 322.754 373.183C343.017 359.401 333.521 345.47 353.784 331.688C374.046 317.907 383.505 331.857 403.767 318.075C424.03 304.294 414.534 290.362 434.797 276.581C455.06 262.799 464.537 276.749 484.781 262.968C505.025 249.186 495.566 235.255 515.81 221.473C536.054 207.692 545.55 221.642 565.794 207.86C586.038 194.078 576.579 180.147 596.823 166.366C617.067 152.584 626.563 166.534 646.826 152.752C667.088 138.971 657.592 125.021 677.855 111.258" stroke="#716D65" stroke-width="7.52" stroke-miterlimit="10"/>
<path d="M126.053 519.544C146.315 505.762 155.792 519.712 176.036 505.931C196.28 492.149 186.822 478.218 207.066 464.436C227.31 450.655 236.806 464.605 257.05 450.823C277.294 437.042 267.835 423.11 288.079 409.329C308.323 395.547 317.819 409.497 338.063 395.716C358.307 381.934 348.848 368.003 369.092 354.221C389.336 340.44 398.832 354.39 419.076 340.608C439.32 326.826 429.861 312.895 450.105 299.114C470.349 285.332 479.845 299.282 500.089 285.5C520.333 271.719 510.875 257.788 531.119 244.006C551.363 230.225 560.858 244.174 581.121 230.393C601.384 216.611 591.888 202.68 612.151 188.899C632.413 175.117 641.872 189.067 662.134 175.285C682.397 161.504 672.92 147.554 693.164 133.791" stroke="#716D65" stroke-width="7.52" stroke-miterlimit="10"/>
<path d="M141.381 542.077C161.625 528.295 171.102 542.245 191.365 528.464C211.627 514.682 202.131 500.751 222.394 486.969C242.657 473.188 252.115 487.138 272.359 473.356C292.603 459.575 283.145 445.643 303.389 431.862C323.632 418.08 333.128 432.03 353.372 418.249C373.616 404.467 364.158 390.536 384.42 376.754C404.683 362.973 414.141 376.923 434.404 363.141C454.667 349.359 445.171 335.428 465.434 321.647C485.696 307.865 495.155 321.815 515.417 308.033C535.68 294.252 526.184 280.321 546.447 266.539C566.709 252.758 576.168 266.707 596.43 252.926C616.693 239.144 607.197 225.213 627.46 211.432C647.723 197.65 657.2 211.6 677.444 197.818C697.688 184.037 688.229 170.087 708.492 156.324" stroke="#716D65" stroke-width="7.52" stroke-miterlimit="10"/>
<path d="M156.691 564.61C176.954 550.828 186.431 564.778 206.675 550.997C226.919 537.215 217.442 523.265 237.705 509.502C257.967 495.739 267.426 509.671 287.688 495.889C307.951 482.107 298.455 468.176 318.718 454.395C338.98 440.613 348.439 454.563 368.701 440.781C388.964 427 379.468 413.069 399.731 399.287C419.994 385.506 429.452 399.455 449.715 385.674C469.977 371.892 460.481 357.961 480.744 344.18C501.007 330.398 510.484 344.348 530.728 330.566C550.972 316.785 541.495 302.854 561.757 289.072C582.02 275.29 591.497 289.24 611.741 275.459C631.985 261.677 622.527 247.746 642.771 233.965C663.015 220.183 672.51 234.133 692.773 220.351C713.036 206.57 703.54 192.62 723.802 178.838" stroke="#716D65" stroke-width="7.52" stroke-miterlimit="10"/>
<path d="M172 587.161C192.263 573.399 201.74 587.348 221.984 573.567C242.228 559.785 232.769 545.835 253.013 532.073C273.257 518.31 282.753 532.241 302.997 518.459C323.241 504.678 313.782 490.747 334.026 476.965C354.27 463.183 363.766 477.133 384.01 463.352C404.254 449.57 394.796 435.639 415.039 421.857C435.283 408.076 444.779 422.026 465.023 408.244C485.267 394.463 475.809 380.531 496.053 366.75C516.297 352.968 525.793 366.918 546.036 353.137C566.28 339.355 556.822 325.424 577.066 311.642C597.31 297.861 606.806 311.811 627.068 298.029C647.331 284.248 637.835 270.316 658.079 256.535C678.323 242.753 687.819 256.703 708.081 242.922C728.344 229.14 718.867 215.19 739.111 201.409" stroke="#716D65" stroke-width="7.52" stroke-miterlimit="10"/>
<path d="M187.328 609.601C207.572 595.838 217.049 609.769 237.312 596.006C257.574 582.243 248.079 568.275 268.323 554.512C288.566 540.749 298.062 554.68 318.306 540.899C338.55 527.117 329.092 513.186 349.336 499.405C369.58 485.623 379.075 499.573 399.319 485.791C419.563 472.01 410.105 458.079 430.349 444.297C450.593 430.515 460.089 444.465 480.351 430.684C500.614 416.902 491.118 402.971 511.381 389.189C531.643 375.408 541.102 389.358 561.364 375.576C581.627 361.795 572.131 347.863 592.394 334.082C612.657 320.3 622.115 334.25 642.378 320.469C662.64 306.687 653.144 292.756 673.407 278.974C693.67 265.193 703.147 279.143 723.391 265.361C743.635 251.579 734.176 237.63 754.439 223.848" stroke="#716D65" stroke-width="7.52" stroke-miterlimit="10"/>
<path d="M202.637 632.19C222.881 618.427 232.377 632.358 252.62 618.595C272.864 604.833 263.443 590.901 283.65 577.101C303.857 563.301 313.371 577.269 333.634 563.488C353.896 549.706 344.401 535.756 364.663 521.994C384.926 508.231 394.384 522.162 414.647 508.38C434.909 494.599 425.414 480.668 445.676 466.886C465.939 453.104 475.397 467.054 495.66 453.273C515.923 439.491 506.427 425.541 526.689 411.779C546.952 398.016 556.41 411.947 576.673 398.165C596.936 384.384 587.44 370.453 607.703 356.671C627.965 342.889 637.442 356.839 657.686 343.058C677.93 329.276 668.472 315.326 688.716 301.563C708.96 287.801 718.456 301.732 738.718 287.95C758.981 274.169 749.485 260.219 769.748 246.437" stroke="#716D65" stroke-width="7.52" stroke-miterlimit="10"/>
</g>
</g>
</svg>
